<?xml version="1.0" encoding="utf-8"?>
<svg width="25px" height="31px" viewBox="0 0 25 31" version="1.1" xmlns:xlink="http://www.w3.org/1999/xlink" xmlns="http://www.w3.org/2000/svg">
  <g id="apple">
    <path d="M8.28857 22.9167C3.75231 22.8911 0 13.8446 0 9.23734C0 1.71147 5.77889 0.0638574 8.00604 0.0638574C9.00972 0.0638574 10.0814 0.448921 11.0267 0.789668C11.6877 1.02736 12.3714 1.27273 12.7516 1.27273C12.9792 1.27273 13.5155 1.064 13.989 0.88086C14.6387 0.628158 15.3906 0.335968 16.234 0.159727C16.7014 0.0620597 17.1969 0 17.7186 0C17.7212 0 17.7248 0 17.7273 0C18.8199 0 22.1328 0.23426 24.1245 3.15635L24.591 3.84127L23.9196 4.33626C22.9604 5.04334 21.2102 6.33317 21.2102 8.8881C21.2102 11.9141 23.1923 13.0779 24.1446 13.6376C24.5649 13.8846 25 14.1394 25 14.6965C25 15.0603 22.0281 22.8715 17.7125 22.8715C16.6565 22.8715 15.91 22.5614 15.2516 22.288C14.5854 22.0111 14.0107 21.7726 13.0611 21.7726C12.5797 21.7726 11.971 21.9949 11.3266 22.2309C10.446 22.552 9.44923 22.9167 8.31821 22.9167L8.28857 22.9167Z" transform="translate(0 7.291664)" id="Path" fill="#FFFFFF" stroke="none" />
    <path d="M5.20545 0C5.30763 3.78288 2.67293 6.40727 0.0413265 6.24267C-0.392314 3.2238 2.67261 0 5.20545 0Z" transform="translate(12.5 0)" id="Path" fill="#FFFFFF" stroke="none" />
  </g>
</svg>