<?xml version="1.0" encoding="utf-8"?>
<svg width="19px" height="21px" viewBox="0 0 19 21" version="1.1" xmlns:xlink="http://www.w3.org/1999/xlink" xmlns="http://www.w3.org/2000/svg">
  <g id="@">
    <path d="M13.1899 8.85645L13.1899 14.3599Q13.1899 14.8662 13.3352 15.1235Q13.4805 15.3809 13.6797 15.5012Q13.8789 15.6216 14.186 15.6216Q14.8003 15.6216 15.207 15.2854Q15.6138 14.9492 15.8545 14.4761Q16.0952 14.0029 16.1907 13.5007Q16.2861 12.9985 16.2861 12.2515Q16.2861 11.4048 16.0454 10.6121Q15.8047 9.81934 15.3689 9.11792Q14.9331 8.4165 14.3188 7.8313Q13.7046 7.24609 12.9492 6.8269Q12.1938 6.40771 11.3223 6.17529Q10.4507 5.94287 9.50439 5.94287Q8.56641 5.94287 7.69897 6.18359Q6.83154 6.42432 6.08032 6.86426Q5.3291 7.3042 4.71069 7.91846Q4.09228 8.53272 3.65649 9.28394Q3.2207 10.0352 2.97998 10.8984Q2.73926 11.7617 2.73926 12.6914Q2.73926 13.6294 2.97998 14.4968Q3.2207 15.3643 3.65649 16.1196Q4.09229 16.875 4.71069 17.4893Q5.3291 18.1035 6.08032 18.5435Q6.83154 18.9834 7.69897 19.2241Q8.56641 19.4648 9.50439 19.4648Q10.459 19.4648 11.3472 19.2117Q12.2354 18.9585 13.0073 18.4937L13.7876 19.7969Q12.8496 20.3696 11.7664 20.6809Q10.6831 20.9922 9.50439 20.9922Q8.35889 20.9922 7.29639 20.6975Q6.23389 20.4028 5.3125 19.8633Q4.39111 19.3237 3.63159 18.5642Q2.87207 17.8047 2.33252 16.8833Q1.79297 15.9619 1.49829 14.8994Q1.20361 13.8369 1.20361 12.6914Q1.20361 11.5542 1.49829 10.4958Q1.79297 9.4375 2.33252 8.51611Q2.87207 7.59473 3.63159 6.83936Q4.39111 6.08398 5.3125 5.54443Q6.23389 5.00488 7.29639 4.71021Q8.35889 4.41553 9.50439 4.41553Q10.6665 4.41553 11.7332 4.7019Q12.7998 4.98828 13.7212 5.50293Q14.6426 6.01758 15.3979 6.73975Q16.1533 7.46191 16.6887 8.3335Q17.2241 9.20508 17.5188 10.197Q17.8135 11.189 17.8135 12.2515Q17.8135 12.8159 17.7056 13.3887Q17.5977 13.9614 17.3818 14.4844Q17.166 15.0073 16.8547 15.4639Q16.5435 15.9204 16.1326 16.2566Q15.7217 16.5928 15.2236 16.7878Q14.7256 16.9829 14.1445 16.9829Q13.3809 16.9829 12.8662 16.6509Q12.3516 16.3188 12.061 15.7959Q11.5381 16.2275 10.8823 16.4683Q10.2266 16.709 9.47119 16.709Q8.59961 16.709 7.87329 16.406Q7.14697 16.103 6.61572 15.5718Q6.08447 15.0405 5.78979 14.335Q5.49512 13.6294 5.49512 12.8159Q5.49512 12.0107 5.80225 11.301Q6.10937 10.5913 6.64478 10.0601Q7.18018 9.52881 7.90649 9.21753Q8.63281 8.90625 9.47119 8.90625Q10.0771 8.90625 10.6333 9.07227Q11.1895 9.23828 11.6626 9.54541L11.6626 8.85645L13.1899 8.85645ZM9.47119 15.1733Q10.2515 15.1733 10.8159 14.8123Q11.3804 14.4512 11.6626 13.8784L11.6626 11.7783Q11.5215 11.4878 11.3015 11.2388Q11.0815 10.9897 10.7993 10.8113Q10.5171 10.6328 10.1809 10.5332Q9.84473 10.4336 9.47119 10.4336Q8.93994 10.4336 8.4917 10.6245Q8.04346 10.8154 7.71558 11.1392Q7.38769 11.4629 7.20508 11.8987Q7.02246 12.3345 7.02246 12.8159Q7.02246 13.3057 7.19678 13.7332Q7.37109 14.1606 7.69067 14.4802Q8.01025 14.7998 8.46265 14.9866Q8.91504 15.1733 9.47119 15.1733Z" />
  </g>
</svg>