<?xml version="1.0" encoding="utf-8"?>
<svg width="67px" height="67px" viewBox="0 0 67 67" version="1.1" xmlns:xlink="http://www.w3.org/1999/xlink" xmlns="http://www.w3.org/2000/svg">
  <g id="Icon">
    <path d="M16.5142 44C12.1658 44.0001 8.05933 42.2859 4.89107 39.134C1.57364 35.8335 -0.159194 31.5091 0.0115101 26.9572C0.187931 22.2562 2.32266 17.7403 6.18504 13.8977L13.1392 6.95107C14.1754 5.91584 15.8589 5.9124 16.8995 6.9434C17.94 7.97427 17.9436 9.64926 16.9072 10.6844L9.94931 17.635C4.31089 23.2444 3.77883 30.5453 8.65161 35.393C13.5245 40.2412 20.8631 39.7117 26.4974 34.1058L36.0545 24.5978C38.9513 21.716 40.5488 18.4254 40.6742 15.082C40.7892 12.0175 39.6081 9.09164 37.3485 6.84367C36.5914 6.09056 35.7537 5.45146 34.8586 4.94423C33.5825 4.22114 33.1373 2.6058 33.8641 1.33646C34.5911 0.0669835 36.2147 -0.375837 37.4905 0.347119C38.7984 1.08833 40.0158 2.0155 41.1089 3.10284C44.4264 6.40323 46.1592 10.7276 45.9885 15.2795C45.8121 19.9806 43.6773 24.4966 39.815 28.339L30.2578 37.8471C26.3953 41.6896 21.8562 43.8132 17.1308 43.9889C16.925 43.9962 16.7191 44 16.5142 44L16.5142 44Z" transform="translate(0 23)" id="Path" fill="#FF201F" stroke="none" />
    <path d="M9.82304 44C9.377 44 8.92484 43.8881 8.50952 43.6528C7.20145 42.9116 5.98405 41.9844 4.89108 40.8972C1.57364 37.5967 -0.159194 33.2722 0.0115102 28.7204C0.187932 24.0195 2.32267 19.5035 6.18506 15.6611L15.7424 6.15322C19.6048 2.3107 24.1439 0.186948 28.8692 0.0114346C33.4424 -0.158259 37.7913 1.56553 41.1089 4.86603C44.4264 8.1664 46.1592 12.4909 45.9885 17.0427C45.8121 21.7436 43.6773 26.2596 39.8149 30.102L32.8607 37.0488C31.8244 38.0836 30.1409 38.0874 29.1004 37.0564C28.06 36.0256 28.0564 34.3506 29.0927 33.3155L36.0507 26.3649C41.6891 20.7555 42.2212 13.4547 37.3484 8.60697C32.4757 3.75938 25.1371 4.28883 19.5026 9.89416L9.94535 19.402C4.31063 25.0076 3.77858 32.3084 8.6515 37.1563C9.40837 37.9093 10.2462 38.5484 11.1415 39.0556C12.4175 39.7787 12.8628 41.394 12.1359 42.6633C11.6457 43.5196 10.7476 44 9.82304 44Z" transform="translate(21 0)" id="Path" fill="#FFD5D6" stroke="none" />
  </g>
</svg>