<?xml version="1.0" encoding="utf-8"?>
<svg width="75px" height="76px" viewBox="0 0 75 76" version="1.1" xmlns:xlink="http://www.w3.org/1999/xlink" xmlns="http://www.w3.org/2000/svg">
  <defs>
    <linearGradient x1="0.5" y1="0" x2="0.5" y2="1" id="gradient_1">
      <stop offset="0" stop-color="#FF78D9" />
      <stop offset="1" stop-color="#3D81FF" />
    </linearGradient>
    <rect width="75" height="76" id="artboard_1" />
    <clipPath id="clip_1">
      <use xlink:href="#artboard_1" clip-rule="evenodd" />
    </clipPath>
  </defs>
  <g id="Custom-Preset-3" clip-path="url(#clip_1)">
    <use xlink:href="#artboard_1" stroke="none" fill="#FFFFFF" fill-opacity="0" />
    <g id="Icon">
      <path d="M6.21267 19.8237L5.84416 19.6718L11.9688 5.14858C13.2922 2.01863 16.3514 0 19.7614 0L30.1948 0L30.1948 4.56704L19.7614 4.56704C18.2411 4.56704 16.8192 5.50786 16.2283 6.91146L11.3383 18.508C11.4006 18.507 11.463 18.5065 11.5255 18.5065L43.3357 18.5065L43.3357 23.1818L11.5255 23.1818C7.7113 23.1818 4.61018 26.3268 4.61018 30.1948L4.61018 33.3117C4.61018 35.4592 6.33439 37.2078 8.45201 37.2078L60.7008 37.2078C62.8184 37.2078 64.5426 35.4592 64.5426 33.3117L64.5426 30.1948C64.5426 28.44 63.8972 26.7693 62.7292 25.4852L66.1131 22.3091C68.074 24.4566 69.1558 27.2587 69.1558 30.1917L69.1558 43.7888C69.1558 47.5728 66.0983 50.6493 62.3377 50.6493C58.5771 50.6493 55.5195 47.5728 55.5195 43.7888L55.5195 41.8831L13.6364 41.8831L13.6364 43.7888C13.6364 47.5728 10.5788 50.6493 6.81818 50.6493C3.05758 50.6493 0 47.5728 0 43.7888L0 30.1948C0 25.6911 2.5238 21.7747 6.21267 19.8237ZM11.6883 27.2727L20.4545 27.2727L20.4545 32.1429L11.6883 32.1429L11.6883 27.2727ZM56.4935 27.2727L47.7273 27.2727L47.7273 32.1429L56.4935 32.1429L56.4935 27.2727ZM60.0649 43.7888L60.0649 41.8831L60.7008 41.8831C62.1106 41.8831 63.4407 41.5317 64.6104 40.9106L64.6104 43.7888C64.6104 45.0512 63.5922 46.0757 62.3377 46.0757C61.0831 46.0757 60.0649 45.0512 60.0649 43.7888ZM9.09091 41.8831L8.45201 41.8831C7.04333 41.8831 5.71433 41.5323 4.54545 40.9122L4.54545 43.7888C4.54545 45.0512 5.56364 46.0757 6.81818 46.0757C8.07273 46.0757 9.09091 45.0512 9.09091 43.7888L9.09091 41.8831Z" transform="translate(1.6342483E-13 25.324675)" id="Combined-Shape" fill="url(#gradient_1)" fill-rule="evenodd" stroke="none" />
      <path d="M19.4821 44.8052C19.1735 44.8052 18.8649 44.7434 18.5719 44.6229C17.8113 44.3046 0 36.6721 0 20.9684L0 8.05503C0 7.06003 0.639012 6.17936 1.58974 5.86108L18.734 0.12283C19.2171 -0.0409434 19.7439 -0.0409434 20.2271 0.12283L37.3713 5.86108C38.322 6.17936 38.961 7.06312 38.961 8.05503L38.961 20.9684C38.961 36.6721 21.1466 44.3077 20.3892 44.6229C20.0993 44.7434 19.7907 44.8052 19.4821 44.8052L19.4821 44.8052ZM4.6757 9.72058L4.6757 20.9684C4.6757 31.8331 16.1249 38.2759 19.479 39.9291C22.8299 38.2666 34.2885 31.7929 34.2885 20.9684L34.2885 9.72058L19.4821 4.76411L4.6757 9.72058Z" transform="translate(36.03896 0)" id="Shape" fill="#FF6A2E" stroke="none" />
      <path d="M7.99387 15.5844C7.9506 15.5844 7.90732 15.5844 7.86404 15.5812C7.20561 15.542 6.59355 15.2095 6.18242 14.6683L0 6.51742L3.61981 3.45922L8.18553 9.4778L17.1748 0L20.4545 3.45922L9.63531 14.8704C9.19635 15.3268 8.60593 15.5844 7.99387 15.5844Z" transform="translate(46.753246 13.636364)" id="Path" fill="#FF6A2E" fill-rule="evenodd" stroke="none" />
    </g>
  </g>
</svg>