<svg xmlns="http://www.w3.org/2000/svg" width="68" height="66" viewBox="0 0 68 66">
    <g fill="none" fill-rule="evenodd">
        <g fill-rule="nonzero">
            <g>
                <g>
                    <g>
                        <path fill="#FFD6D6" d="M34 41.967c-3.084 0-6.167-.754-8.978-2.261L4.75 28.835C1.81 27.259-.009 24.211 0 20.88c.01-3.33 1.848-6.368 4.796-7.927L25.12 2.206c5.561-2.941 12.2-2.941 17.762 0l20.323 10.747c2.948 1.559 4.786 4.596 4.795 7.927.01 3.33-1.81 6.379-4.75 7.955l-20.271 10.87c-2.81 1.508-5.895 2.262-8.978 2.262zm0-36.655c-2.197 0-4.394.53-6.397 1.589L7.28 17.648c-1.227.649-1.963 1.863-1.967 3.247-.004 1.385.724 2.603 1.949 3.26l20.271 10.87c4.05 2.172 8.885 2.172 12.934 0l20.272-10.87c1.224-.657 1.952-1.875 1.948-3.26-.004-1.384-.74-2.598-1.967-3.247L40.397 6.9c-2.003-1.06-4.2-1.59-6.397-1.59zm8.978 58.427l23.62-12.666c1.293-.694 1.78-2.303 1.086-3.596-.693-1.292-2.303-1.778-3.596-1.085L40.467 59.058c-4.05 2.172-8.884 2.172-12.944-.005L3.902 46.519C2.606 45.832.998 46.325.311 47.62c-.688 1.296-.195 2.903 1.1 3.59l23.61 12.529C27.834 65.246 30.917 66 34 66c3.083 0 6.168-.754 8.978-2.261z" transform="translate(-244 -1601) translate(189.29 1257.083) translate(48.71 343.917) translate(6)"/>
                        <path fill="#FF1F1F" d="M34 53c-3.084 0-6.167-.719-8.978-2.156L1.412 38.896C.116 38.241-.378 36.708.31 35.472c.687-1.235 2.295-1.705 3.591-1.05l23.62 11.953c4.06 2.076 8.896 2.076 12.945.005l23.62-12.079c1.294-.66 2.904-.198 3.597 1.035.693 1.232.208 2.768-1.085 3.429L42.978 50.844C40.168 52.28 37.083 53 34 53z" transform="translate(-244 -1601) translate(189.29 1257.083) translate(48.71 343.917) translate(6)"/>
                    </g>
                </g>
            </g>
        </g>
    </g>
</svg>
