<svg xmlns="http://www.w3.org/2000/svg" width="56" height="56" viewBox="0 0 56 56">
    <g fill="none" fill-rule="evenodd">
        <g fill-rule="nonzero">
            <g>
                <g>
                    <g>
                        <path fill="#FFD0D0" d="M37.736 47.36c-.252 0-.508-.044-.757-.136l-6.682-2.465v6.866h1.423c1.208 0 2.188.98 2.188 2.188 0 1.208-.98 2.187-2.188 2.187H24.5c-1.21 0-2.189-.98-2.189-2.188 0-1.208.98-2.187 2.188-2.187h1.422v-6.866l-6.682 2.465c-1.036.382-2.196-.068-2.702-1.05-.506-.982-.2-2.187.712-2.81l8.672-5.91v-4.97c0-1.208.98-2.187 2.188-2.187 1.209 0 2.188.98 2.188 2.187v4.97l8.673 5.91c.913.623 1.218 1.828.712 2.81-.385.746-1.147 1.186-1.946 1.186zm18.133-5.156L51.27 11.2c-.462-3.113-2.028-5.958-4.41-8.013C44.475 1.132 41.43 0 38.283 0H17.716c-3.147 0-6.192 1.132-8.575 3.187-2.383 2.055-3.95 4.9-4.411 8.013L.13 42.204c-.513 3.464.504 6.972 2.792 9.623C5.21 54.48 8.532 56 12.035 56h3.712c1.208 0 2.188-.98 2.188-2.188 0-1.208-.98-2.187-2.188-2.187h-3.712c-2.23 0-4.343-.968-5.8-2.655-1.455-1.688-2.103-3.92-1.776-6.124l4.6-31.005c.631-4.256 4.353-7.466 8.657-7.466h20.568c4.304 0 8.026 3.21 8.657 7.466l4.6 31.005c.327 2.204-.32 4.436-1.777 6.124-1.456 1.687-3.57 2.655-5.799 2.655h-3.493c-1.209 0-2.188.98-2.188 2.188 0 1.208.98 2.187 2.188 2.187h3.493c3.503 0 6.825-1.52 9.113-4.173 2.288-2.651 3.305-6.16 2.791-9.623z" transform="translate(-1222 -3877) translate(213.29 3546.083) translate(945.71 330.917) translate(63)"/>
                        <path fill="#FF1F1F" d="M30.897 22.345c0 1.523-1.297 2.758-2.897 2.758-1.6 0-2.897-1.235-2.897-2.758 0-1.524 1.297-2.759 2.897-2.759 1.6 0 2.897 1.235 2.897 2.759zM28 9.655c-1.6 0-2.897 1.235-2.897 2.759 0 1.523 1.297 2.758 2.897 2.758 1.6 0 2.897-1.235 2.897-2.758 0-1.524-1.297-2.759-2.897-2.759z" transform="translate(-1222 -3877) translate(213.29 3546.083) translate(945.71 330.917) translate(63)"/>
                    </g>
                </g>
            </g>
        </g>
    </g>
</svg>
