<svg xmlns="http://www.w3.org/2000/svg" width="68" height="75" viewBox="0 0 68 75">
  <g id="Icon" transform="translate(0 0)">
    <path id="Shape" d="M26.976,54.7C19.207,48.934,7.536,36.919,2,28.987A11.121,11.121,0,0,1,3.72,14.324S14.351,3.838,14.392,3.8A14.934,14.934,0,0,1,24.226,0H43.774a14.93,14.93,0,0,1,9.833,3.8c.042.037,10.672,10.524,10.672,10.524A11.12,11.12,0,0,1,66,28.987C60.464,36.919,48.794,48.934,41.024,54.7,38.336,56.693,36.4,58,34,58S29.663,56.693,26.976,54.7Z" transform="translate(0 17)" fill="#ffd6d6"/>
    <path id="Shape-2" data-name="Shape" d="M4.566,45a2.982,2.982,0,0,1,0-5.962H15.021L10.6,33.075a3.005,3.005,0,0,1,.589-4.173,2.922,2.922,0,0,1,4.123.6L21.5,37.845,27.685,29.5a2.921,2.921,0,0,1,4.123-.6,3.005,3.005,0,0,1,.59,4.173l-4.418,5.963h10.6a2.981,2.981,0,0,1,0,5.962Zm32.31-31.32a2.99,2.99,0,0,1-1.811-3.8l2.209-6.41a2.935,2.935,0,0,1,3.75-1.832,2.989,2.989,0,0,1,1.811,3.8l-2.209,6.41a2.955,2.955,0,0,1-2.789,2A2.822,2.822,0,0,1,36.876,13.68ZM2.207,11.64.146,5.23A2.988,2.988,0,0,1,2.034,1.472,2.937,2.937,0,0,1,5.747,3.384l2.062,6.41a2.99,2.99,0,0,1-1.889,3.757,2.909,2.909,0,0,1-.913.147A2.95,2.95,0,0,1,2.207,11.64ZM18.26,9.822V2.966a2.945,2.945,0,1,1,5.89,0V9.822a2.945,2.945,0,1,1-5.89,0Z" transform="translate(13)" fill="#ff1f1f"/>
  </g>
</svg>
