<?xml version="1.0" encoding="utf-8"?>
<svg width="75px" height="76px" viewBox="0 0 75 76" version="1.1" xmlns:xlink="http://www.w3.org/1999/xlink" xmlns="http://www.w3.org/2000/svg">
  <defs>
    <linearGradient x1="0.5" y1="0" x2="0.5" y2="1" id="gradient_1">
      <stop offset="0" stop-color="#FF80FE" />
      <stop offset="1" stop-color="#6B9FFF" />
    </linearGradient>
    <rect width="75" height="76" id="artboard_1" />
    <clipPath id="clip_1">
      <use xlink:href="#artboard_1" clip-rule="evenodd" />
    </clipPath>
  </defs>
  <g id="Custom-Preset-3" clip-path="url(#clip_1)">
    <use xlink:href="#artboard_1" stroke="none" fill="#FFFFFF" fill-opacity="0" />
    <g id="Icon" transform="translate(4 6)">
      <path d="M34.0015 62.2535C30.231 62.2538 26.4616 61.0362 23.313 58.6003C23.3095 58.5975 23.3059 58.5948 23.3024 58.5921C16.4301 53.2646 10.9779 47.5322 7.09684 41.5543C2.38784 34.3007 0 26.6871 0 18.9249C0 8.48961 8.22202 0 18.3281 0C23.0458 0 27.6084 1.74368 31.1755 4.9099C32.2437 5.85812 33.1724 6.89233 33.9465 7.98284C37.2118 3.28771 43.1763 0 49.6719 0C59.778 0 68 8.48974 68 18.9249C68 18.9422 67.9999 18.9594 67.9995 18.9765C67.6465 37.0626 55.133 50.5024 44.6976 58.5922C41.5492 61.0329 37.7751 62.2534 34.0015 62.2535ZM26.5568 54.4034C26.5571 54.4036 26.5575 54.404 26.5577 54.4041C30.9393 57.8014 37.0581 57.8028 41.4379 54.4077C50.9544 47.03 62.3632 34.8824 62.6875 18.8996C62.6746 11.3979 56.8408 5.29955 49.6719 5.29955C42.2226 5.29955 36.6563 10.8953 36.6563 15.8986C36.6563 17.3621 35.467 18.5484 34 18.5484C32.533 18.5484 31.3438 17.3621 31.3438 15.8986C31.3438 13.5531 29.9606 10.9251 27.6441 8.86893C25.0508 6.5672 21.7423 5.29955 18.3281 5.29955C11.1513 5.29955 5.3125 11.4119 5.3125 18.9249C5.3125 34.6335 16.8639 46.888 26.5568 54.4034Z" id="Shape" fill="url(#gradient_1)" stroke="none" />
      <path d="M40.4045 5.43869C35.9382 5.43869 31.8851 8.5749 30.767 12.8959C30.7479 12.9694 29.827 18.5811 29.827 18.5811C29.7877 18.6901 29.7046 18.8059 29.4419 18.7953C29.131 18.7836 29.0845 18.6155 29.062 18.492L26.9138 4.4262C26.9112 4.40963 26.9085 4.39307 26.9057 4.3765C26.4467 1.73042 24.1786 -0.0676768 21.3855 0.00195356C18.6412 0.0711956 16.4988 1.91938 16.1293 4.51498C16.1293 4.51498 14.0854 14.0376 14.0797 14.0703C14.0582 14.1946 14.0256 14.4834 13.6962 14.4958C13.3675 14.5106 13.3189 14.2226 13.2872 14.1002C13.2663 14.0194 12.8083 12.7637 12.8083 12.7637C11.6676 8.64557 7.25485 5.43882 2.69422 5.43882C1.2062 5.43882 0 6.59768 0 8.0273C0 9.45693 1.2062 10.6158 2.69422 10.6158C4.82885 10.6158 7.12809 12.2649 7.6144 14.1449C7.63528 14.2257 8.09559 15.4876 8.09559 15.4876C8.79312 17.9263 11.1165 19.5436 13.7405 19.5435C16.4951 19.4396 18.9061 17.5797 19.3848 14.9775C19.3848 14.9775 21.4712 5.1955 21.4739 5.18333C21.5058 5.17647 21.5479 5.17544 21.58 5.18061C21.5824 5.18941 23.7401 19.3053 23.7429 19.3219C24.1996 21.9529 26.5382 23.9437 29.3671 23.9437C32.0613 23.9437 34.4295 22.2639 35.0801 19.7494C35.0992 19.6759 36.0228 14.0468 36.0228 14.0468C36.5786 12.0839 38.4445 10.6157 40.4044 10.6157C41.8924 10.6157 43.0986 9.4568 43.0986 8.02717C43.0986 6.59755 41.8924 5.43869 40.4045 5.43869L40.4045 5.43869Z" transform="translate(12.450705 22.02817)" id="Path" fill="#FF6A2E" fill-rule="evenodd" stroke="none" />
    </g>
  </g>
</svg>