<svg xmlns="http://www.w3.org/2000/svg" width="60" height="58" viewBox="0 0 60 58">
    <g fill="none" fill-rule="evenodd">
        <g fill-rule="nonzero">
            <g>
                <g>
                    <g>
                        <path fill="#FFCBCB" d="M30.001 56.56c-3.327 0-6.653-1.095-9.43-3.287l-.01-.007c-6.064-4.792-10.875-9.949-14.3-15.326C2.108 31.415 0 24.566 0 17.584 0 8.197 7.255.56 16.172.56c4.162 0 8.188 1.568 11.336 4.416.942.853 1.762 1.784 2.445 2.765C32.833 3.517 38.097.56 43.828.56 52.745.56 60 8.197 60 17.584v.046c-.312 16.27-11.353 28.359-20.56 35.636C36.66 55.462 33.33 56.56 30 56.56zm-6.569-7.062h.001c3.866 3.057 9.265 3.058 13.13.004 8.397-6.637 18.463-17.564 18.75-31.941-.012-6.748-5.16-12.234-11.485-12.234-6.573 0-11.484 5.034-11.484 9.534 0 1.317-1.05 2.384-2.344 2.384-1.294 0-2.344-1.067-2.344-2.384 0-2.11-1.22-4.474-3.264-6.323-2.288-2.07-5.208-3.211-8.22-3.211-6.333 0-11.485 5.498-11.485 12.257 0 14.13 10.193 25.154 18.745 31.914z" transform="translate(-316 -3881) translate(213.29 3546.083) translate(1.71 291.917) translate(101 43.44)"/>
                        <path fill="#FF1F1F" d="M46.687 24.557c-3.834 0-7.314 2.882-8.274 6.852-.016.067-.807 5.223-.807 5.223-.033.1-.105.207-.33.197-.267-.01-.307-.165-.326-.278l-1.845-12.924-.007-.046c-.394-2.431-2.34-4.083-4.739-4.02-2.356.064-4.195 1.762-4.512 4.147l-1.76 8.78c-.018.114-.046.38-.329.39-.282.014-.324-.25-.351-.363-.018-.074-.411-1.228-.411-1.228-.98-3.784-4.768-6.73-8.683-6.73-1.277 0-2.313 1.065-2.313 2.378 0 1.314 1.036 2.379 2.313 2.379 1.833 0 3.806 1.515 4.224 3.242.018.075.413 1.234.413 1.234.599 2.24 2.593 3.727 4.846 3.727 2.365-.096 4.435-1.805 4.846-4.196l1.793-8.999c.028-.006.064-.007.091-.002l1.857 12.993c.392 2.417 2.4 4.247 4.829 4.247 2.313 0 4.346-1.544 4.904-3.854.017-.068.81-5.24.81-5.24.477-1.803 2.078-3.152 3.761-3.152 1.277 0 2.313-1.065 2.313-2.379 0-1.313-1.036-2.378-2.313-2.378z" transform="translate(-316 -3881) translate(213.29 3546.083) translate(1.71 291.917) translate(101 43.44)"/>
                    </g>
                </g>
            </g>
        </g>
    </g>
</svg>
