<svg xmlns="http://www.w3.org/2000/svg" width="55" height="55" viewBox="0 0 55 55">
    <g fill="none" fill-rule="evenodd">
        <g fill-rule="nonzero">
            <g>
                <g>
                    <g>
                        <path fill="#FFD0D0" d="M42.11 55H12.89C5.784 55 0 49.216 0 42.108v-18.08c0-3.995 1.896-7.827 5.073-10.25l14.61-11.145c4.602-3.51 11.032-3.51 15.635 0l14.609 11.145C53.104 16.2 55 20.033 55 24.028v18.08C55 49.216 49.217 55 42.11 55zM27.5 4.295c-1.839 0-3.677.585-5.212 1.755L7.678 17.195c-2.117 1.615-3.381 4.17-3.381 6.834v18.079c0 4.739 3.855 8.595 8.594 8.595h29.218c4.739 0 8.594-3.856 8.594-8.595v-18.08c0-2.663-1.264-5.218-3.382-6.833L32.711 6.05C31.178 4.88 29.34 4.295 27.5 4.295zm0 25.565c-4.146 0-7.52-3.374-7.52-7.521s3.374-7.52 7.52-7.52c4.146 0 7.52 3.373 7.52 7.52 0 4.147-3.374 7.52-7.52 7.52zm0-10.744c-1.777 0-3.223 1.446-3.223 3.223s1.446 3.223 3.223 3.223 3.223-1.446 3.223-3.223-1.446-3.223-3.223-3.223z" transform="translate(-922 -3881) translate(213.29 3546.083) translate(649.21 334.917) translate(59.5)"/>
                        <path fill="#FF1F1F" d="M38.167 45.833c-1.197 0-2.167-.942-2.167-2.103 0-3.597-3.031-6.522-6.757-6.522H27.59c-3.726 0-6.757 2.925-6.757 6.522 0 1.161-.97 2.103-2.166 2.103-1.197 0-2.167-.942-2.167-2.103C16.5 37.813 21.475 33 27.59 33h1.653c6.115 0 11.09 4.813 11.09 10.73 0 1.161-.97 2.103-2.166 2.103z" transform="translate(-922 -3881) translate(213.29 3546.083) translate(649.21 334.917) translate(59.5)"/>
                    </g>
                </g>
            </g>
        </g>
    </g>
</svg>
