<svg xmlns="http://www.w3.org/2000/svg" width="46" height="41" viewBox="0 0 46 41">
  <g id="Icon" transform="translate(46 41) rotate(180)">
    <path id="Shape" d="M4.659,37.992c4.827-3.023,8.458-8.126,10.99-12.927a32.208,32.208,0,0,0,3.578-9.809A11.269,11.269,0,0,1,9.5,18.575c-4.332-.747-8.388-3.753-9.32-7.907-1.66-7.4,8.311-12.717,14.932-9.9C32.643,8.22,16.98,34.083,6.367,40.729A1.651,1.651,0,0,1,5.486,41,1.635,1.635,0,0,1,4.659,37.992Z" transform="translate(0 0)" fill="#fe1e48"/>
    <path id="Shape-2" data-name="Shape" d="M4.659,37.992c4.828-3.023,8.458-8.126,10.99-12.927a32.206,32.206,0,0,0,3.577-9.809A11.266,11.266,0,0,1,9.5,18.575c-4.332-.747-8.388-3.753-9.32-7.907-1.66-7.4,8.31-12.717,14.931-9.9C32.643,8.22,16.98,34.083,6.367,40.729A1.649,1.649,0,0,1,5.486,41,1.635,1.635,0,0,1,4.659,37.992Z" transform="translate(23 0)" fill="#fe1e48"/>
  </g>
</svg>
