<svg xmlns="http://www.w3.org/2000/svg" width="60" height="61" viewBox="0 0 60 61">
    <g fill="none" fill-rule="evenodd">
        <g fill-rule="nonzero">
            <g>
                <g>
                    <g>
                        <path fill="#FBB" d="M24.014 20v3.697h-8.298c-1.209 0-2.34.762-2.81 1.898l-3.89 9.387.15-.001h25.3v3.784h-25.3c-3.033 0-5.5 2.546-5.5 5.677v2.523c0 1.739 1.372 3.154 3.056 3.154h41.554c1.684 0 3.055-1.415 3.055-3.154v-2.523c0-1.42-.513-2.773-1.442-3.812l2.691-2.571c1.56 1.738 2.42 4.007 2.42 6.38v11.007C55 58.51 52.568 61 49.577 61c-2.99 0-5.422-2.49-5.422-5.554l-.001-1.543H10.845v1.543C10.845 58.51 8.413 61 5.423 61 2.432 61 0 58.51 0 55.446V44.442c0-3.645 2.007-6.816 4.941-8.395l-.293-.123 4.87-11.756C10.572 21.634 13.005 20 15.717 20h8.298zM3.615 53.118v2.328c0 1.022.81 1.852 1.808 1.852.997 0 1.807-.83 1.807-1.852v-1.543h-.508c-1.12 0-2.177-.283-3.107-.785zm44.66.786l-.506-.001.001 1.543c0 1.022.81 1.852 1.807 1.852.998 0 1.808-.83 1.808-1.852v-2.33c-.93.503-1.988.788-3.11.788zM16.269 42.077v3.942H9.296v-3.942h6.972zm28.662 0v3.942h-6.972v-3.942h6.972z" transform="translate(-616 -3885) translate(213.29 3546.083) translate(357.21 338.917) translate(45.5)"/>
                        <path fill="#FF3E3E" d="M44.501 36c-.245 0-.49-.05-.724-.146C43.172 35.598 29 29.465 29 16.848V6.472c0-.8.508-1.507 1.265-1.763L43.906.1c.384-.132.804-.132 1.188 0l13.641 4.61c.757.256 1.265.966 1.265 1.763v10.376C60 29.465 45.826 35.6 45.223 35.854c-.23.096-.476.146-.722.146zM32.721 7.81v9.038c0 8.73 9.11 13.906 11.778 15.234 2.666-1.336 11.783-6.537 11.783-15.234V7.81l-11.78-3.982L32.72 7.81z" transform="translate(-616 -3885) translate(213.29 3546.083) translate(357.21 338.917) translate(45.5)"/>
                        <path fill="#FF1F1F" d="M43.253 24c-.034 0-.068 0-.102-.003-.515-.03-.993-.286-1.315-.702L37 17.018l2.831-2.354 3.572 4.634L50.434 12 53 14.664l-8.463 8.786c-.343.352-.805.55-1.284.55z" transform="translate(-616 -3885) translate(213.29 3546.083) translate(357.21 338.917) translate(45.5)"/>
                    </g>
                </g>
            </g>
        </g>
    </g>
</svg>
