<?xml version="1.0" encoding="utf-8"?>
<svg width="57px" height="57px" viewBox="0 0 57 57" version="1.1" xmlns:xlink="http://www.w3.org/1999/xlink" xmlns="http://www.w3.org/2000/svg">
  <defs>
    <linearGradient x1="0.88786316" y1="0.8952266" x2="0.17401995" y2="0.10089547" id="gradient_1">
      <stop offset="0" stop-color="#F283D9" />
      <stop offset="1" stop-color="#6273FF" />
    </linearGradient>
    <rect width="57" height="57" id="artboard_1" />
    <clipPath id="clip_1">
      <use xlink:href="#artboard_1" clip-rule="evenodd" />
    </clipPath>
  </defs>
  <g id="Custom-Preset-5" clip-path="url(#clip_1)">
    <use xlink:href="#artboard_1" stroke="none" fill="#FFFFFF" fill-opacity="0" />
    <g id="Icon">
      <path d="M37.7363 47.3597C37.484 47.3597 37.2282 47.316 36.9794 47.2242L30.2974 44.7592L30.2974 51.625L31.7196 51.625C32.9281 51.625 33.9076 52.6043 33.9076 53.8125C33.9076 55.0207 32.9281 56 31.7196 56L24.499 56C23.2905 56 22.3109 55.0207 22.3109 53.8125C22.3109 52.6043 23.2905 51.625 24.499 51.625L25.9212 51.625L25.9212 44.7592L19.2392 47.2241C18.2025 47.6063 17.0433 47.156 16.5369 46.1741C16.0306 45.192 16.3361 43.9868 17.2492 43.3645L25.9212 37.4533L25.9212 32.4844C25.9212 31.2762 26.9008 30.2969 28.1093 30.2969C29.3178 30.2969 30.2974 31.2762 30.2974 32.4844L30.2974 37.4533L38.9694 43.3645C39.8825 43.9868 40.188 45.1921 39.6817 46.1741C39.2968 46.9203 38.5348 47.3597 37.7363 47.3597L37.7363 47.3597ZM55.8694 42.2038L51.2701 11.1996C50.8084 8.08741 49.2419 5.24169 46.8591 3.18664C44.4763 1.13181 41.4308 0 38.2839 0L17.7161 0C14.5691 0 11.5237 1.13181 9.1409 3.18675C6.75799 5.2418 5.19145 8.08752 4.72988 11.1997L0.130579 42.2037C-0.383286 45.6679 0.63427 49.1755 2.92232 51.8272C5.21027 54.4791 8.53163 56 12.0346 56L15.7469 56C16.9553 56 17.9349 55.0207 17.9349 53.8125C17.9349 52.6043 16.9553 51.625 15.7469 51.625L12.0346 51.625C9.80552 51.625 7.69185 50.6571 6.23581 48.9697C4.77977 47.2823 4.13221 45.05 4.45933 42.8456L9.05863 11.8414C9.68999 7.58483 13.4119 4.375 17.7161 4.375L38.2839 4.375C42.5881 4.375 46.31 7.58483 46.9414 11.8414L51.5407 42.8457C51.8677 45.05 51.2202 47.2823 49.7642 48.9697C48.3081 50.6571 46.1945 51.625 43.9654 51.625L40.4719 51.625C39.2635 51.625 38.2839 52.6043 38.2839 53.8125C38.2839 55.0207 39.2635 56 40.4719 56L43.9654 56C47.4684 56 50.7897 54.4791 53.0778 51.8273C55.3658 49.1755 56.3833 45.6679 55.8694 42.2038Z" id="Shape" fill="url(#gradient_1)" stroke="none" />
      <path d="M5.7931 12.6897C5.7931 14.2132 4.49626 15.4483 2.89655 15.4483C1.29684 15.4483 0 14.2132 0 12.6897C0 11.1661 1.29684 9.93103 2.89655 9.93103C4.49626 9.93103 5.7931 11.1661 5.7931 12.6897ZM2.89655 0C1.29684 0 0 1.23509 0 2.75862C0 4.28215 1.29684 5.51724 2.89655 5.51724C4.49626 5.51724 5.7931 4.28215 5.7931 2.75862C5.7931 1.23509 4.49626 0 2.89655 0Z" transform="translate(25.103516 9.655151)" id="Shape" fill="#FF6A2E" stroke="none" />
    </g>
  </g>
</svg>