<?xml version="1.0" encoding="utf-8"?>
<svg width="75px" height="76px" viewBox="0 0 75 76" version="1.1" xmlns:xlink="http://www.w3.org/1999/xlink" xmlns="http://www.w3.org/2000/svg">
  <defs>
    <linearGradient x1="0.5" y1="0" x2="0.5" y2="1" id="gradient_1">
      <stop offset="0" stop-color="#E268FF" />
      <stop offset="0.31660888" stop-color="#C071FF" />
      <stop offset="1" stop-color="#7886FF" />
    </linearGradient>
    <rect width="75" height="76" id="artboard_1" />
    <clipPath id="clip_1">
      <use xlink:href="#artboard_1" clip-rule="evenodd" />
    </clipPath>
  </defs>
  <g id="Custom-Preset-3" clip-path="url(#clip_1)">
    <use xlink:href="#artboard_1" stroke="none" fill="#FFFFFF" fill-opacity="0" />
    <g id="Icon">
      <path d="M11.8851 28.4909L11.8851 43.0693C11.8851 44.6879 10.5677 46 8.94253 46C7.31737 46 6 44.6879 6 43.0693L6 28.4909C6 23.0411 8.59752 17.8144 12.9482 14.5093L27.2114 3.597C33.5235 -1.1979 42.3292 -1.19805 48.6334 3.59085L63.0483 14.5068C67.4675 17.8639 70 22.9327 70 28.416C70 30.0345 68.6826 31.3467 67.0575 31.3467C65.4323 31.3467 64.1149 30.0345 64.1149 28.416C64.1149 24.7762 62.4265 21.4062 59.4828 19.17L45.068 8.25402C40.8618 5.05868 34.9913 5.05883 30.7885 8.25123L16.5253 19.1638C13.6167 21.3733 11.8851 24.8577 11.8851 28.4909ZM11.194 52.0167C7.14519 50.4684 2.81955 52.029 0.908695 55.7294C-1.1166 59.6517 0.35405 64.5926 4.22191 66.6754C9.23878 69.3773 19.6783 75 35.4176 75C47.8132 75 59.0676 70.2671 66.326 66.2968C68.9477 64.8627 70.7544 64.9417 71.255 65.0015C71.5136 65.0767 71.7859 65.1193 72.0684 65.1193C73.6871 65.1193 74.9992 63.7965 74.9992 62.1647C74.9992 60.7948 74.073 59.646 72.8184 59.3115L72.8234 59.2929C72.4126 59.1824 68.6627 58.2956 63.5307 61.103C56.8688 64.7471 46.5836 69.0909 35.4176 69.0909C22.8747 69.0909 14.3393 65.4249 6.98385 61.4635C5.9364 60.8994 5.53167 59.5742 6.08147 58.5095C6.69283 57.3256 8.09563 57.1519 9.11436 57.5413C15.1933 59.8673 24.7319 63.4293 35.8738 63.4773C39.2441 63.4773 42.463 63.0883 45.2643 62.3461C46.8298 61.9315 47.7654 60.3159 47.354 58.7377C46.9426 57.1596 45.3401 56.216 43.7745 56.6311C41.383 57.2647 38.6616 57.5859 35.8736 57.5682C33.2812 57.5385 30.9958 57.2232 29.3936 56.6326C28.2813 56.2227 27.4733 55.5495 27.1189 54.7371C26.8299 54.075 26.8459 53.3421 27.1665 52.5589C27.5799 51.549 28.403 51.1299 29.0208 50.9562C29.5744 50.8006 30.2458 50.7704 30.962 50.8685C32.7913 51.1193 34.5174 51.2323 36.1463 51.2323C45.2043 51.2326 51.2981 47.744 55.9396 45.0868L55.9418 45.0855C59.0417 43.3107 61.4902 41.9091 63.8623 41.9091C67.4468 41.9091 71.193 43.2515 71.193 43.2515C72.7375 43.7385 74.382 42.8717 74.8654 41.3143C75.349 39.7571 74.4886 38.0995 72.9438 37.6121C72.9438 37.6121 68.4388 36 63.8623 36C59.9418 36 56.5929 37.9174 53.0474 39.9471C47.772 42.9673 41.793 46.39 31.7521 45.0134C30.2299 44.8047 28.7812 44.8892 27.4462 45.2644C24.8355 45.9983 22.7586 47.8356 21.748 50.3052C21.0547 51.999 20.8818 53.7805 21.2286 55.4628C17.4705 54.4179 14.0178 53.0972 11.194 52.0167Z" id="Combined-Shape" fill="url(#gradient_1)" fill-rule="evenodd" stroke="none" />
      <path d="M7.69231 3.84615C7.69231 5.97031 5.97031 7.69231 3.84615 7.69231C1.722 7.69231 4.37257e-15 5.97031 4.37257e-15 3.84615C4.37257e-15 1.722 1.722 0 3.84615 0C5.97031 0 7.69231 1.722 7.69231 3.84615ZM16.1538 0C14.0297 0 12.3077 1.722 12.3077 3.84615C12.3077 5.97031 14.0297 7.69231 16.1538 7.69231C18.278 7.69231 20 5.97031 20 3.84615C20 1.722 18.278 0 16.1538 0ZM3.84615 12.3077C1.722 12.3077 0 14.0297 0 16.1538C0 18.278 1.722 20 3.84615 20C5.97031 20 7.69231 18.278 7.69231 16.1538C7.69231 14.0297 5.97031 12.3077 3.84615 12.3077L3.84615 12.3077ZM16.1538 12.3077C14.0297 12.3077 12.3077 14.0297 12.3077 16.1538C12.3077 18.278 14.0297 20 16.1538 20C18.278 20 20 18.278 20 16.1538C20 14.0297 18.278 12.3077 16.1538 12.3077L16.1538 12.3077Z" transform="translate(27 18)" id="Shape" fill="#FF6A2E" stroke="none" />
    </g>
  </g>
</svg>