<?xml version="1.0" encoding="utf-8"?>
<svg width="57px" height="57px" viewBox="0 0 57 57" version="1.1" xmlns:xlink="http://www.w3.org/1999/xlink" xmlns="http://www.w3.org/2000/svg">
  <defs>
    <linearGradient x1="0.5" y1="0" x2="0.5" y2="1" id="gradient_1">
      <stop offset="0" stop-color="#FF8AFA" />
      <stop offset="1" stop-color="#7181FF" />
    </linearGradient>
    <rect width="57" height="57" id="artboard_1" />
    <clipPath id="clip_1">
      <use xlink:href="#artboard_1" clip-rule="evenodd" />
    </clipPath>
  </defs>
  <g id="Custom-Preset-5" clip-path="url(#clip_1)">
    <use xlink:href="#artboard_1" stroke="none" fill="#FFFFFF" fill-opacity="0" />
    <g id="Icon" transform="translate(1 1)">
      <path d="M42.1094 55L12.8906 55C5.78273 55 0 49.2164 0 42.1075L0 24.0289C0 20.0332 1.89643 16.201 5.07321 13.7778L19.6826 2.63337C24.2854 -0.877791 30.7147 -0.877791 35.3175 2.63337L49.9269 13.7778C53.1036 16.2009 55 20.0331 55 24.0289L55 42.1075C55 49.2164 49.2173 55 42.1094 55ZM27.5 4.29479C25.6614 4.29479 23.8226 4.88 22.2883 6.05031L7.67895 17.1947C5.56123 18.8102 4.29688 21.3651 4.29688 24.0289L4.29688 42.1075C4.29688 46.8468 8.15203 50.7025 12.8906 50.7025L42.1094 50.7025C46.848 50.7025 50.7031 46.8468 50.7031 42.1075L50.7031 24.0289C50.7031 21.3651 49.4388 18.8103 47.3211 17.1948L32.7117 6.05042C31.1774 4.88 29.3386 4.29479 27.5 4.29479ZM27.5 29.8596C23.3537 29.8596 19.9805 26.4859 19.9805 22.339C19.9805 18.1921 23.3537 14.8184 27.5 14.8184C31.6463 14.8184 35.0195 18.1921 35.0195 22.339C35.0195 26.4859 31.6463 29.8596 27.5 29.8596ZM27.5 19.1159C25.723 19.1159 24.2773 20.5618 24.2773 22.339C24.2773 24.1162 25.723 25.5621 27.5 25.5621C29.277 25.5621 30.7227 24.1162 30.7227 22.339C30.7227 20.5618 29.277 19.1159 27.5 19.1159Z" id="Shape" fill="url(#gradient_1)" stroke="none" />
      <path d="M21.6667 12.8333C20.47 12.8333 19.5 11.8914 19.5 10.7295C19.5 7.13333 16.4688 4.20765 12.7429 4.20765L11.0904 4.20765C7.3645 4.20765 4.33333 7.13333 4.33333 10.7295C4.33333 11.8914 3.36332 12.8333 2.16667 12.8333C0.970017 12.8333 0 11.8914 0 10.7295C0 4.81324 4.97521 0 11.0904 0L12.7429 0C18.8581 0 23.8333 4.81324 23.8333 10.7295C23.8333 11.8913 22.8633 12.8333 21.6667 12.8333L21.6667 12.8333Z" transform="translate(16.5 33)" id="Path" fill="#FF6A2E" fill-rule="evenodd" stroke="none" />
    </g>
  </g>
</svg>