<svg xmlns="http://www.w3.org/2000/svg" width="68" height="68" viewBox="0 0 68 68">
    <g fill="none" fill-rule="evenodd">
        <g fill-rule="nonzero">
            <g>
                <g>
                    <g>
                        <path fill="#FFD6D6" d="M54.719 46.748c-7.448 0-13.282-4.084-13.282-9.298s5.834-9.298 13.282-9.298C62.166 28.152 68 32.236 68 37.45s-5.834 9.298-13.281 9.298zm0-13.283c-2.313 0-4.538.562-6.106 1.541-1.184.74-1.863 1.631-1.863 2.444s.68 1.703 1.863 2.443c1.568.98 3.793 1.542 6.106 1.542 2.313 0 4.538-.562 6.105-1.542 1.184-.74 1.864-1.63 1.864-2.443 0-.813-.68-1.703-1.864-2.444-1.567-.98-3.792-1.54-6.105-1.54zM36.523 65.344c0-1.468-1.189-2.657-2.656-2.657h-17.93c-5.858 0-10.624-4.767-10.624-10.626V24.933c0-2.838 1.105-5.507 3.112-7.514l9-9.001c4.142-4.143 10.883-4.143 15.018-.007l8.937 9.008c1.293 1.293 2.235 2.908 2.725 4.67.392 1.413 1.856 2.24 3.27 1.848 1.413-.392 2.241-1.857 1.848-3.27-.734-2.643-2.147-5.065-4.079-6.998l-8.937-9.008c-6.214-6.215-16.325-6.214-22.539 0l-9 9.001C1.658 16.672 0 20.675 0 24.932v27.129C0 60.85 7.15 68 15.938 68h17.93c1.466 0 2.655-1.19 2.655-2.656zM24.97 18.057c-1.834 0-3.32 1.487-3.32 3.32 0 1.835 1.486 3.321 3.32 3.321 1.833 0 3.32-1.486 3.32-3.32 0-1.834-1.487-3.32-3.32-3.32z" transform="translate(-1096 -1599) translate(189.29 1257.083) translate(906.21 341.917) translate(.5)"/>
                        <path fill="#FF1F1F" d="M54.5 68c-4.644 0-9.042-1.303-12.383-3.668-1.208-.855-1.478-2.505-.603-3.685.874-1.18 2.562-1.445 3.77-.59 4.996 3.537 13.436 3.537 18.432 0 1.208-.855 2.896-.59 3.77.59.875 1.18.605 2.83-.602 3.685C63.542 66.697 59.144 68 54.5 68zm12.383-14.224c1.208-.854 1.478-2.504.603-3.685-.874-1.18-2.562-1.444-3.77-.59-4.996 3.537-13.436 3.537-18.432 0-1.208-.854-2.896-.59-3.77.59-.875 1.18-.605 2.83.602 3.685 3.342 2.366 7.74 3.669 12.384 3.669s9.042-1.303 12.383-3.669z" transform="translate(-1096 -1599) translate(189.29 1257.083) translate(906.21 341.917) translate(.5)"/>
                    </g>
                </g>
            </g>
        </g>
    </g>
</svg>
