<?xml version="1.0" encoding="utf-8"?>
<svg width="57px" height="57px" viewBox="0 0 57 57" version="1.1" xmlns:xlink="http://www.w3.org/1999/xlink" xmlns="http://www.w3.org/2000/svg">
  <defs>
    <linearGradient x1="0.5" y1="0" x2="0.5" y2="1" id="gradient_1">
      <stop offset="0" stop-color="#F98AFA" />
      <stop offset="1" stop-color="#7483FF" />
    </linearGradient>
    <rect width="57" height="57" id="artboard_1" />
    <clipPath id="clip_1">
      <use xlink:href="#artboard_1" clip-rule="evenodd" />
    </clipPath>
  </defs>
  <g id="Custom-Preset-5" clip-path="url(#clip_1)">
    <use xlink:href="#artboard_1" stroke="none" fill="#FFFFFF" fill-opacity="0" />
    <g id="Icon" transform="translate(0 2)">
      <path d="M28.296 50.5553C25.1582 50.5555 22.0213 49.5668 19.401 47.5886C19.3981 47.5863 19.3952 47.5841 19.3922 47.5819C13.6731 43.2555 9.13577 38.6003 5.90597 33.7457C1.98715 27.8551 0 21.6722 0 15.3687C0 6.89431 6.84235 0 15.2526 0C19.1786 0 22.9757 1.41602 25.9442 3.98727C26.8331 4.75731 27.606 5.59717 28.2502 6.48277C30.9676 2.66991 35.9312 0 41.3368 0C49.7471 0 56.5895 6.89441 56.5895 15.3687C56.5895 15.3827 56.5894 15.3967 56.589 15.4106C56.2953 30.0981 45.8816 41.0124 37.1973 47.582C34.5772 49.5641 31.4363 50.5552 28.296 50.5553ZM22.1005 44.1804C22.1007 44.1805 22.1011 44.1808 22.1013 44.1809C25.7477 46.9398 30.8397 46.941 34.4845 44.1838C42.4042 38.1925 51.8985 28.3276 52.1684 15.3482C52.1577 9.25607 47.3028 4.3037 41.3368 4.3037C35.1375 4.3037 30.5053 8.84797 30.5053 12.9111C30.5053 14.0996 29.5156 15.0629 28.2947 15.0629C27.0739 15.0629 26.0842 14.0996 26.0842 12.9111C26.0842 11.0063 24.9332 8.87218 23.0054 7.20234C20.8473 5.33314 18.0939 4.3037 15.2526 4.3037C9.28012 4.3037 4.42105 9.26747 4.42105 15.3687C4.42105 28.1254 14.0341 38.0772 22.1005 44.1804Z" transform="translate(0 0.7434605)" id="Shape" fill="url(#gradient_1)" stroke="none" />
      <path d="M33.0324 4.45274C29.381 4.45274 26.0675 7.02041 25.1534 10.5581C25.1377 10.6182 24.3849 15.2127 24.3849 15.2127C24.3527 15.3019 24.2848 15.3967 24.07 15.388C23.8158 15.3785 23.7778 15.2408 23.7594 15.1398L22.0032 3.6238C22.0011 3.61024 21.9989 3.59668 21.9965 3.58311C21.6213 1.41672 19.767 -0.0554081 17.4836 0.00159942C15.2399 0.0582891 13.4885 1.57143 13.1864 3.69649C13.1864 3.69649 11.5154 11.4929 11.5108 11.5196C11.4931 11.6214 11.4665 11.8578 11.1972 11.868C10.9285 11.88 10.8887 11.6443 10.8629 11.544C10.8458 11.4779 10.4713 10.4499 10.4713 10.4499C9.53875 7.07827 5.93116 4.45285 2.20264 4.45285C0.986121 4.45285 0 5.40163 0 6.57209C0 7.74255 0.986121 8.69133 2.20264 8.69133C3.94779 8.69133 5.82752 10.0415 6.2251 11.5807C6.24217 11.6468 6.61849 12.6799 6.61849 12.6799C7.18875 14.6766 9.0882 16.0007 11.2335 16.0006C13.4854 15.9155 15.4566 14.3928 15.8479 12.2624C15.8479 12.2624 17.5536 4.25364 17.5558 4.24368C17.5819 4.23807 17.6164 4.23722 17.6426 4.24146C17.6446 4.24866 19.4086 15.8056 19.4109 15.8192C19.7842 17.9732 21.6961 19.6031 24.0089 19.6031C26.2115 19.6031 28.1476 18.2278 28.6795 16.1692C28.6951 16.109 29.4502 11.5004 29.4502 11.5004C29.9046 9.89326 31.43 8.69122 33.0323 8.69122C34.2488 8.69122 35.235 7.74244 35.235 6.57198C35.235 5.40153 34.2488 4.45274 33.0324 4.45274L33.0324 4.45274Z" transform="translate(10.677259 18.283058)" id="Path" fill="#FF6A2E" fill-rule="evenodd" stroke="none" />
    </g>
  </g>
</svg>