<?xml version="1.0" encoding="utf-8"?>
<svg width="52px" height="72px" viewBox="0 0 52 72" version="1.1" xmlns:xlink="http://www.w3.org/1999/xlink" xmlns="http://www.w3.org/2000/svg">
  <path d="M26 71.682C25.1924 71.682 24.4408 71.2739 24.0068 70.5997L4.91479 40.9416C4.32561 40.1343 3.77898 39.2858 3.28908 38.4184C1.13738 34.6074 0 30.2773 0 25.896C0 25.4296 0.0129212 24.9577 0.0382909 24.4931C0.397091 17.9186 3.2563 11.7683 8.08947 7.17506C12.9578 2.5481 19.3186 0 26 0C32.9289 0 39.4578 2.71066 44.3844 7.63277C49.2954 12.5394 52 19.0254 52 25.896C52 31.2502 50.348 36.3872 47.2223 40.7517C47.205 40.7762 47.1868 40.8002 47.1684 40.824C47.1408 40.8594 47.1208 40.8868 47.1095 40.903L27.9932 70.5997C27.5594 71.2737 26.8076 71.682 26 71.682ZM26 4.68C14.7031 4.68 5.3727 13.494 4.75863 24.7458L4.75863 24.7458C4.73783 25.1265 4.72727 25.5135 4.72727 25.896C4.72727 29.4796 5.65681 33.0201 7.41536 36.1347C7.826 36.862 8.28596 37.5735 8.78201 38.2492C8.81038 38.2879 8.83748 38.3272 8.86332 38.3674L26 64.988L43.1362 38.3676C43.171 38.3139 43.255 38.1879 43.389 38.0128C45.93 34.4506 47.2727 30.2618 47.2727 25.896C47.2727 14.1974 37.7298 4.68 26 4.68Z" id="Shape" fill="#FFDBD7" stroke="none" />
</svg>