<?xml version="1.0" encoding="utf-8"?>
<svg width="75px" height="69px" viewBox="0 0 75 69" version="1.1" xmlns:xlink="http://www.w3.org/1999/xlink" xmlns="http://www.w3.org/2000/svg">
  <g id="Icon">
    <path d="M45.7031 69L17.5781 69C7.88555 69 0 61.0641 0 51.3096L0 35.8231C0 26.0686 7.88555 18.1327 17.5781 18.1327L45.7031 18.1327C55.3957 18.1327 63.2813 26.0686 63.2813 35.8231L63.2813 51.3097C63.2813 61.0641 55.3957 69 45.7031 69ZM17.5781 24.0295C11.1164 24.0295 5.85938 29.3201 5.85938 35.8231L5.85938 51.3097C5.85938 57.8127 11.1164 63.1033 17.5781 63.1033L45.7031 63.1033C52.1648 63.1033 57.4219 57.8127 57.4219 51.3097L57.4219 35.8231C57.4219 29.3201 52.1648 24.0295 45.7031 24.0295L17.5781 24.0295ZM75 40.688L75 17.6904C75 7.93592 67.1145 0 57.4219 0L29.2969 0C23.5424 0 18.1436 2.84285 14.8551 7.60482C13.9317 8.94192 14.2601 10.7792 15.5889 11.7086C16.9173 12.6377 18.7431 12.3072 19.6666 10.9701C21.8603 7.79337 25.4604 5.89681 29.2969 5.89681L57.4219 5.89681C63.8836 5.89681 69.1406 11.1874 69.1406 17.6904L69.1406 40.688C69.1406 42.3164 70.4522 43.6364 72.0703 43.6364C73.6884 43.6364 75 42.3164 75 40.688Z" id="Shape" fill="#FFD5D6" stroke="none" />
    <path d="M20.0011 15C16.7639 15 13.5271 14.0221 10.8253 12.0654L1.17672 5.09803C-0.122827 4.15962 -0.386208 2.38446 0.588343 1.1331C1.56289 -0.118112 3.40626 -0.372009 4.70596 0.566545L14.3579 7.53631C17.6814 9.94331 22.3189 9.94331 25.6389 7.53872L35.2941 0.566545C36.5933 -0.372009 38.437 -0.118112 39.4117 1.1331C40.3863 2.38446 40.1227 4.15962 38.8233 5.09803L29.1715 12.0678C26.4728 14.0224 23.2368 15 20.0011 15Z" transform="translate(12 36)" id="Path" fill="#FF201F" stroke="none" />
  </g>
</svg>