<?xml version="1.0" encoding="utf-8"?>
<svg width="39px" height="47px" viewBox="0 0 39 47" version="1.1" xmlns:xlink="http://www.w3.org/1999/xlink" xmlns="http://www.w3.org/2000/svg">
  <path d="M3.67445 36L40.5442 36Q40.6096 36 40.6748 35.9957Q40.7401 35.9915 40.8049 35.9829Q40.8697 35.9744 40.9339 35.9617Q40.998 35.9489 41.0612 35.932Q41.1243 35.9151 41.1863 35.8941Q41.2482 35.8731 41.3086 35.8481Q41.369 35.8231 41.4277 35.7942Q41.4863 35.7653 41.543 35.7326Q41.5996 35.6999 41.654 35.6636Q41.7084 35.6273 41.7603 35.5875Q41.8122 35.5478 41.8614 35.5047Q41.9106 35.4616 41.9568 35.4154Q42.0031 35.3692 42.0462 35.32Q42.0894 35.2709 42.1292 35.2191Q42.1691 35.1672 42.2054 35.1129Q42.2418 35.0585 42.2746 35.0019Q42.3073 34.9453 42.3363 34.8867Q42.3652 34.8281 42.3903 34.7677Q42.4154 34.7073 42.4365 34.6454Q42.4576 34.5835 42.4745 34.5204Q42.4915 34.4572 42.5044 34.3931Q42.5172 34.329 42.5258 34.2642Q42.5344 34.1993 42.5387 34.1341Q42.5431 34.0689 42.5432 34.0035Q42.5433 33.9381 42.5391 33.8728Q42.5349 33.8076 42.5264 33.7427Q42.518 33.6779 42.5053 33.6137Q42.4926 33.5496 42.4758 33.4864Q42.459 33.4232 42.4381 33.3613Q42.4171 33.2993 42.3922 33.2389Q42.3673 33.1784 42.3384 33.1197Q42.3096 33.061 42.277 33.0043L24.9265 2.8382Q24.8947 2.7828 24.8593 2.72955Q24.824 2.6763 24.7854 2.62542Q24.7467 2.57454 24.7048 2.52623Q24.663 2.47792 24.6182 2.43238Q24.5733 2.38684 24.5257 2.34426Q24.478 2.30168 24.4278 2.26223Q24.3775 2.22278 24.3248 2.18662Q24.2721 2.15046 24.2172 2.11774Q24.1623 2.08502 24.1054 2.05587Q24.0486 2.02672 23.9899 2.00127Q23.9313 1.97582 23.8712 1.95416Q23.8111 1.9325 23.7497 1.91472Q23.6883 1.89695 23.6259 1.88313Q23.5635 1.86932 23.5004 1.85951Q23.4372 1.84971 23.3736 1.84396Q23.3099 1.83821 23.246 1.83654Q23.1822 1.83487 23.1183 1.83728Q23.0544 1.83969 22.9909 1.84617Q22.9273 1.85266 22.8642 1.86319Q22.8012 1.87373 22.739 1.88826Q22.6768 1.9028 22.6156 1.92128Q22.5544 1.93977 22.4945 1.96212Q22.4347 1.98447 22.3763 2.0106Q22.318 2.03673 22.2615 2.06654Q22.205 2.09634 22.1504 2.12969Q22.0959 2.16304 22.0437 2.19981Q21.9914 2.23658 21.9416 2.27661Q21.8918 2.31664 21.8446 2.35977Q21.7974 2.4029 21.7531 2.44895Q21.7088 2.49501 21.6676 2.5438Q21.6263 2.59259 21.5882 2.64391Q21.5501 2.69524 21.5154 2.74889L1.99615 32.915Q1.95974 32.9713 1.92718 33.0299Q1.89462 33.0885 1.86605 33.1491Q1.83749 33.2098 1.81305 33.2722Q1.78861 33.3346 1.76841 33.3985Q1.74821 33.4624 1.73234 33.5275Q1.71646 33.5926 1.70498 33.6587Q1.6935 33.7247 1.68647 33.7914Q1.67944 33.858 1.6769 33.925Q1.67435 33.992 1.67629 34.059Q1.67824 34.126 1.68466 34.1927Q1.69109 34.2594 1.70197 34.3255Q1.71285 34.3917 1.72814 34.4569Q1.74343 34.5222 1.76305 34.5863Q1.78268 34.6504 1.80655 34.713Q1.83042 34.7756 1.85844 34.8365Q1.88645 34.8974 1.91848 34.9563Q1.95052 35.0152 1.98642 35.0718Q2.02232 35.1284 2.06193 35.1824Q2.10155 35.2365 2.14469 35.2878Q2.18784 35.3391 2.23432 35.3874Q2.28081 35.4357 2.33042 35.4807Q2.38004 35.5258 2.43256 35.5674Q2.48508 35.6091 2.54028 35.6471Q2.59547 35.6851 2.65309 35.7194Q2.7107 35.7536 2.77048 35.7839Q2.83027 35.8142 2.89194 35.8405Q2.95362 35.8667 3.01692 35.8888Q3.08021 35.9108 3.14484 35.9286Q3.20947 35.9463 3.27515 35.9597Q3.34083 35.9731 3.40725 35.9821Q3.47367 35.991 3.54055 35.9955Q3.60743 36 3.67445 36L3.67445 36Z" transform="matrix(-4.371139E-08 1 -1 -4.371139E-08 37.5 1.5)" id="Path-7" fill="none" fill-rule="evenodd" stroke="#FFFFFF" stroke-width="3" />
</svg>