<?xml version="1.0" encoding="utf-8"?>
<svg width="23px" height="28px" viewBox="0 0 23 28" version="1.1" xmlns:xlink="http://www.w3.org/1999/xlink" xmlns="http://www.w3.org/2000/svg">
  <g id="playstore">
    <g id="Group">
      <path d="M16.7204 9.32038C13.7465 7.55477 8.97325 4.71961 1.56965 0.31929C1.0705 -0.0306268 0.4962 -0.0764828 0 0.101793L12.7025 13.5853L16.7204 9.32038Z" transform="translate(1.2481 0.0006399788)" id="Path" fill="#32BBFF" stroke="none" />
      <path d="M1.22065 0C1.12765 0.0334366 1.03715 0.0737729 0.9506 0.122495C0.40265 0.437118 0 1.04253 0 1.80823L0 25.1587C0 25.9244 0.4026 26.5298 0.9506 26.8444C1.037 26.893 1.12745 26.9335 1.22035 26.9672L13.9232 13.4835L1.22065 0Z" transform="translate(0.02745 0.102432914)" id="Path" fill="#32BBFF" stroke="none" />
      <path d="M12.7028 0L0 13.4837C0.49635 13.6633 1.07065 13.621 1.56995 13.266C8.74985 8.99828 13.4692 6.19671 16.4775 4.41608C16.5613 4.36614 16.6433 4.31731 16.7244 4.26896L12.7028 0Z" transform="translate(1.2478 13.585895)" id="Path" fill="#32BBFF" stroke="none" />
    </g>
    <path d="M0 0L0 11.294C0 12.0347 0.404822 12.6204 0.955847 12.9247C1.04272 12.9718 1.13367 13.0109 1.22709 13.0435L14 0L0 0Z" transform="translate(0 14.130432)" id="Path" fill="#2C9FD9" stroke="none" />
    <path d="M1.84074 0.327812C1.24766 -0.0978932 0.548261 -0.0857659 0 0.230522L12.787 14.1304L17 9.55079C14.0245 7.74165 9.24855 4.8366 1.84074 0.327812Z" transform="translate(1 0)" id="Path" fill="#29CC5E" stroke="none" />
    <path d="M12.7842 0L0 13.8978C0.548187 14.214 1.24738 14.2323 1.84033 13.8005C9.02268 9.4283 13.7437 6.55809 16.753 4.73383C16.8368 4.68267 16.9189 4.63264 17 4.58311L12.7842 0Z" transform="translate(1 13.043472)" id="Path" fill="#D93F21" stroke="none" />
    <path d="M10 4.34568C10 3.70839 9.68318 3.06524 9.05525 2.70858C9.05525 2.70858 7.88094 2.04353 4.28145 0L0 4.34568L4.28562 8.69565C7.8456 6.66682 9.0552 5.98273 9.0552 5.98273C9.68318 5.62613 10 4.98298 10 4.34568Z" transform="translate(13 9.782608)" id="Path" fill="#FFD500" stroke="none" />
    <path d="M9.05525 1.63629C9.68318 1.27981 10 0.636981 10 0L0 0L4.28562 4.34783C7.84565 2.32004 9.05525 1.63629 9.05525 1.63629Z" transform="translate(13 14.130432)" id="Path" fill="#FFAA00" stroke="none" />
  </g>
</svg>