<?xml version="1.0" encoding="utf-8"?>
<svg width="28px" height="27px" viewBox="0 0 28 27" version="1.1" xmlns:xlink="http://www.w3.org/1999/xlink" xmlns="http://www.w3.org/2000/svg">
  <path d="M5.41787 2.82805L14.9033 10.2389Q14.968 10.2894 15.0293 10.3441Q15.0905 10.3989 15.1481 10.4575Q15.2056 10.5161 15.2592 10.5783Q15.3127 10.6406 15.3621 10.7062Q15.4114 10.7719 15.4564 10.8406Q15.5013 10.9093 15.5417 10.9809Q15.582 11.0524 15.6175 11.1264Q15.6531 11.2005 15.6837 11.2767Q15.7143 11.3529 15.7398 11.431Q15.7654 11.509 15.7857 11.5886Q15.8061 11.6681 15.8212 11.7489Q15.8363 11.8296 15.8461 11.9111Q15.8558 11.9927 15.8602 12.0747Q15.8646 12.1567 15.8636 12.2388Q15.8626 12.3209 15.8562 12.4028Q15.8498 12.4847 15.838 12.566Q15.8263 12.6472 15.8092 12.7276Q15.7921 12.8079 15.7698 12.887Q15.7475 12.966 15.72 13.0434Q15.6926 13.1208 15.6601 13.1962Q15.6276 13.2717 15.5903 13.3448Q15.5529 13.4179 15.5109 13.4885Q15.4688 13.559 15.4222 13.6266Q15.3755 13.6942 15.3246 13.7586Q15.2736 13.823 15.2186 13.884Q15.1635 13.9449 15.1045 14.0021Q15.0456 14.0592 14.983 14.1124Q14.9204 14.1656 14.8545 14.2146Q14.7885 14.2635 14.7195 14.308Q14.6505 14.3526 14.5787 14.3925Q14.5069 14.4323 14.4327 14.4674Q14.3584 14.5025 14.2821 14.5327L3.76593 18.6824Q3.69198 18.7116 3.61631 18.736Q3.54065 18.7604 3.46358 18.78Q3.38652 18.7996 3.30836 18.8142Q3.23021 18.8288 3.15129 18.8384Q3.07236 18.8481 2.99299 18.8527Q2.91361 18.8573 2.8341 18.8568Q2.7546 18.8563 2.67528 18.8508Q2.59596 18.8453 2.51715 18.8348Q2.43835 18.8242 2.36037 18.8087Q2.28239 18.7931 2.20556 18.7727Q2.12873 18.7522 2.05335 18.7269Q1.97798 18.7016 1.90436 18.6716Q1.83075 18.6415 1.75919 18.6069Q1.68764 18.5722 1.61843 18.5331Q1.54922 18.4939 1.48264 18.4505Q1.41606 18.407 1.35238 18.3594Q1.2887 18.3118 1.22817 18.2602Q1.16765 18.2087 1.11052 18.1534Q1.05339 18.0981 0.999897 18.0392Q0.9464 17.9804 0.896751 17.9183Q0.847103 17.8562 0.801502 17.7911Q0.755901 17.726 0.714533 17.6581Q0.673165 17.5902 0.636197 17.5198Q0.599229 17.4494 0.56681 17.3768Q0.534392 17.3042 0.506654 17.2297Q0.478916 17.1551 0.455971 17.079Q0.433026 17.0029 0.414966 16.9255Q0.396907 16.848 0.383806 16.7696Q0.370705 16.6912 0.362616 16.6121Q0.354527 16.533 0.351482 16.4535Q0.348438 16.3741 0.35045 16.2946Q0.352462 16.2151 0.359523 16.1359L1.39021 4.57537Q1.39765 4.49192 1.41066 4.40914Q1.42368 4.32637 1.44221 4.24465Q1.46074 4.16293 1.4847 4.08264Q1.50866 4.00235 1.53795 3.92385Q1.56724 3.84534 1.60171 3.76897Q1.63619 3.6926 1.67571 3.61872Q1.71523 3.54483 1.75961 3.47376Q1.80398 3.40268 1.85302 3.33474Q1.90206 3.2668 1.95554 3.20229Q2.00902 3.13779 2.0667 3.07701Q2.12438 3.01623 2.18601 2.95946Q2.24763 2.90268 2.31292 2.85016Q2.3782 2.79764 2.44686 2.74961Q2.51552 2.70158 2.58724 2.65825Q2.65896 2.61493 2.73342 2.57651Q2.80789 2.53809 2.88476 2.50474Q2.96162 2.47139 3.04056 2.44327Q3.11948 2.41514 3.20012 2.39237Q3.28076 2.36959 3.36274 2.35227Q3.44472 2.33495 3.52768 2.32316Q3.61063 2.31137 3.69419 2.30516Q3.77776 2.29895 3.86154 2.29836Q3.94533 2.29776 4.02897 2.30278Q4.11261 2.3078 4.19573 2.3184Q4.27885 2.32901 4.36107 2.34517Q4.44329 2.36132 4.52424 2.38294Q4.60519 2.40456 4.68451 2.43156Q4.76384 2.45856 4.84117 2.49081Q4.91851 2.52306 4.99351 2.56042Q5.06851 2.59778 5.14084 2.64007Q5.21317 2.68237 5.28251 2.72942Q5.35184 2.77647 5.41787 2.82805Z" transform="matrix(-0.61566144 -0.7880108 0.7880108 -0.61566144 11.294922 26.874146)" id="Rectangle" fill="#FF6A2E" fill-rule="evenodd" stroke="none" />
</svg>