<?xml version="1.0" encoding="utf-8"?>
<svg width="79px" height="68px" viewBox="0 0 79 68" version="1.1" xmlns:xlink="http://www.w3.org/1999/xlink" xmlns="http://www.w3.org/2000/svg">
  <g id="Icon" opacity="0.039136">
    <path d="M25.4771 30.8175C23.5165 30.2402 21.5559 29.9472 19.6488 29.9472C16.7038 29.9472 14.2464 30.6356 12.341 31.4786C14.1779 24.5995 18.5909 12.7298 27.3817 11.3931C28.1958 11.2693 28.863 10.6671 29.0851 9.85656L31.0064 2.82714C31.1684 2.23267 31.0724 1.59635 30.7409 1.08046C30.4094 0.564574 29.8766 0.220363 29.2796 0.136659C28.6308 0.0461225 27.9695 0 27.314 0C16.7622 0 6.31231 11.2659 1.90271 27.3968C-0.685764 36.8605 -1.44477 51.0884 4.93123 60.0439C8.49916 65.055 13.7045 67.7309 20.4028 67.9983C20.4304 67.9991 20.4571 68 20.4846 68C28.7494 68 36.0781 62.3064 38.3076 54.1555C39.6394 49.2828 39.0373 44.1726 36.6109 39.7628C34.2103 35.4025 30.2566 32.2243 25.4771 30.8175Z" id="Path" fill="#000000" fill-rule="evenodd" stroke="none" />
    <path d="M36.6106 39.7631C34.2099 35.402 30.2562 32.2239 25.4766 30.8172C23.516 30.2398 21.5555 29.9468 19.6491 29.9468C16.7041 29.9468 14.2458 30.6352 12.3404 31.4782C14.1774 24.5992 18.5904 12.7297 27.3821 11.393C28.1962 11.2691 28.8626 10.667 29.0855 9.85643L31.0069 2.82711C31.1688 2.23264 31.0728 1.59633 30.7413 1.08045C30.4107 0.564567 29.8779 0.22036 29.2801 0.136658C28.6321 0.046122 27.9708 0 27.3145 0C16.7625 0 6.31247 11.2657 1.90199 27.3964C-0.685689 36.86 -1.44471 51.0878 4.93221 60.0448C8.49935 65.055 13.7056 67.7318 20.4032 67.9983C20.4307 67.9991 20.4574 68 20.4858 68C28.7498 68 36.0795 62.3065 38.309 54.1557C39.6391 49.283 39.0363 44.172 36.6106 39.7631Z" transform="translate(40 0)" id="Path" fill="#000000" fill-rule="evenodd" stroke="none" />
  </g>
</svg>