<?xml version="1.0" encoding="utf-8"?>
<svg width="15px" height="15px" viewBox="0 0 15 15" version="1.1" xmlns:xlink="http://www.w3.org/1999/xlink" xmlns="http://www.w3.org/2000/svg">
  <path d="M14.7595 10.8708L12.4438 8.55379C12.2042 8.3141 11.9646 8.2342 11.6452 8.3141C10.4474 8.71359 10.2079 9.83215 9.40937 9.35277C7.65261 8.3141 6.45482 7.11564 5.6563 5.67748C5.33689 5.0383 6.05556 4.55892 6.13541 4.39912C6.61453 3.91974 7.01379 3.12077 6.53468 2.56148L4.1391 0.244458C3.65999 -0.234927 3.10102 0.0846629 2.54205 0.404253C-0.172931 1.9223 -0.811751 5.59759 1.10471 8.1543C2.86146 10.3914 4.53837 12.0693 6.85409 13.9069C9.24966 15.7446 12.9229 15.2652 14.5199 12.4688C14.9192 11.9095 15.2386 11.3502 14.7595 10.8708L14.7595 10.8708ZM7.89217 12.6286C5.6563 10.9507 4.05925 9.27287 2.38235 7.19554C1.02486 5.51769 1.42412 2.96097 3.34058 1.84241L4.85777 3.36046C4.77792 3.44036 3.18087 4.71871 4.1391 6.47646C5.09733 8.2342 6.53468 9.67236 8.53099 10.7909C10.2877 11.8296 11.5654 10.1517 11.6452 10.1517L13.1624 11.6698C12.1243 13.5873 9.56907 13.9069 7.89217 12.6286L7.89217 12.6286Z" id="Shape" fill="#000000" stroke="none" />
</svg>