<?xml version="1.0" encoding="utf-8"?>
<svg width="356px" height="277px" viewBox="0 0 356 277" version="1.1" xmlns:xlink="http://www.w3.org/1999/xlink" xmlns="http://www.w3.org/2000/svg">
  <defs>
    <linearGradient x1="0" y1="0.4999992" x2="1.0000075" y2="0.4999992" id="gradient_1">
      <stop offset="0" stop-color="#FFFFFF" />
      <stop offset="1" stop-color="#FFE3E3" />
    </linearGradient>
    <linearGradient x1="0" y1="0.5000094" x2="0.9999971" y2="0.5000094" id="gradient_2">
      <stop offset="0" stop-color="#FFFFFF" />
      <stop offset="1" stop-color="#FFE3E3" />
    </linearGradient>
    <linearGradient x1="-0.15944551" y1="0.49999648" x2="0.99999446" y2="0.49999648" id="gradient_3">
      <stop offset="0" stop-color="#FFFFFF" />
      <stop offset="1" stop-color="#FFE3E3" />
    </linearGradient>
  </defs>
  <g id="Illsutration">
    <path d="M9 0.0602351L8.91574 0C7.2945 1.69727 5.66366 3.38677 4.06803 5.10541C2.72517 6.553 1.36312 7.98504 0 9.41708L0.881014 10C2.50083 8.03426 4.11531 6.06496 5.72446 4.0921C6.81773 2.74653 7.97819 1.4505 9 0.0602351Z" transform="translate(328 76)" id="Path" fill="#FFF0F0" stroke="none" />
    <path d="M17.2206 17.9482C18.6136 16.1769 19.9684 14.3731 21.395 12.6291C22.1436 11.7182 22.8358 10.7292 23.5615 9.78386C25.0711 7.81615 26.6086 5.87275 28.1182 3.90505C28.8267 2.98193 29.5027 2.03148 30.2312 1.12456C30.5181 0.770292 30.8498 0.44438 31.0257 0L18.5245 15.039C16.4893 17.5263 14.454 20.0135 12.4188 22.5008C10.8708 24.3865 9.2942 26.2459 7.80364 28.1862C5.15811 31.6277 2.50684 35.0691 -1.72227e-15 38.628L0.203728 38.8305C3.36406 35.3419 6.4144 31.748 9.35475 28.0488C12.0108 24.7137 14.5827 21.3066 17.2206 17.9482Z" transform="matrix(0.99026805 0.1391731 -0.1391731 0.99026805 319.2046 28.239315)" id="Path" fill="#FFF0F0" stroke="none" />
    <path d="M7.9851 7.00656C5.3228 10.2062 2.6611 13.4083 0 16.6129L0.651037 17L2.13745 15.12C4.18828 12.5208 6.23851 9.92096 8.28814 7.32053C9.22692 6.13402 10.1657 4.94658 11.0883 3.74883C11.68 2.97938 12.3661 2.29616 12.9083 1.48547C13.242 0.986879 13.6169 0.519213 14 0C13.8202 0.00562324 13.7716 0.104967 13.7131 0.175258C12.7192 1.35426 11.7277 2.53546 10.7385 3.71884C9.82311 4.81256 8.90231 5.90628 7.9851 7.00656Z" transform="translate(313 67)" id="Path" fill="#FFF0F0" stroke="none" />
    <path d="M49.8186 0.00657123C49.5599 0.0498209 49.2856 0.0389446 49.0405 0.123527C48.0882 0.455958 47.1437 0.812007 46.173 1.08736C45.7654 1.20439 45.3151 1.57922 44.9883 1.48076C44.4046 1.30745 44.142 1.75712 43.7287 1.88201C43.1655 2.05215 42.6101 2.25082 42.0401 2.39242C40.512 2.77493 39.0247 3.29226 37.5122 3.73185C36.5084 4.02688 35.5075 4.32879 34.5066 4.63464C33.7353 4.87067 32.9678 5.12638 32.1955 5.3565C31.8064 5.47452 31.8969 5.6123 32.1382 5.81408C33.6676 7.09364 35.1912 8.3791 36.7186 9.65866C37.5942 10.391 37.5942 10.391 36.8376 11.2666C34.7719 13.6496 32.7053 16.0316 30.6377 18.4126C29.6797 19.5126 28.7082 20.6008 27.7483 21.6998C25.3701 24.4219 22.9936 27.146 20.6187 29.872C18.3877 32.4301 16.1564 34.9863 13.9247 37.5405C10.5345 41.4229 7.1439 45.3044 3.75301 49.1848C2.50622 50.6095 1.24873 52.0243 1.38741e-15 53.4461L1.93416 55.2965C3.76641 53.1929 5.59898 51.0893 7.43188 48.9858C10.544 45.4175 13.6613 41.8516 16.7838 38.2879C17.0269 38.0105 17.2768 37.7399 17.5132 37.4565C17.659 37.2834 17.7874 37.2794 17.9587 37.4251C18.9316 38.2568 19.9181 39.0807 20.8968 39.9084C20.9527 39.9616 21.0053 40.0181 21.0544 40.0777C20.9816 40.1922 20.9031 40.3029 20.8191 40.4093C18.0454 43.5899 15.2698 46.7695 12.4923 49.9481C11.3447 51.2597 10.1533 52.5328 9.03101 53.865C7.75312 55.3812 6.44992 56.8757 5.14089 58.3663L6.36774 59.5395C6.41637 59.4825 6.46499 59.4264 6.51557 59.3703C9.4001 56.069 12.2853 52.7684 15.1711 49.4684C17.4916 46.8139 19.8098 44.1574 22.1257 41.4989C22.3357 41.2579 22.4768 41.19 22.7307 41.437C23.0683 41.7667 23.4477 42.0512 23.8009 42.3681C24.4654 42.9725 25.2077 43.4823 25.844 44.1182C26.0872 44.3593 26.2672 44.3771 26.3712 43.947C26.6715 42.6934 27.0176 41.4496 27.3432 40.2009C27.9031 38.0322 28.4604 35.8624 29.0151 33.6917C29.0423 33.5835 29.1658 33.4526 29.0442 33.3739C28.9684 33.3257 28.8166 33.3738 28.7067 33.4102C28.0307 33.6177 27.3576 33.8341 26.6825 34.0446C24.3189 34.7815 21.955 35.5161 19.5907 36.2485C19.2123 36.3655 18.8223 36.4452 18.3408 36.5671C18.474 36.3772 18.5353 36.2719 18.6082 36.1893C21.579 32.7876 24.5514 29.3873 27.5254 25.9883C31.4661 21.4748 35.4039 16.9591 39.3387 12.4411C39.5857 12.1567 39.7462 12.1656 40.0148 12.3959C41.2886 13.4944 42.5709 14.5823 43.8616 15.6598C44.42 16.1273 44.9474 16.6371 45.5758 17.0555C45.6866 16.6343 45.7868 16.2624 45.884 15.8885C46.3765 13.9946 46.869 12.1 47.3615 10.2048C47.866 8.25159 48.3636 6.29735 48.871 4.3441C49.2287 2.96649 49.5952 1.58889 49.9578 0.211281C49.9957 0.0912332 50.0317 -0.0297986 49.8186 0.00657123Z" transform="matrix(0.98768836 0.15643448 -0.15643448 0.98768836 305.80127 101.75264)" id="Path" fill="#FFF0F0" stroke="none" />
    <path d="M13.3041 74.1194C10.837 76.8564 8.3682 79.5927 5.89775 82.3283C3.93017 84.5089 1.96425 86.6889 0 88.8681L2.17298 90.5986L4.54965 87.9719C8.11763 84.0252 11.6856 80.0789 15.2536 76.1329C17.7912 73.3224 20.3245 70.508 22.8535 67.6897C23.092 67.4252 23.3335 67.1636 23.5759 66.902L27.2806 62.7926C27.6378 62.3915 27.986 62.002 28.3352 61.6145C28.3426 61.6076 28.3506 61.6014 28.3592 61.5959L28.6665 61.2543C28.6794 61.2314 28.6975 61.2117 28.7194 61.1967L29.1105 60.7624C29.1105 60.7409 29.1185 60.7184 29.1234 60.695C29.2042 60.3045 29.786 60.207 29.6512 59.7403C29.6402 59.7032 29.6512 59.6983 29.6821 59.7403C29.7879 59.8594 29.8588 59.8927 29.9097 59.8809L30.0095 59.7677C30.0337 59.693 30.0705 59.6227 30.1182 59.5598C30.2918 59.4114 30.4574 59.2553 30.6171 59.0942L31.6997 57.8927C31.8114 57.7648 31.9232 57.6379 32.0369 57.512C32.585 56.9081 33.1321 56.3036 33.6782 55.6984L38.8616 49.9482L38.8616 49.9482C39.4117 49.3385 39.9611 48.7288 40.5099 48.119C42.7781 45.6027 45.0467 43.0866 47.3156 40.5709C49.5446 38.0923 51.7702 35.612 53.9926 33.1302C55.3635 31.6075 56.7514 30.1043 58.1243 28.5787C61.1096 25.2684 64.0922 21.9562 67.0722 18.642C68.7824 16.7435 70.5035 14.8538 72.2047 12.9475C72.4531 12.6693 72.6198 12.6615 72.9033 12.8949C73.8385 13.6762 74.7329 14.4954 75.6981 15.2386C76.6633 15.9817 77.5397 16.8069 78.5169 17.5276C78.8034 17.7395 78.8982 17.7122 78.9849 17.3793C79.2153 16.4958 79.4766 15.6221 79.7139 14.7386C80.2185 12.8584 80.7111 10.9762 81.2187 9.09603C81.7343 7.17385 82.2598 5.2546 82.7744 3.33633C83.0456 2.32594 83.2979 1.30969 83.5721 0.299301C83.6409 0.0454837 83.5721 -0.0502057 83.3156 0.0249141C82.174 0.359539 81.0014 0.623865 79.9057 1.06979C79.1835 1.34715 78.4426 1.57533 77.6883 1.75272C76.5846 2.03464 75.5018 2.38978 74.3951 2.64143C73.5748 2.82772 72.8054 3.16145 71.9921 3.37215C71.4422 3.51458 70.8794 3.63649 70.3455 3.82871C69.7088 4.05833 69.0658 4.26744 68.4165 4.45605C67.0853 4.84628 65.757 5.23652 64.4248 5.62675C64.1324 5.7126 64.1404 5.83464 64.359 6.01041C64.8491 6.40102 65.3113 6.82971 65.8243 7.18811C66.3773 7.57873 66.7926 8.10601 67.3575 8.48882C67.6569 8.69 67.9125 9.02492 68.2229 9.22316C68.8857 9.64505 69.4546 10.1665 70.0445 10.6665C70.2312 10.8247 70.2372 10.9672 70.0536 11.1673C68.2447 13.14 66.4347 15.1117 64.6527 17.1068C63.1202 18.8228 61.5537 20.5085 60.0162 22.2196C58.5601 23.8399 57.11 25.4667 55.6659 27.1001C53.9997 28.9751 52.3394 30.858 50.5893 32.6638C49.6185 33.6642 48.7724 34.78 47.8116 35.7873C47.2788 36.3475 46.8518 37.0006 46.2581 37.4954C45.9164 37.7736 45.6143 38.0953 45.3601 38.452C44.8872 39.1519 44.2556 39.7014 43.7188 40.332C42.5767 41.6757 41.3914 42.9873 40.1628 44.2666C39.2897 45.1773 38.4935 46.1573 37.6504 47.0973C34.729 50.347 31.8046 53.5941 28.8771 56.8387L21.367 65.1755C18.6784 68.1558 15.9907 71.1371 13.3041 74.1194Z" transform="matrix(0.9848077 0.17364818 -0.17364818 0.9848077 167.97598 0.34456253)" id="Path" fill="#FFF0F0" stroke="none" />
    <path d="M0 74.8385C0 74.8385 136.194 -8.49223 167.212 0.709619C200.799 10.6737 0 121 0 121" transform="translate(0 134)" id="Path" fill="url(#gradient_1)" stroke="none" />
    <path d="M0 83C0 83 116.918 -7.27693 148.359 0.471726C192.861 11.4415 68.8569 83 68.8569 83" transform="translate(129 194)" id="Path" fill="url(#gradient_2)" stroke="none" />
    <path d="M0 165C0 165 244.59 4.57792 273.713 1.72044C297.531 -0.616516 318.548 -2.63937 304.448 10.3719C259.279 52.0657 79.9236 165 79.9236 165" transform="translate(0 112)" id="Path" fill="url(#gradient_3)" stroke="none" />
    <path d="M0.727663 3.46142C0.727663 3.46142 -0.367105 9.8642 17.7798 4.35039L28 0L26.1606 6.70606C26.1606 6.70606 11.9205 14.666 4.70112 13.9551C-2.5183 13.2441 0.727663 3.46142 0.727663 3.46142Z" transform="translate(233 77)" id="Path" fill="#FFB206" stroke="none" />
    <path d="M2.50008 2.56875C2.50008 2.56875 10.0762 4.11705 14 9.08532L10.802 10L0 4.03949L0.621011 0C0.621011 0 0.26401 1.94117 2.50008 2.56875Z" transform="translate(231 80)" id="Path" fill="#F2A100" stroke="none" />
    <path d="M2.16117 0C2.01049 0.246484 0 4.02395 0 4.02395L4.82609 6L9 1.07032L2.16117 0Z" transform="translate(200 148)" id="Path" fill="#FAC2AE" stroke="none" />
    <path d="M5.3437 1.33351C5.3437 1.33351 17.1101 -1.66688 16.9992 1.33351C16.8883 4.3339 6.30343 9.17537 5.05485 9.68645C2.37508 10.7846 0 8.64554 0 8.64554L0 0.980288L5.3437 1.33351Z" transform="translate(231 148)" id="Path" fill="#000509" stroke="none" />
    <path d="M12.5522 0C12.5522 0 7.13996 2.92501 7.13996 9.57594L7.13996 26.388C7.13996 26.388 1.98394 32.9277 0 41.0015C0 41.0015 2.8695 40.012 4.56901 44C4.56901 44 15.1675 33.2256 16.4908 29.1312C17.8141 25.0367 18.4747 14.5409 18.4747 14.5409C18.4747 14.5409 28.698 20.538 30.6225 23.1912C30.6225 23.1912 31.2841 23.8828 29.4797 26.3919C27.6753 28.901 28.0929 41.3497 28.0929 41.3497C28.0929 41.3497 29.8004 44.3482 34.4784 40.3118C34.4784 40.3118 40.059 25.9518 39.9995 21.4501C39.94 16.9485 30.6779 3.2268 30.6779 3.2268L12.5522 0Z" transform="translate(201 107)" id="Path" fill="#062051" stroke="none" />
    <path d="M3.2158 0.101266C3.2158 0.101266 6.81316 -0.974537 8.19691 3.88677C9.58066 8.74807 15.1914 5.46061 15.7254 6.71036C16.2593 7.96011 16.1707 9.67374 14.0318 10.6926C11.8929 11.7114 5.83487 10.091 3.65215 7.40513C1.46943 4.71924 0 5.49581 0 5.49581C0 5.49581 1.35586 0.610693 3.2158 0.101266Z" transform="translate(199 149)" id="Path" fill="#000509" stroke="none" />
    <path d="M0.122545 1.90482C0.226691 1.48891 0.616197 0.719822 0.955713 0.474462C1.66391 -0.0338643 2.94907 -0.558694 3.88013 1.34038C5.23403 4.09106 9.7748 8.00363 14 7.87049C14 7.87049 9.14263 10.5904 4.29984 7.58882C0.0288138 4.94597 -0.259671 3.37478 0.122545 1.90482Z" transform="translate(197 153)" id="Path" fill="#263138" stroke="none" />
    <path d="M33 67C51.2254 67 66 52.0015 66 33.5C66 14.9985 51.2254 0 33 0C14.7746 0 0 14.9985 0 33.5C0 52.0015 14.7746 67 33 67Z" transform="translate(251 64)" id="Oval" fill="#FF473D" stroke="none" />
    <path d="M0 18.2294L39.7673 0L41 37.5215L0 60L0 18.2294L0 18.2294Z" transform="translate(133 104)" id="Path" fill="#34ABC6" stroke="none" />
    <path d="M0 16.3218L38.3261 0L71 16.3218L31.0851 35L0 16.3218L0 16.3218Z" transform="translate(101 89)" id="Path" fill="#51BACD" stroke="none" />
    <path d="M31 60L0 40.885L0 0L31 18.2294L31 60L31 60Z" transform="translate(102 104)" id="Path" fill="#1988A4" stroke="none" />
    <path d="M13.646 0C13.646 0 9.82893 0.884016 10.3315 2.59552C10.8341 4.30702 11.0684 7.6306 11.0684 7.6306C8.07694 11.0419 0 16.4552 0 16.4552L1.19658 20C1.19658 20 5.86027 16.7534 8.07694 14.9786C10.2936 13.2037 13.0378 8.22515 13.0378 8.22515L13.0378 8.22515C13.8933 7.15302 13.9472 5.76316 14.003 4.60721C14.0758 3.0848 15.3811 3.01267 15.9295 1.53606C16.4779 0.0594542 13.646 0 13.646 0Z" transform="translate(113 115)" id="Path" fill="#FFE7E5" stroke="none" />
    <path d="M6.29201 0.186323C6.29201 0.186323 12.575 -1.83014 12.282 7.40422C12.282 7.40422 13.2403 10.0343 13.7199 10.2098C13.7199 10.2098 14.9926 11.2421 12.1123 11.3303C12.1123 11.3303 12.4017 13.2487 10.4154 15.0319C9.42678 15.9141 7.40392 15.5857 5.01131 15.7916L5.01131 20L0.218947 18.7727C0.218947 18.7727 1.8167 14.7397 0.218947 9.74222C-1.3788 4.74468 6.29201 0.186323 6.29201 0.186323Z" transform="translate(101 96)" id="Path" fill="#FFE7E5" stroke="none" />
    <path d="M5 0C5 0 4.08037 3.57394 0.973044 0.489862L0 4L4.99753 3.53068L5 0Z" transform="translate(99 112)" id="Path" fill="#FCC1C0" stroke="none" />
    <path d="M13 1.51693C13 1.51693 12.0695 1.24783 12.0379 2.10896C12.0064 2.97008 12.8023 3.73054 7.73425 7.40627L6.0088 7.55378C6.0088 7.55378 4.36536 6.15046 3.56204 7.93251C3.56204 7.93251 3.08046 9.52121 3.69978 10.0724C4.31909 10.6235 4.33066 11.7129 1.94488 12.9278C-0.440899 14.1428 0.0396215 13.9943 0.0396215 13.9943L0.103761 13.1461L0.596899 4.24881L10.1253 0L12.754 0.902985L13 1.51693Z" transform="translate(101 98)" id="Path" fill="#FCC1C0" stroke="none" />
    <path d="M0.933209 8.63972C0.933209 8.63972 2.06658 4.33672 2.1632 1.96339C2.25982 -0.409948 7.47072 0.0326647 7.47072 0.0326647C7.47072 0.0326647 11.0304 1.2671 9.70381 2.9123C8.3772 4.5575 6.94854 2.87621 6.20382 4.77509C5.4591 6.67397 4.29967 10.3168 1.41956 10.9175C-1.46055 11.5183 0.933209 8.63972 0.933209 8.63972Z" transform="translate(108 110)" id="Path" fill="#FFE7E5" stroke="none" />
    <path d="M0 2C0 2 2.7113 0.655284 3.83336 0.292855C3.83336 0.292855 4.48616 -0.0688975 3.20767 0.0117177C2.42008 0.0630726 1.64047 0.157112 0.877001 0.292855L0 2Z" transform="translate(112 117)" id="Path" fill="#FFE7E5" stroke="none" />
    <path d="M4 2.49044C4 2.49044 1.41459 1.40315 0 0C0 0 2.17404 5.18943 3.36595 9L4 2.49044Z" transform="translate(217 120)" id="Path" fill="#051633" stroke="none" />
    <path d="M0.582621 7.08725C0.582621 7.08725 4.07716 6.53284 5.18911 4.26656C6.30107 2.00029 7.51841 -1.561 8.57826 0.74975C9.63811 3.0605 8.36629 5.23679 8.36629 5.23679C8.36629 5.23679 8.20761 7.04071 7.14776 7.91887C6.08791 8.79704 4.5532 8.47432 4.5532 8.47432L0 10L0.582621 7.08725Z" transform="translate(262 87)" id="Path" fill="#FFE7E5" stroke="none" />
    <path d="M10.5708 0C10.5708 0 12.6649 1.97948 12.6649 4.69309C12.6649 4.69309 13.0047 5.99441 13.9104 6.38993C13.9104 6.38993 14.5331 7.18191 12.4959 7.7472C12.4959 7.7472 13.038 9.27426 12.2852 10.0653C11.5324 10.8563 5.81684 12.0448 5.81684 12.0448L4.74131 19C4.74131 19 -0.881252 17.8372 0.119284 14.6597C1.11982 11.4823 2.02638 11.2082 2.02638 11.2082C2.02638 11.2082 0.9499 3.16888 3.26993 1.58491C5.58996 0.000948482 10.5708 0 10.5708 0Z" transform="translate(230 68)" id="Path" fill="#FAC2AE" stroke="none" />
    <path d="M6 0.0687024C6 0.0687024 5.54003 -0.280407 5.47631 0.595309C5.37855 1.87015 4.70387 4.24037 2.33417 4.23448C1.19951 4.23448 1.09652 2.53404 1.09652 2.53404C1.09652 2.53404 -0.81408 2.93415 0.408736 4.33647C1.63155 5.73879 5.44314 4.48259 5.44314 4.48259L5.49551 4.00109L6 0.0687024Z" transform="translate(227 81)" id="Path" fill="#F1A080" stroke="none" />
    <path d="M4.15356 2.20572C4.15356 2.20572 8.70567 -1.54808 12.7897 0.738352C16.8738 3.02478 19 2.7643 19 2.7643C19 2.7643 17.7243 5.26587 12.8744 5.26587C12.8744 5.26587 14.1929 7.50986 12.3635 8.97626C10.5341 10.4427 9.21558 12.6857 9.21558 12.6857C9.21558 12.6857 7.51461 9.70946 6.91908 10.6597C6.32355 11.61 5.68235 12.6857 7.04656 13.5925C8.41076 14.4994 3.15467 17 3.15467 17C3.15467 17 1.68677 12.6442 0.410086 10.6597C-0.866597 8.67526 0.96376 2.29158 4.15356 2.20572Z" transform="translate(98 94)" id="Path" fill="#102552" stroke="none" />
    <path d="M0 7.83504L3.24232 0L6 0.423836L2.9996 9L0 7.83504L0 7.83504Z" transform="translate(65 180)" id="Path" fill="#FAC2AE" stroke="none" />
    <path d="M4.08721 0.800029C4.08721 0.800029 13.0845 -1.00004 12.9994 0.800029C12.9143 2.6001 4.82062 5.50559 3.86566 5.8121C1.81605 6.47046 0 5.18729 0 5.18729L0 0.58783L4.08721 0.800029Z" transform="translate(103 178)" id="Path" fill="#000509" stroke="none" />
    <path d="M19.8058 0C19.8058 0 14.8114 18.8552 13.1912 21.4924C11.5709 24.1295 2.3961 39.0305 0 45.7546C0 45.7546 1.06572 47.0412 5.60835 46.999C5.60835 46.999 16.8552 35.7692 22.7756 28.4809C26.4055 24.0126 29.5261 11.9994 29.5261 11.9994C29.5261 11.9994 37.6252 15.6912 46.4005 18.7235L39.8361 39.0197C39.8361 39.0197 39.7013 40.5609 43.6049 39.2497C43.6049 39.2497 57.4673 23.9231 57.9956 17.8084C58.3901 13.287 32.2221 4.46977e-14 32.2221 4.46977e-14L19.8058 0Z" transform="translate(63 139)" id="Path" fill="#062051" stroke="none" />
    <path d="M21 2.64339C21 2.64339 9.92357 9.41536 0 0L19.899 2.02958L21 2.64339Z" transform="translate(85 142)" id="Path" fill="#051633" stroke="none" />
    <path d="M4.19705 0.790315C4.33149 0.79688 4.46646 0.788614 4.59788 0.765767C5.96579 0.520284 14.0831 -0.847872 13.9994 0.800953C13.9071 2.60116 5.19806 5.50604 4.16524 5.81289C2.78672 6.22203 1.51425 5.87835 0.742278 5.56086C0.285074 5.37254 -0.000339176 5.00504 3.02503e-07 4.60512L3.02503e-07 1.74115C-0.00017605 1.44172 0.160129 1.15556 0.44291 0.950524C0.725692 0.745484 1.10577 0.639816 1.49304 0.658573L4.19705 0.790315Z" transform="translate(61 187)" id="Path" fill="#000509" stroke="none" />
    <path d="M17.5911 0.432698C17.5911 0.432698 17.9739 2.56553 22.5141 2.4412C22.5141 2.4412 23.0526 2.09879 23.5921 3.126C24.1316 4.1532 28.1493 4.05373 28.7783 5.07998C29.4072 6.10622 30.4652 19.2485 30.4652 19.2485L41.158 10.3537C41.158 10.3537 44.2123 12.192 43.9883 14.2024C43.9883 14.2024 32.7116 29.5129 26.3329 27.5025C26.3329 27.5025 24.7605 26.6044 23.9518 24.9794L22.9993 29.707C22.9993 29.707 14.0084 32.0933 8.25753 30.3823C2.5067 28.6712 0 26.0649 0 26.0649C0 26.0649 11.369 -3.92478 17.5911 0.432698Z" transform="translate(83 113)" id="Path" fill="#FF473D" stroke="none" />
    <path d="M1.02192 0C1.02192 0 17.3057 44.6339 50.0961 28.8138C50.0961 28.8138 60.8516 23.0399 64 16.9711C64 16.9711 59.6274 43.181 30.5965 42.9991C30.5965 42.9991 -6.56655 39.6347 1.02192 0Z" transform="translate(250 88)" id="Path" fill="#D82723" stroke="none" />
    <path d="M4 1.17018L0.862105 0L0 13C0 13 3.81158 3.63343 4 1.17018Z" transform="translate(90 149)" id="Path" fill="#051633" stroke="none" />
    <path d="M4.29872 0.0444204C4.29872 0.0444204 4.90541 0.797881 5.83381 0.0444204C6.7622 -0.70904 3.6617 8.26697 0 16C-1.81507e-14 15.9972 4.11991 1.34168 4.29872 0.0444204Z" transform="translate(105 158)" id="Path" fill="#051633" stroke="none" />
    <path d="M3.82559 13.4082C3.82559 13.4082 2.88519 6.42326 3.19807 0.97681C3.19807 0.97681 2.41455 -2.27397 1.39527 3.08505C0.375986 8.44407 0 19 0 19L2.99474 18.2671L4 13.7834" transform="translate(102 126)" id="Path" fill="#D82723" stroke="none" />
    <path d="M1 7.23771C1 7.23771 0.517114 7.49322 0.100383 8.87236C-0.316347 10.2515 0.699162 0 0.699162 0L1 7.23771Z" transform="translate(112 125)" id="Path" fill="#D82723" stroke="none" />
    <path d="M17.6667 0.149077C17.6667 0.149077 13.8722 -1.56398 10.6714 6.62389C7.47057 14.8118 0 28.8214 0 28.8214C0 28.8214 4.09077 38.1007 20.8088 33.9158C20.8088 33.9158 22.6106 33.7337 23.8436 31.1865C25.0766 28.6393 26.938 17.3172 26.938 17.3172C26.938 17.3172 38.0598 23.907 41.7956 22.9966C45.5314 22.0861 53 18.9937 53 18.9937L51.9331 13.1719L38.4944 15.5055C38.4944 15.5055 27.2115 4.43883 22.9427 4.80199C18.6739 5.16515 12.509 8.51903 17.6667 0.149077Z" transform="translate(210 81)" id="Path" fill="#FEC435" stroke="none" />
    <path d="M0.216744 9.1594C-0.12832 7.92411 -0.197139 6.53863 1.05323 6.21385C1.05323 6.21385 0.30204 3.80803 3.01796 2.6882C5.73388 1.56836 11.9169 4.03144 14.0551 0.84183C16.1934 -2.34778 17.6415 4.36748 12.4374 6.99764C7.23335 9.6278 10.1257 11.8102 10.1257 11.8102C10.1257 11.8102 8.76287 10.1319 7.99908 11.4188C7.23529 12.7057 7.64045 15.3265 6.48507 15.8962C5.44309 16.4097 3.97464 14.9923 1.78601 12.2007C1.06541 11.2944 0.532541 10.2616 0.216744 9.1594Z" transform="translate(223 61)" id="Path" fill="#102552" stroke="none" />
    <path d="M0.0614178 1.48866C0.0614178 1.48866 0.405885 0.660536 0.0614178 0.278161C-0.28305 -0.104213 0.93084 -0.326375 0.996873 1.23374C1.0629 2.79386 0.0614178 1.48866 0.0614178 1.48866Z" transform="translate(266 90)" id="Path" fill="#FFE7E5" stroke="none" />
    <path d="M0 8.45533C0 8.45533 6.7627 7.45475 9.12994 5.79139C11.4972 4.12803 14 0 14 0L13.662 6.33803C13.662 6.33803 14.4459 11.0777 0.562445 13L0 8.45533Z" transform="translate(217 172)" id="Path" fill="#F1A080" stroke="none" />
    <path d="M2.10157 0C2.10157 0 4.85647 0 4.99716 3.77984C5.13785 7.55968 0 9 0 9L2.10157 0Z" transform="translate(205 163)" id="Path" fill="#037089" stroke="none" />
    <path d="M0 2.10894L9.27771 0C9.27771 0 11.6101 1.8837 10.8464 7.01847C10.0826 12.1532 0.344127 13 0.344127 13L0 2.10894Z" transform="translate(208 178)" id="Path" fill="#041B3F" stroke="none" />
    <path d="M0 9.75265L2.60503 0.452939L6 0L3.81125 10L0 9.75265L0 9.75265Z" transform="translate(174 244)" id="Path" fill="#E07D5A" stroke="none" />
    <path d="M0 7.76076L1.32666 0.814388L5 0L3.13066 9L0 7.76076L0 7.76076Z" transform="translate(215 236)" id="Path" fill="#E07D5A" stroke="none" />
    <path d="M0 19.4452L42.6782 0L44 40.0239L0 64L0 19.4452L0 19.4452Z" transform="translate(263 167)" id="Path" fill="#3DBCD1" stroke="none" />
    <path d="M0 17.2541L41.0249 0L76 17.2541L33.2735 37L0 17.2541L0 17.2541Z" transform="translate(229 148)" id="Path" fill="#63CDDB" stroke="none" />
    <path d="M35 64L0 43.6102L0 0L35 19.4452L35 64L35 64Z" transform="translate(228 167)" id="Path" fill="#1988A4" stroke="none" />
    <path d="M20.9398 0C20.9398 0 15.9634 19.3322 14.3493 22.0356C12.7352 24.739 2.39205 40.6414 0 47.5357C0 47.5357 2.19977 50.1776 6.62397 48.3641C6.62397 48.3641 17.9995 36.6705 23.8988 29.2004C27.5164 24.6191 30.6243 12.3021 30.6243 12.3021C30.6243 12.3021 38.6947 16.0877 47.4376 19.1964L40.8975 38.7991C40.8975 38.7991 41.8302 41.2052 45.72 39.8615C45.72 39.8615 58.4641 24.5279 58.9956 18.2579C59.39 13.6191 33.3151 0 33.3151 0L20.9398 0Z" transform="translate(173 201)" id="Path" fill="#1988A4" stroke="none" />
    <path d="M0.734775 0.897075L0 3.2921C0 3.2921 5.31851 8.03136 23 1.72052L19.5758 0L0.734775 0.897075Z" transform="translate(192 205)" id="Path" fill="#0B6277" stroke="none" />
    <path d="M4.0898 0.800191C4.0898 0.800191 13.0884 -1.00024 12.9993 0.800191C12.9102 2.60062 4.81867 5.50592 3.86438 5.81179C1.81411 6.47079 0 5.18757 0 5.18757L0 0.587956L4.0898 0.800191Z" transform="translate(212 243)" id="Path" fill="#000509" stroke="none" />
    <path d="M5.39187 1.14787C5.39187 1.14787 14.0836 -1.43484 13.9994 1.14787C13.9152 3.73058 6.10105 7.90078 5.18042 8.33951C1.12646 10.2664 0 7.36392 0 7.36392L1.4455 0.844226L5.39187 1.14787Z" transform="translate(172 249)" id="Path" fill="#000509" stroke="none" />
    <path d="M4.34396 0C4.34396 0 7.87159 0.16837 10.6234 2.56253C10.6234 2.56253 12.0657 3.78102 13.7702 4.11971C13.7702 4.11971 14.6888 4.32993 12.8526 5.96886C12.8526 5.96886 13.6234 7.83455 13.7267 8.95183C14.0001 11.892 13.1544 11.637 7.56268 14.7066L5.5087 18.9499L0 20C0 20 3.01616 16.765 2.44797 12.3961C1.87978 8.02725 2.99894 0.0836983 4.34396 0Z" transform="translate(203 163)" id="Path" fill="#F1A080" stroke="none" />
    <path d="M6 0.000453097C6 0.000453097 5.65513 -0.0471504 4.98054 0.833515C4.30596 1.71418 4.96361 3.18649 0.482103 2.99353L0 4C0 4 4.14644 3.80109 4.67043 2.72491L6 0.000453097Z" transform="translate(203 180)" id="Path" fill="#E07D5A" stroke="none" />
    <path d="M4.95009 0.961492C4.95009 0.961492 3.86686 1.9613 4.75509 4.00013C5.64332 6.03895 3.82981 8.46184 3.82981 8.46184C3.82981 8.46184 2.56231 7.76946 1.89346 8.07689C1.2246 8.38432 1.1778 9.38502 1.51516 9.69244C1.85251 9.99987 2.94548 10.923 0 14L0.336376 6.11559L2.75341 0L4.95009 0.961492Z" transform="translate(204 164)" id="Path" fill="#E07D5A" stroke="none" />
    <path d="M11 1.02567C11 1.02567 8.93687 1.26799 9.63861 4.94211C10.3403 8.61622 9.804 10.1927 9.804 10.1927C9.804 10.1927 8.23514 8.57692 7.4923 9.26366C6.74946 9.95039 6.83264 11.4445 7.4923 11.8833C8.15197 12.3221 6.04869 16 6.04869 16C6.04869 16 -1.25543 14.2635 0.189143 8.77153C0.189143 8.77153 -0.403599 3.36 1.8144 1.98654C4.03241 0.61307 9.14338 -1.15522 11 1.02567Z" transform="translate(199 162)" id="Path" fill="#1988A4" stroke="none" />
    <path d="M2 0.775131C2 0.775131 0.784558 -0.707236 0.519925 0.427956C0.255293 1.56315 0 11 0 11C0 11 1.66189 3.71543 2 0.775131Z" transform="translate(201 210)" id="Path" fill="#0B6277" stroke="none" />
    <path d="M20.8363 0.0267521C20.8363 0.0267521 16.3731 -0.340475 16.2907 1.64622C16.2082 3.63292 15.236 7.24644 15.236 7.24644C10.7412 9.84549 0 12.8228 0 12.8228L0 17C0 17 6.24839 15.1519 9.30019 14.0282C12.352 12.9045 17.1574 8.55561 17.1574 8.55561L17.1574 8.55561C18.4805 7.70548 19.0472 6.25309 19.5304 5.044C20.168 3.45115 21.61 3.82296 22.7462 2.44219C23.8823 1.06142 20.8363 0.0267521 20.8363 0.0267521Z" transform="translate(222 171)" id="Path" fill="#F1A080" stroke="none" />
    <path d="M1.07349 0C1.07349 0 2.41298 0.85026 6 0.145833L0 2L1.07349 0Z" transform="translate(225 186)" id="Path" fill="#E07D5A" stroke="none" />
    <path d="M12.5549 0.710062C12.5549 0.710062 12.9322 1.91003 18.7273 0C18.7273 0 19.9676 2.0925 21.9965 2.72422C24.0253 3.35594 32.9914 0.97584 32.9914 0.97584C32.9914 0.97584 36.3247 5.88479 34.4033 8.94024L24.6878 12.312L24.3034 22.9521C24.3034 22.9521 6.40631 30.1152 0.476801 22.479C0.476801 22.479 -0.730392 21.5309 0.696949 18.2147C2.12429 14.8984 12.28 -2.67463 12.5549 0.710062Z" transform="translate(190 181)" id="Path" fill="#062051" stroke="none" />
    <path d="M6 0.0290751C6 0.0290751 4.16061 -0.540901 3.67878 3.3664C2.82817 10.2721 0 15.9894 0 15.9894C0 15.9894 3.60072 16.6205 4.5249 8.14857L6 0.0290751Z" transform="translate(231 97)" id="Path" fill="#F8753F" stroke="none" />
  </g>
</svg>