<svg xmlns="http://www.w3.org/2000/svg" xmlns:xlink="http://www.w3.org/1999/xlink" width="356" height="277" viewBox="0 0 356 277">
  <defs>
    <clipPath id="clip-Custom_Size_1">
      <rect width="356" height="277"/>
    </clipPath>
  </defs>
  <g id="Custom_Size_1" data-name="Custom Size – 1" clip-path="url(#clip-Custom_Size_1)">
    <g id="Group-38" transform="translate(7)">
      <g id="Group-58">
        <g id="Group-3" transform="translate(0 14.309)">
          <path id="Clip-2" d="M0,0H314.968V264.769H0Z" transform="translate(0 0.644)" fill="none" fill-rule="evenodd"/>
        </g>
        <path id="Fill-4" d="M120.164,104.711c-3.361,18.472,4.716,30-5.745,34.956-3.2,1.546-8.022,2.428-14.093,2.924-4.225.333-9.051.495-14.306.495-12.033,0-26.183-.77-40.33-1.487L56.476,81.716c-.052-.935-.16-1.874-.215-2.756l-.052-.056C44.443,68.372,33.17,58.063,24.391,48.69,13.767,37.328,6.882,27.406,0,17.425L.217,17.2,20.76,0c8.779,8.656,16.583,18.747,27.155,23.435,8.779,3.915,18.753,5.128,28.944,5.9a53.1,53.1,0,0,1,10.516-.991c16.041,0,34.634,6.01,41.3,16.873a18.8,18.8,0,0,1,1.841,3.971c5.418,15.66-7.317,38.543-10.353,55.526" transform="translate(93.988 130.078)" fill="#85c3cc" fill-rule="evenodd"/>
        <path id="Fill-6" d="M37.1,57.222c-3.223,19.036,4.521,30.912-5.508,36.024-3.064,1.593-7.691,2.5-13.511,3.013-29.932-37.5-16.886-64.266-2.338-46.6,15.276,18.526,13.875-9.143,4.936-26.2-6.725-12.828,5.585-6.407,13.566,1.215C40.82,30.958,42.351,6.078,47.028,0c5.194,16.139-7.015,39.721-9.926,57.222" transform="translate(176.227 179.508)" fill="#64aeb9" fill-rule="evenodd"/>
        <path id="Fill-8" d="M55.9,62.438C44.2,51.779,32.988,41.347,24.255,31.859,13.691,20.365,6.844,10.321,0,.224L.216,0c5.82.836,14.553,10.1,20.806,17.466,7.005,8.312,1.076,12,16.113,13C50.56,31.358,61.609,49.94,55.9,62.438" transform="translate(92.682 148.289)" fill="#64aeb9" fill-rule="evenodd"/>
        <path id="Fill-10" d="M3.784,0C18.425,7.935,33.067,15.87,45.663,30.57S68.811,66.739,61.632,79.248s-32.093,16.059-57,19.612L0,81.686c14.817-7.233,29.634-14.465,29.009-21.423S12.315,46.62,5.539,36.622,1.271,13.311,3.784,0" transform="translate(199.724 162.598)" fill="#85c3cc" fill-rule="evenodd"/>
        <path id="Fill-22" d="M65.269,42.736,29.457,0C17.736.134,6.014.268,1.873,2.707s-.707,7.175,3.434,9.382a17.967,17.967,0,0,0,8.611,1.781c1.718,0,3.467-.12,5.215-.24L45.268,58.535Z" transform="translate(46.994 89.754)" fill="#fff" fill-rule="evenodd"/>
        <path id="Fill-24" d="M12.994.374a3.694,3.694,0,0,0-1.713,2.095L.212,35.525A3.647,3.647,0,0,0,2.118,40.14l47.653,18.2a3.3,3.3,0,0,0,4.215-2.274L65.058,23.011A3.651,3.651,0,0,0,63.152,18.4L39.321,9.3,15.5.192A3,3,0,0,0,12.994.374Z" transform="translate(18.275 44.227)" fill="#ffb840" fill-rule="evenodd"/>
        <path id="Path" d="M14.992,19.615C15,15.081,10.963,14.261,7.72,13.6c-3.411-.693-5.5-1.249-5.5-3.842,0-2.11,2.373-3.829,5.284-3.833a5.826,5.826,0,0,1,4.626,1.994,1.112,1.112,0,0,0,1.772-1.343,7.689,7.689,0,0,0-5.284-2.8l0-2.669a1.111,1.111,0,0,0-2.223,0l0,2.668C2.786,4.217,0,6.735,0,9.763c-.006,4.534,4.03,5.354,7.272,6.012,3.411.693,5.5,1.249,5.5,3.842,0,2.11-2.373,3.83-5.284,3.833a5.826,5.826,0,0,1-4.626-1.994A1.112,1.112,0,0,0,1.087,22.8a7.689,7.689,0,0,0,5.284,2.8l0,2.669a1.111,1.111,0,0,0,2.223,0l0-2.669c3.612-.438,6.394-2.956,6.4-5.985Z" transform="matrix(0.927, 0.375, -0.375, 0.927, 48.81, 57.115)"/>
        <path id="Fill-28" d="M24.857,50.731,2.55,42.072A4.452,4.452,0,0,1,.242,36.508L11.3,2.975A4.39,4.39,0,0,1,13.331.458,3.609,3.609,0,0,1,16.379.239L63.964,18.7l-.473,1.314L15.906,1.55a2.259,2.259,0,0,0-1.955.148,3.086,3.086,0,0,0-1.387,1.732L1.509,36.961a3.026,3.026,0,0,0,1.512,3.8l22.307,8.658Z" transform="translate(15.665 44.227)" fill-rule="evenodd"/>
        <path id="Fill-36" d="M11.748,14c0-4.825-.006-9.651-2.4-12.058A7.626,7.626,0,0,0,4.038,0,5.222,5.222,0,0,0,.611.994C-.936,2.442.759,5.33,2.326,8.638s3,7.039,4.551,8a1.686,1.686,0,0,0,.906.271c1.28,0,2.624-1.456,3.965-2.91" transform="translate(71.796 78.047)" fill="#fff" fill-rule="evenodd"/>
        <path id="Fill-38" d="M9.462,19.1c.752-.949,1.509-1.9,1.876-5.081s.336-8.6.309-14.019L26.033,6.005c-1.873,2.969-3.744,5.935-4.162,8.7s.613,5.34,1.643,7.91c2.138,5.944,4.28,11.89.593,17.552C21.037,44.9,13.914,49.43,8.551,49.43a7.192,7.192,0,0,1-2.945-.573C.293,46.492-.823,36.372.517,30.122S5.661,21.485,9.462,19.1" transform="translate(178.837 140.485)" fill="#fff" fill-rule="evenodd"/>
        <path id="Fill-40" d="M3.674.919C.852,12.1-1.97,23.29,1.868,27.67A7.816,7.816,0,0,0,7.9,29.918a18.3,18.3,0,0,0,13.126-6.034C25.848,18.138,24.992,9.069,24.142,0Z" transform="translate(186.67 126.176)" fill="#fff" fill-rule="evenodd"/>
        <path id="Fill-44" d="M45.84,53.332,19.651,8.777c-6.418.57-10.5.171-13.912-1.655C2.964,5.665-.011,2.813,0,0L1.341.006C1.33,1.857,3.49,4.39,6.352,5.9,9.6,7.63,13.58,7.966,19.943,7.368l.42-.042.221.372,26.41,44.924Z" transform="translate(46.994 94.957)" fill-rule="evenodd"/>
        <path id="Fill-46" d="M45.922,53.332,11.2,15.137v-.253c0-4.673,0-9.5-2.15-11.8A6.332,6.332,0,0,0,4.534,1.355a4.061,4.061,0,0,0-2.717.755c-.985,1.019.023,3.3,1.19,5.937L3.54,9.255a9.75,9.75,0,0,1,.588,1.4l-1.351.418a9.431,9.431,0,0,0-.519-1.261l-.55-1.242C.345,5.5-.831,2.85.777,1.19A5.289,5.289,0,0,1,4.534,0,7.618,7.618,0,0,1,10.11,2.181c2.464,2.638,2.5,7.6,2.5,12.449l34.38,37.813Z" transform="translate(70.491 78.047)" fill-rule="evenodd"/>
        <path id="Fill-48" d="M21.058,19.316c-2.486,2.2-4.975,4.411-8.621,4.411-.233,0-.472-.012-.713-.029C7.681,23.39,2.246,20.425.584,15.377S1.036,3.2,4.044.9A4.288,4.288,0,0,1,6.721,0c2.486,0,5.305,1.83,8.13,3.659C17.384,2.68,19.918,1.7,22.132,1.7a5.6,5.6,0,0,1,2.292.447c2.647,1.164,4.476,4.835,6.3,8.506,2.056.72,4.109,1.444,5.1,3.1a6.7,6.7,0,0,1,.061,5.936c-.863,1.691-2.511,2.484-4.154,3.276,1.726,1.642,3.454,3.288,2.966,5.765-.433,2.213-2.639,5.094-5.086,5.094a3.085,3.085,0,0,1-.877-.127c-2.777-.821-5.63-5.777-6.923-8.863s-1.024-4.3-.757-5.515" transform="translate(178.837 115.77)" fill-rule="evenodd"/>
        <path id="Fill-50" d="M24.226,37.244c2.106,5.738,4.325,11.7.721,17.216-3.216,4.895-10.422,9.17-15.468,9.17A6.982,6.982,0,0,1,6.7,63.07C1.717,60.876.552,50.972,1.881,44.84c1.332-6.189,5.212-8.55,8.873-10.8l.222-.169a7.111,7.111,0,0,0,1.605-3.152,7.261,7.261,0,0,0,1.112.057,11.015,11.015,0,0,0,5.043-.957l-.667-1.237a11.7,11.7,0,0,1-5.821.731,5.647,5.647,0,0,1-2.715-1.574c-3.551-4.052-.887-14.853,1.83-25.432l19.292-.843c.833,8.5,1.554,17.1-3.05,22.506a13.681,13.681,0,0,1-4.6,3.543l-.276.169-.222,1.18c-.445,2.983.665,5.684,1.718,8.384Zm-.276-8.664a15.04,15.04,0,0,0,4.711-3.715c5.1-5.961,4.159-15.245,3.272-24.191L31.879,0,10.255.957l-.113.506C7.316,12.544,4.379,24.026,8.538,28.638a5.543,5.543,0,0,0,2.717,1.8,6.63,6.63,0,0,1-1.278,2.417C6.209,35.161,1.993,37.807.552,44.5c-1.442,6.527-.22,17.271,5.6,19.805a6.927,6.927,0,0,0,3.326.731c5.545,0,13.142-4.5,16.578-9.79,4.049-6.132,1.608-12.659-.555-18.568-1.053-2.589-2-5.006-1.664-7.6Z" transform="translate(178.837 126.176)" fill-rule="evenodd"/>
        <path id="Fill-54" d="M91.462,1.8c-3.2-.264-6.52-.4-9.868-.4l-.982,0L80.6,0l.993,0c3.381,0,6.74.137,9.976.4ZM58.984,3.376,58.761,2c3.6-.629,7.264-1.115,10.88-1.445l.119,1.394c-3.58.327-7.206.811-10.775,1.43ZM112.74,5.887a83.753,83.753,0,0,0-10.525-2.656l.246-1.376a85.514,85.514,0,0,1,10.689,2.7Zm-74.788,3-.444-1.322c3.414-1.214,6.95-2.306,10.519-3.234l.328,1.354c-3.525.921-7.027,2-10.4,3.2Zm93.627,7.42a41.106,41.106,0,0,0-8.85-6.225l.626-1.24a42.039,42.039,0,0,1,9.137,6.43ZM18.213,18.144l-.678-1.212A105.6,105.6,0,0,1,27.3,11.748l.56,1.274a106.575,106.575,0,0,0-9.645,5.122ZM.943,31.545l-.943-1a85.509,85.509,0,0,1,8.362-7.363L9.178,24.3A83.49,83.49,0,0,0,.943,31.545Zm131.6,5.861-.231-1.379A79.472,79.472,0,0,1,140.435,35a32.879,32.879,0,0,0-2.375-9.541q-.078-.2-.165-.392l1.208-.626a5.076,5.076,0,0,1,.209.478,34.024,34.024,0,0,1,2.474,9.993c.491-.031.979-.054,1.47-.077l.055,1.4a79.734,79.734,0,0,0-10.767,1.172Zm32.376.324a100.637,100.637,0,0,0-10.775-1.34l.093-1.4a101.207,101.207,0,0,1,10.916,1.356Zm20.7,6.422a75.713,75.713,0,0,0-10.138-3.888l.383-1.339a76.606,76.606,0,0,1,10.318,3.953Zm-72.675,1.632-.9-1.049A31.516,31.516,0,0,1,121.65,39l.491,1.308a30.086,30.086,0,0,0-9.195,5.48ZM135.424,57.1l-1.092-.83a33.69,33.69,0,0,0,4.887-9.757l1.3.427A35.052,35.052,0,0,1,135.424,57.1Zm67.1.327a34.483,34.483,0,0,0-7.582-7.715l.806-1.126a35.714,35.714,0,0,1,7.879,8.026Zm-95.409,8.637a12.81,12.81,0,0,1-1.368-6.217,27.558,27.558,0,0,1,.566-5.27l1.326.279a26.265,26.265,0,0,0-.535,4.991,11.366,11.366,0,0,0,1.189,5.526Zm10.3,3.854-.254-1.377A24.382,24.382,0,0,0,126.739,64l.794,1.138a25.812,25.812,0,0,1-10.124,4.781Zm55.65,3.179-.34-1.357a41.832,41.832,0,0,1,10.114-1.317c.3,0,.593.006.891.014l-.042,1.4c-.342-.009-.689-.017-1.026-.014a37.494,37.494,0,0,0-9.6,1.274Zm34.226,5.5-1.316-.364a27.6,27.6,0,0,0,.955-7.056,23.32,23.32,0,0,0-.3-3.782l1.338-.236a24.79,24.79,0,0,1,.322,4.018,29.285,29.285,0,0,1-.995,7.42Zm-3.528.085a38.391,38.391,0,0,0-9.561-4.92l.424-1.331a39.456,39.456,0,0,1,9.9,5.1Zm-48.865,5.076-1.147-.745c1.619-2.665,4.531-5.108,8.64-7.258L163,77c-3.892,2.036-6.617,4.309-8.106,6.757Zm63.1,11.3a52.187,52.187,0,0,0-6.211-9.047l1.018-.93a53.837,53.837,0,0,1,6.382,9.294Zm-22.629,2.449-.8-1.12a29.267,29.267,0,0,0,7.16-8.062l1.144.742a30.543,30.543,0,0,1-7.5,8.441Zm-31.86,3.456a21.647,21.647,0,0,1-9.079-6.692l1.084-.842a20.561,20.561,0,0,0,8.517,6.237Zm13.216,2.639c-.813,0-1.618-.029-2.413-.086l.094-1.4a32.457,32.457,0,0,0,10.6-1.012l.35,1.348a32.431,32.431,0,0,1-8.633,1.146ZM224.9,116.04a69.038,69.038,0,0,0-2.556-10.809l1.285-.45a69.69,69.69,0,0,1,2.606,11.04Zm1.553,22.416-1.346-.173a87.019,87.019,0,0,0,.668-10.537v-.606h1.357v.606a88.122,88.122,0,0,1-.679,10.71ZM221.094,160.4l-1.274-.492a105.678,105.678,0,0,0,3.262-10.659l1.313.35a108.8,108.8,0,0,1-3.3,10.8Zm-9.681,20.3-1.155-.728c1.9-3.214,3.66-6.513,5.234-9.806l1.22.617c-1.6,3.33-3.379,6.669-5.3,9.917ZM198.586,199.02l-1.037-.9c2.353-2.893,4.609-5.862,6.691-8.831l1.1.822c-2.107,3-4.379,5.995-6.757,8.91Z" transform="translate(73.101)" fill-rule="evenodd"/>
        <path id="Fill-56" d="M1.064,7.8,0,6.715C.92,4.412,1.9,2.155,2.914,0l1,1.217C2.929,3.335,1.968,5.547,1.064,7.8" transform="translate(61.353 39.024)" fill-rule="evenodd"/>
      </g>
      <g id="dollar" transform="translate(203 25)">
        <path id="Oval" d="M17.438,34.875A17.438,17.438,0,1,0,0,17.438,17.437,17.437,0,0,0,17.438,34.875Z" transform="translate(54.25 54.25)" fill="#ffe773"/>
        <path id="Oval-2" data-name="Oval" d="M9.688,19.375A9.688,9.688,0,1,0,0,9.688,9.687,9.687,0,0,0,9.688,19.375Z" transform="translate(62 62)" fill="#fff0a6"/>
        <path id="Path-2" data-name="Path" d="M17.886,5.222A38.943,38.943,0,0,1,5.222,17.886a1.31,1.31,0,0,1-1.511-.09A10.015,10.015,0,1,1,17.8,3.711a1.31,1.31,0,0,1,.09,1.511Z" transform="translate(60.708 60.708)" fill="#fada86"/>
        <path id="Path-3" data-name="Path" d="M28.343,5.228a37.641,37.641,0,0,1-2.535,5.649.644.644,0,0,1-1.065.089A9.79,9.79,0,1,0,10.966,24.743a.644.644,0,0,1-.089,1.065,37.648,37.648,0,0,1-5.649,2.535,1.294,1.294,0,0,1-1.439-.412A17.171,17.171,0,0,1,27.931,3.789a1.294,1.294,0,0,1,.413,1.439Z" transform="translate(54.25 54.25)" fill="#f7cd5e"/>
        <path id="Oval-3" data-name="Oval" d="M32.847,65.694A32.847,32.847,0,1,0,0,32.847,32.847,32.847,0,0,0,32.847,65.694Z" transform="translate(0.08 46.54) rotate(-45)" fill="#ffe773"/>
        <path id="Oval-4" data-name="Oval" d="M24.957,49.914A24.957,24.957,0,1,0,0,24.957,24.957,24.957,0,0,0,24.957,49.914Z" transform="translate(11.238 46.54) rotate(-45)" fill="#fff0a6"/>
        <path id="Path-4" data-name="Path" d="M34.143,8.75A34.042,34.042,0,0,0,9.53,38.517c-.378,5.148-7.773,5.6-8.83.548A32.433,32.433,0,0,1,33.094,0C38.257.087,39.129,7.414,34.143,8.75Z" transform="translate(14.208 14.208)" fill="#fff0a6"/>
        <path id="Path-5" data-name="Path" d="M27.684,4.667C14.166,5.752,2.842,18.991,4.8,32.989a1.625,1.625,0,0,1-3.125.83A24.942,24.942,0,0,1,0,24.8,24.637,24.637,0,0,1,27.765.214a2.242,2.242,0,0,1-.081,4.453Z" transform="translate(21.958 21.958)" fill="#fff8d6"/>
        <g id="Group" transform="translate(12.917 12.917)">
          <path id="Path-6" data-name="Path" d="M17.438,22.865c0-5.283-4.691-6.244-8.46-7.015-3.965-.812-6.395-1.463-6.395-4.485,0-2.458,2.752-4.458,6.135-4.458A6.781,6.781,0,0,1,14.1,9.236a1.292,1.292,0,0,0,2.058-1.562A8.956,8.956,0,0,0,10.01,4.4V1.292a1.292,1.292,0,1,0-2.583,0V4.4C3.23,4.906,0,7.836,0,11.365c0,5.283,4.691,6.244,8.46,7.015,3.965.812,6.395,1.463,6.395,4.484,0,2.458-2.752,4.458-6.135,4.458a6.781,6.781,0,0,1-5.379-2.33,1.292,1.292,0,1,0-2.058,1.562,8.956,8.956,0,0,0,6.145,3.273v3.11a1.292,1.292,0,1,0,2.583,0V29.829c4.2-.506,7.427-3.436,7.427-6.964Z" transform="translate(25.51 17.115)"/>
          <path id="Path-7" data-name="Path" d="M.839,2.5a1.4,1.4,0,0,0,.551.119,1.292,1.292,0,0,0,.458-2.5l-.1-.039A1.292,1.292,0,0,0,.839,2.5Z" transform="translate(41.7 9.488)"/>
          <path id="Path-8" data-name="Path" d="M9.287,14.325a1.292,1.292,0,1,0,2.459-.794A26.528,26.528,0,0,0,2.046.243,1.292,1.292,0,1,0,.538,2.34,23.929,23.929,0,0,1,9.287,14.325Z" transform="translate(47.534 12.607)"/>
          <path id="Path-9" data-name="Path" d="M74.862,49.387a1.292,1.292,0,1,0-2.215,1.33A15.986,15.986,0,1,1,44.98,66.733a34.245,34.245,0,1,0-11.908,1.706,1.292,1.292,0,1,0,.086-2.582A31.616,31.616,0,1,1,42.791,64.7a1.294,1.294,0,0,0-.832,1.769,18.571,18.571,0,1,0,32.9-17.085Z"/>
          <path id="Path-10" data-name="Path" d="M1.938,0c-.213.016-.43.024-.646.024a1.292,1.292,0,1,0,0,2.583c.279,0,.561-.01.838-.031A1.292,1.292,0,1,0,1.938,0Z" transform="translate(57.641 67.462)"/>
          <path id="Path-11" data-name="Path" d="M3.739,1.292A8.518,8.518,0,0,1,.49,8a1.292,1.292,0,1,0,1.6,2.025A11.087,11.087,0,0,0,6.323,1.292a1.292,1.292,0,1,0-2.583,0Z" transform="translate(63.75 57.641)"/>
          <path id="Path-12" data-name="Path" d="M2.292.474a1.292,1.292,0,1,0-2,1.634,26.594,26.594,0,0,0,8.672,6.93,1.292,1.292,0,1,0,1.152-2.312A23.994,23.994,0,0,1,2.292.474Z" transform="translate(13.548 48.761)"/>
        </g>
      </g>
    </g>
  </g>
</svg>
