<?xml version="1.0" encoding="utf-8"?>
<svg width="356px" height="277px" viewBox="0 0 356 277" version="1.1" xmlns:xlink="http://www.w3.org/1999/xlink" xmlns="http://www.w3.org/2000/svg">
  <defs>
    <path d="M0 0L314.968 0L314.968 264.478L0 264.478L0 0Z" transform="translate(0.0004310608 0.64350915)" id="path_1" />
    <rect width="356" height="277" id="artboard_1" />
    <clipPath id="clip_1">
      <use xlink:href="#artboard_1" clip-rule="evenodd" />
    </clipPath>
    <clipPath id="mask_1">
      <use xlink:href="#path_1" />
    </clipPath>
  </defs>
  <g id="Custom-Preset" clip-path="url(#clip_1)">
    <use xlink:href="#artboard_1" stroke="none" fill="#FFFFFF" fill-opacity="0" />
    <g id="Group-38" transform="translate(20 -1.6913757)">
      <g id="Group-58">
        <g id="Group-3" transform="translate(0 14.2928705)">
          <path d="M0 0L314.968 0L314.968 264.478L0 264.478L0 0Z" transform="translate(0.0004310608 0.64350915)" id="Clip-2" fill="none" fill-rule="evenodd" stroke="none" />
        </g>
        <path d="M120.164 104.596C116.803 123.048 124.88 134.559 114.419 139.513C111.222 141.057 106.397 141.939 100.326 142.434C96.1008 142.767 91.275 142.929 86.0197 142.929C73.9868 142.929 59.8369 142.16 45.6898 141.443L56.4756 81.626C56.4233 80.6917 56.316 79.7546 56.2609 78.8734L56.2086 78.8174C44.4427 68.2963 33.1696 57.999 24.3906 48.636C13.7672 37.2869 6.88224 27.3756 0 17.4056L0.217479 17.1846L20.7596 0C29.5386 8.64684 37.343 18.726 47.9141 23.4088C56.6931 27.3196 66.6668 28.5309 76.8581 29.3002C80.1092 28.6428 83.6302 28.3099 87.3741 28.3099C103.415 28.3099 122.008 34.3132 128.676 45.1644C129.433 46.4317 130.085 47.7548 130.517 49.1312C135.935 64.7744 123.2 87.6321 120.164 104.596" transform="translate(93.987305 129.93527)" id="Fill-4" fill="#85C3CC" fill-rule="evenodd" stroke="none" />
        <path d="M37.1013 57.1585C33.8787 76.1739 41.6224 88.0369 31.5931 93.1424C28.5289 94.7337 23.9022 95.6419 18.0825 96.1521C-11.8497 58.6893 1.19631 31.9565 15.7441 49.6083C31.0204 68.1134 29.6189 40.4754 20.6796 23.4406C13.9547 10.6262 26.2644 17.0406 34.2456 24.6542C40.8201 30.9245 42.3509 6.07131 47.0277 0C52.2219 16.121 40.0125 39.6768 37.1013 57.1585" transform="translate(176.22656 179.31065)" id="Fill-6" fill="#64AEB9" fill-rule="evenodd" stroke="none" />
        <path d="M55.8959 62.3689C44.1982 51.7222 32.9878 41.3019 24.255 31.8242C13.6906 20.3424 6.84395 10.3099 0 0.223636L0.216269 0C6.03636 0.835096 14.7692 10.0891 21.0219 17.4464C28.0273 25.7493 22.0977 29.4293 37.1353 30.4315C50.5604 31.3232 61.6092 49.8849 55.8959 62.3689" transform="translate(92.68262 148.1262)" id="Fill-8" fill="#64AEB9" fill-rule="evenodd" stroke="none" />
        <path d="M3.78406 0C18.4253 7.92606 33.0666 15.8521 45.663 30.5364C58.2594 45.2206 68.8109 66.6659 61.6323 79.1604C54.451 91.6577 29.5395 95.2014 4.62797 98.7508L0 81.5963C14.8171 74.3715 29.6341 67.1468 29.0093 60.1968C28.3845 53.244 12.3151 46.5688 5.53949 36.5818C-1.23611 26.5948 1.27127 13.296 3.78406 0" transform="translate(199.72363 162.41908)" id="Fill-10" fill="#85C3CC" fill-rule="evenodd" stroke="none" />
        <path d="M3.12823 0L3.12823 0C1.99838 0 1.05544 0.487762 0.508646 1.35713C-0.0409367 2.22362 -0.149737 3.40286 0.204562 4.628L19.7106 72.031C20.0649 73.259 20.8544 74.4353 21.9033 75.3047C22.955 76.1712 24.1825 76.659 25.3124 76.659L66.0568 76.6618C68.4086 76.659 69.7198 74.5874 68.9777 72.031L49.4745 4.628C48.7352 2.07155 46.2272 0 43.8727 0L23.5018 0L3.12823 0L3.12823 0Z" transform="translate(104.430664 202.69902)" id="Fill-12" fill="#FA624B" fill-rule="evenodd" stroke="none" />
        <path d="M10.2776 5.19914C10.9943 8.06907 9.3163 10.3948 6.5241 10.3948C3.73191 10.3948 0.885361 8.06907 0.165233 5.19914C-0.551499 2.32922 1.12993 0 3.92213 0C6.71093 0 9.55747 2.32922 10.2776 5.19914" transform="translate(126.62207 213.09384)" id="Fill-14" fill="#FFFFFF" fill-rule="evenodd" stroke="none" />
        <path d="M3.85348 1.94903C4.12444 3.02591 3.49133 3.89806 2.44658 3.89806C1.39923 3.89806 0.331027 3.02591 0.0626746 1.94903C-0.208283 0.872144 0.42482 0 1.46957 0C2.51432 0 3.58252 0.872144 3.85348 1.94903" transform="translate(133.14941 226.08736)" id="Fill-16" fill="#FFFFFF" fill-rule="evenodd" stroke="none" />
        <path d="M67.9131 77.9612L26.4564 77.9583C25.1422 77.9583 23.7542 77.4254 22.5535 76.4513C21.3641 75.4886 20.4899 74.2022 20.084 72.8327L0.237014 5.52384C-0.183087 4.08558 -0.0411607 2.71894 0.634408 1.6732C1.31565 0.610258 2.50216 0 3.88168 0L45.3411 0C48.069 0 50.8621 2.24907 51.7079 5.12273L57.9158 26.1609L56.5732 26.5648L50.3653 5.52384C49.7125 3.29195 47.4132 1.40961 45.3411 1.40961L3.88168 1.40961C2.97051 1.40961 2.2325 1.77634 1.80388 2.44103C1.35539 3.13724 1.27307 4.08844 1.57964 5.12273L21.4294 72.4287C21.7445 73.5117 22.4768 74.5775 23.4249 75.3511C24.3701 76.1103 25.4743 76.5487 26.4564 76.5487L67.9131 76.5516C68.7703 76.5516 69.4799 76.2249 69.9171 75.6347C70.4308 74.9357 70.5387 73.9186 70.2179 72.8327L71.5577 72.4287C72.0062 73.9444 71.816 75.417 71.0354 76.4742C70.3315 77.4311 69.2244 77.9583 67.9131 77.9612" transform="translate(99.208984 198.80095)" id="Fill-18" fill="#000000" fill-rule="evenodd" stroke="none" />
        <path d="M50.1904 2.06142L22.0947 11.2195C20.3609 7.17456 18.6327 3.12678 16.896 1.32231C15.9244 0.311812 14.9472 0 13.9701 0C13.2078 0 12.44 0.193439 11.6723 0.381103L14.2046 9.02522C10.6001 6.28532 6.99848 3.5483 4.28189 3.5483C3.89939 3.5483 3.53922 3.60027 3.19581 3.71576C0.398245 4.64831 -1.08709 9.63152 0.937097 15.0911C2.96407 20.5478 8.50336 26.4838 18.722 27.2114C19.4647 27.2633 20.2297 27.2864 21.017 27.2864C31.1016 27.2864 44.9219 23.1347 58.7422 18.9772L50.1904 2.06142Z" transform="translate(148.81348 239.08089)" id="Fill-20" fill="#FFFFFF" fill-rule="evenodd" stroke="none" />
        <path d="M65.2691 42.6891L29.4572 0C17.7358 0.134075 6.01427 0.268151 1.87331 2.70385C-2.26765 5.13956 1.16651 9.87131 5.30747 12.0752C7.95121 13.4802 10.8836 13.8545 13.9185 13.8545C15.6369 13.8545 17.385 13.7344 19.1332 13.6142L45.2684 58.4709L65.2691 42.6891Z" transform="translate(46.99414 89.65533)" id="Fill-22" fill="#FFFFFF" fill-rule="evenodd" stroke="none" />
        <path d="M12.9937 0.373968C12.204 0.7997 11.5859 1.55313 11.281 2.46622L0.212392 35.4856C-0.427489 37.3846 0.427501 39.4489 2.11842 40.0959C18.0038 46.1569 33.8864 52.2152 49.7718 58.2763C51.4627 58.9233 53.3497 57.9038 53.9869 56.0048L65.0582 22.9854C65.6953 21.0836 64.8403 19.0221 63.1521 18.3751L39.3213 9.28633L15.496 0.191912C14.6846 -0.116184 13.7833 -0.0517639 12.9937 0.373968Z" transform="translate(18.27539 44.17799)" id="Fill-24" fill="#FFB840" fill-rule="evenodd" stroke="none" />
        <path d="M14.9863 19.5939C14.9936 15.0639 10.9593 14.2466 7.71784 13.59C4.30806 12.8993 2.21838 12.3444 2.22256 9.75336C2.22595 7.64537 4.59669 5.92662 7.50724 5.92194C9.42307 5.91887 11.1951 6.68164 12.1318 7.91259C12.502 8.39919 13.199 8.49332 13.6884 8.1226C14.1779 7.75203 14.2746 7.05701 13.9042 6.5704C12.7319 5.02971 10.8074 4.0256 8.62197 3.77215L8.62627 1.1058C8.62725 0.494141 8.13048 -0.000980377 7.51678 0C6.90308 0.000991821 6.40471 0.497703 6.40372 1.10937L6.39943 3.7753C2.7878 4.21472 0.00489044 6.73158 7.62939e-06 9.75706C-0.00728607 14.2871 4.02697 15.1043 7.26845 15.7609C10.6782 16.4517 12.7679 17.0064 12.7637 19.5975C12.7603 21.7055 10.3896 23.4242 7.47904 23.4289C5.56322 23.4319 3.79115 22.6692 2.85452 21.4382C2.48428 20.9516 1.78725 20.8576 1.29784 21.2282C0.808418 21.5988 0.711731 22.2938 1.08211 22.7804C2.25438 24.3211 4.17887 25.3252 6.36432 25.5787L6.36002 28.245C6.35903 28.8567 6.85581 29.3518 7.46951 29.3508C8.08321 29.3498 8.58158 28.8531 8.58256 28.2414L8.58685 25.5755C12.1985 25.1362 14.9814 22.6194 14.9863 19.5939L14.9863 19.5939Z" transform="matrix(0.92718387 0.37460658 -0.37460658 0.92718387 48.807182 57.047836)" id="Path" fill="#000000" fill-rule="evenodd" stroke="none" />
        <path d="M24.8566 50.6748L2.55004 42.0258C0.532553 41.2416 -0.503381 38.747 0.241621 36.4683L11.3025 2.97216C11.6586 1.87542 12.3819 0.98041 13.3308 0.457611C14.2852 -0.0623474 15.3836 -0.144745 16.3788 0.23883L63.9637 18.6817L63.4906 19.9944L15.9057 1.54867C15.2694 1.29295 14.5734 1.35546 13.9507 1.69642C13.3199 2.0459 12.8115 2.67667 12.5641 3.42677L1.50867 36.92C0.997499 38.4913 1.67181 40.1932 3.02042 40.716L25.327 49.3649L24.8566 50.6748Z" transform="translate(15.665039 44.17799)" id="Fill-28" fill="#000000" fill-rule="evenodd" stroke="none" />
        <path d="M11.7484 13.9851C11.7454 9.16504 11.7424 4.34501 9.34451 1.94036C7.99758 0.587743 5.89565 0 4.03834 0C2.58873 0 1.2871 0.35694 0.610615 0.992991C-0.935635 2.43954 0.758595 5.32458 2.32599 8.62829C3.89035 11.9347 5.32486 15.6597 6.87715 16.6205C7.17312 16.8057 7.47814 16.8916 7.78316 16.8916C9.06365 16.8916 10.4076 15.437 11.7484 13.9851" transform="translate(71.7959 77.96116)" id="Fill-36" fill="#FFFFFF" fill-rule="evenodd" stroke="none" />
        <path d="M9.46186 19.079C10.2139 18.1307 10.9713 17.1823 11.3377 14.0034C11.6987 10.8245 11.6741 5.41227 11.6467 0L26.033 5.99867C24.1598 8.96434 22.2894 11.9272 21.871 14.6937C21.4527 17.4573 22.4836 20.0274 23.5145 22.5946C25.6529 28.5316 27.794 34.4713 24.1079 40.1277C21.037 44.8497 13.9136 49.3754 8.55127 49.3754C7.48481 49.3754 6.48672 49.1958 5.60621 48.803C0.293065 46.4406 -0.822613 36.3315 0.517294 30.0887C1.86267 23.8432 5.6609 21.4611 9.46186 19.079" transform="translate(178.83789 140.33008)" id="Fill-38" fill="#FFFFFF" fill-rule="evenodd" stroke="none" />
        <path d="M3.67351 0.918258C0.851666 12.0899 -1.97018 23.2644 1.86832 27.6398C3.22855 29.1885 5.42237 29.8851 7.90064 29.8851C12.4263 29.8851 17.9123 27.565 21.027 23.8574C25.8483 18.1176 24.9922 9.0588 24.1417 0L3.67351 0.918258Z" transform="translate(186.66992 126.03721)" id="Fill-40" fill="#FFFFFF" fill-rule="evenodd" stroke="none" />
        <path d="M21.38 28.5858C20.5933 28.5858 19.8204 28.5599 19.075 28.5053C6.20463 27.5768 1.95761 18.6883 0.970123 15.9832C-0.275926 12.594 -0.325438 9.04948 0.843592 6.50539C1.4845 5.10542 2.47198 4.11653 3.62176 3.73133C6.20463 2.88617 9.73097 5.07093 13.4416 7.87374L11.3209 0.574935L12.0195 0.396705C12.7594 0.212726 13.6012 0 14.4429 0C15.7302 0 16.8332 0.497319 17.8042 1.52645C19.5233 3.34037 21.1957 7.18669 22.8186 11.0129L49.9236 2.08414L50.3252 3.43236L22.0677 12.7434L21.8256 12.1628C20.178 8.27044 18.4753 4.23727 16.8442 2.52109C15.7687 1.37984 14.4896 1.27923 13.0345 1.60119L15.9117 11.5188L14.2723 10.2626C10.4351 7.31605 6.38617 4.31201 4.03161 5.07955C3.24492 5.34402 2.54075 6.06844 2.06764 7.11482C1.05539 9.31682 1.11866 12.4416 2.23543 15.4744C3.15415 17.984 7.10134 26.2257 19.1685 27.0938C29.1754 27.7809 43.9959 23.2877 58.3599 18.924L58.7422 20.2808C45.308 24.3629 31.4172 28.5858 21.38 28.5858" transform="translate(148.81348 237.78154)" id="Fill-42" fill="#000000" fill-rule="evenodd" stroke="none" />
        <path d="M45.8405 53.2735L19.6514 8.76719C13.2336 9.33696 9.15504 8.93756 5.73895 7.11374C2.96355 5.65859 -0.0108754 2.80975 2.9897e-05 0L1.34138 0.00558598C1.33048 1.85454 3.48973 4.38499 6.35238 5.89041C9.60216 7.62206 13.5799 7.95722 19.9431 7.35952L20.363 7.31763L20.5838 7.6891L46.9938 52.564L45.8405 53.2735Z" transform="translate(46.99414 94.85274)" id="Fill-44" fill="#000000" fill-rule="evenodd" stroke="none" />
        <path d="M45.9218 53.2735L11.1965 15.12L11.1965 14.8669C11.1965 10.1992 11.1965 5.37466 9.04685 3.07516C7.87983 1.80714 5.95208 1.35329 4.53437 1.35329C3.30972 1.35329 2.2666 1.6421 1.81708 2.10695C0.831599 3.12467 1.84014 5.39941 3.00716 8.03723L3.54024 9.24474C3.73907 9.62157 3.92925 10.0672 4.12807 10.6475L2.77663 11.0656C2.62103 10.6145 2.46543 10.2102 2.25796 9.80586L1.70758 8.56534C0.344619 5.49568 -0.831047 2.84686 0.77685 1.18826C1.503 0.434593 2.87749 0 4.53437 0C6.77044 0 8.85667 0.814175 10.1101 2.17847C12.5739 4.81354 12.6142 9.77285 12.6142 14.6139L46.9938 52.385L45.9218 53.2735Z" transform="translate(70.490234 77.96116)" id="Fill-46" fill="#000000" fill-rule="evenodd" stroke="none" />
        <path d="M21.0579 19.2948C18.5719 21.4965 16.083 23.7012 12.4372 23.7012C12.2041 23.7012 11.9655 23.6897 11.7241 23.6724C7.68149 23.3644 2.24601 20.4029 0.584011 15.3604C-1.07799 10.318 1.03627 3.19757 4.04396 0.900846C4.87635 0.267664 5.77255 0 6.72147 0C9.20753 0 12.0265 1.82759 14.8511 3.65519C17.3843 2.67664 19.9176 1.69808 22.1317 1.69808C22.9447 1.69808 23.7132 1.83047 24.4235 2.14419C27.0705 3.30694 28.899 6.97364 30.7275 10.6403C32.7835 11.3599 34.8367 12.0823 35.8272 13.7343C36.8178 15.3892 36.7456 17.9766 35.8883 19.6632C35.0254 21.3526 33.3772 22.1441 31.7347 22.9356C33.4605 24.5761 35.1891 26.2195 34.7007 28.6947C34.2679 30.9051 32.0621 33.7832 29.6149 33.7832C29.3235 33.7832 29.0322 33.7429 28.7381 33.6565C25.9607 32.8363 23.1084 27.8859 21.8154 24.8035C20.5252 21.721 20.7916 20.5094 21.0579 19.2948" transform="translate(178.83789 115.64239)" id="Fill-48" fill="#000000" fill-rule="evenodd" stroke="none" />
        <path d="M24.2257 37.2035C26.332 42.935 28.551 48.8949 24.9465 54.4009C21.7307 59.2904 14.5246 63.5605 9.47833 63.5605C8.36883 63.5605 7.53812 63.3378 6.70458 63.001C1.71747 60.8089 0.551651 50.9157 1.8808 44.7903C3.21276 38.6078 7.09319 36.2501 10.754 34.0009L10.9764 33.8325C11.5875 33.1018 12.1958 32.2598 12.5815 30.6842C12.973 30.7413 13.3024 30.7413 13.6939 30.7413C16.9632 30.7413 18.6275 29.8421 18.7373 29.785L18.0699 28.5491C18.0699 28.5491 16.1325 29.5596 12.2493 29.2798C11.0863 28.943 10.1992 28.4378 9.53465 27.7071C5.98369 23.6596 8.64761 12.8702 11.365 2.30346L30.6574 1.46142C31.4909 9.94738 32.2118 18.5447 27.6077 23.9422C26.501 25.3465 24.8902 26.5254 23.0063 27.4816L22.7304 27.65L22.5079 28.8288C22.063 31.8088 23.1725 34.5061 24.2257 37.2035L24.2257 37.2035ZM23.9497 28.5491C25.8899 27.5387 27.4443 26.3027 28.6608 24.8385C33.7634 18.8843 32.82 9.61056 31.933 0.673624L31.8795 0L10.2555 0.956204L10.1429 1.46142C7.31566 12.5306 4.37858 23.9993 8.53779 28.6062C9.20237 29.4482 10.0866 30.0105 11.2552 30.4044C10.8638 31.6975 10.3654 32.314 9.97676 32.8192C6.20897 35.1227 1.99344 37.7658 0.551655 44.4535C-0.890131 50.9728 0.332008 61.7051 6.15265 64.2369C7.09319 64.7421 8.20551 64.9676 9.47833 64.9676C15.023 64.9676 22.6205 60.4692 26.056 55.1887C30.1054 49.0633 27.664 42.5439 25.5013 36.6412C24.4481 34.0551 23.5048 31.6404 23.8371 29.0543L23.9497 28.5491Z" transform="translate(178.83789 126.03721)" id="Fill-50" fill="#000000" fill-rule="evenodd" stroke="none" />
        <path d="M0.783679 3.89806L0 3.11309C1.0705 2.07614 2.10261 1.03695 3.11439 0L3.91614 0.758203C2.9021 1.80408 1.86096 2.85218 0.783679 3.89806" transform="translate(259.77148 205.29771)" id="Fill-52" fill="#F750A2" fill-rule="evenodd" stroke="none" />
        <path d="M91.4619 1.79538C88.2599 1.53118 84.9421 1.39767 81.594 1.39767L80.6121 1.40051L80.6011 0.0028407L81.594 -5.96046e-08C84.9752 -5.96046e-08 88.3344 0.136358 91.5695 0.403391L91.4619 1.79538ZM58.9843 3.37201L58.7609 1.99423C62.36 1.36642 66.0253 0.880643 69.641 0.551112L69.7596 1.9431C66.1798 2.26979 62.5531 2.75272 58.9843 3.37201L58.9843 3.37201ZM112.74 5.88042C109.46 4.81229 105.925 3.92028 102.215 3.22713L102.461 1.85219C106.222 2.55671 109.816 3.46292 113.15 4.5481L112.74 5.88042ZM37.9522 8.87745L37.5081 7.55649C40.9225 6.34347 44.4582 5.25261 48.027 4.32652L48.3552 5.67873C44.8305 6.59914 41.3279 7.6758 37.9522 8.87745L37.9522 8.87745ZM131.579 16.2891C129.136 13.9909 126.16 11.9 122.729 10.0706L123.355 8.832C126.893 10.7126 129.968 12.8744 132.492 15.255L131.579 16.2891ZM18.2135 18.1242L17.535 16.914C20.6212 15.059 23.9087 13.3148 27.2982 11.7353L27.8581 13.008C24.5154 14.5704 21.2693 16.2919 18.2135 18.1242L18.2135 18.1242ZM0.943219 31.51L0 30.51C2.55662 27.9391 5.36973 25.4648 8.36211 23.1552L9.17846 24.2773C6.23021 26.5443 3.46123 28.9817 0.943219 31.51L0.943219 31.51ZM132.544 37.3648L132.313 35.9871C134.905 35.5183 137.625 35.1746 140.435 34.9615C140.148 31.7799 139.354 28.5783 138.06 25.4307C138.008 25.2972 137.953 25.1665 137.895 25.0387L139.103 24.4137C139.186 24.5699 139.246 24.729 139.312 24.891C140.664 28.1777 141.497 31.5355 141.786 34.8735C142.277 34.8422 142.765 34.8195 143.256 34.7968L143.311 36.1944C139.561 36.3564 135.939 36.7484 132.544 37.3648L132.544 37.3648ZM164.92 37.6887C161.373 37.0524 157.749 36.6007 154.145 36.3507L154.238 34.9559C157.887 35.2087 161.558 35.6632 165.154 36.3109L164.92 37.6887ZM185.621 44.1032C182.516 42.6345 179.104 41.3306 175.483 40.2198L175.866 38.8818C179.548 40.0068 183.023 41.3363 186.184 42.8305L185.621 44.1032ZM112.946 45.7338L112.045 44.6855C114.535 42.4243 117.77 40.4954 121.65 38.9528L122.141 40.2596C118.407 41.7425 115.315 43.5805 112.946 45.7338L112.946 45.7338ZM135.424 57.0373L134.332 56.2078C136.516 53.1738 138.162 49.8927 139.219 46.461L140.515 46.8871C139.412 50.4637 137.699 53.8812 135.424 57.0373L135.424 57.0373ZM202.522 57.364C200.602 54.6027 198.051 52.0091 194.94 49.6569L195.746 48.532C198.972 50.9694 201.626 53.6681 203.625 56.5487L202.522 57.364ZM107.113 65.9914C106.206 64.3494 105.745 62.2586 105.745 59.7815C105.745 58.1906 105.936 56.418 106.311 54.5175L107.637 54.7959C107.282 56.6055 107.102 58.2844 107.102 59.7815C107.102 62.0143 107.497 63.8722 108.291 65.3011L107.113 65.9914ZM117.409 69.8407L117.155 68.4658C120.216 67.8749 123.529 66.3039 126.739 63.929L127.533 65.0653C124.16 67.5567 120.66 69.21 117.409 69.8407L117.409 69.8407ZM173.059 73.0167L172.719 71.6616C176.076 70.7753 179.476 70.3946 182.833 70.3463C183.128 70.3463 183.426 70.352 183.724 70.3605L183.682 71.7582C183.34 71.7497 182.993 71.7412 182.656 71.744C179.476 71.744 176.244 72.173 173.059 73.0167L173.059 73.0167ZM207.285 78.5108L205.969 78.1471C206.606 75.7467 206.924 73.3746 206.924 71.0992C206.924 69.8151 206.822 68.5453 206.62 67.3209L207.958 67.0851C208.173 68.389 208.28 69.7384 208.28 71.0992C208.28 73.4968 207.947 75.9938 207.285 78.5108L207.285 78.5108ZM203.757 78.596C200.74 76.4796 197.522 74.8234 194.196 73.6814L194.62 72.3519C198.073 73.5366 201.402 75.2495 204.521 77.4455L203.757 78.596ZM154.892 83.6668L153.745 82.9225C155.364 80.2607 158.276 77.8204 162.385 75.6728L162.998 76.9171C159.106 78.9511 156.381 81.2209 154.892 83.6668L154.892 83.6668ZM217.991 94.9589C216.199 91.675 214.111 88.6296 211.78 85.9224L212.798 84.9934C215.189 87.7802 217.34 90.8994 219.18 94.2771L217.991 94.9589ZM195.362 97.4048L194.557 96.2855C197.356 94.1408 199.767 91.4306 201.717 88.2319L202.861 88.9734C200.823 92.3198 198.299 95.1578 195.362 97.4048L195.362 97.4048ZM163.502 100.856C159.531 99.1633 156.392 96.8537 154.423 94.172L155.507 93.3311C157.305 95.7771 160.328 97.99 164.024 99.561L163.502 100.856ZM176.718 103.493C175.905 103.49 175.1 103.464 174.305 103.407L174.399 102.013C177.957 102.248 181.633 101.925 185.001 101.001L185.351 102.348C182.593 103.109 179.686 103.493 176.718 103.493L176.718 103.493ZM224.905 115.913C224.329 112.183 223.468 108.549 222.349 105.115L223.634 104.666C224.779 108.177 225.658 111.884 226.24 115.694L224.905 115.913ZM226.458 138.304L225.112 138.13C225.551 134.602 225.774 131.06 225.78 127.605L225.78 127L227.137 127L227.137 127.605C227.131 131.122 226.905 134.721 226.458 138.304L226.458 138.304ZM221.094 160.22L219.82 159.729C221.105 156.218 222.194 152.635 223.082 149.082L224.395 149.431C223.499 153.03 222.387 156.661 221.094 160.22L221.094 160.22ZM211.413 180.498L210.258 179.771C212.153 176.56 213.918 173.265 215.492 169.976L216.712 170.592C215.117 173.919 213.333 177.254 211.413 180.498L211.413 180.498ZM198.586 198.801L197.549 197.9C199.902 195.011 202.158 192.046 204.24 189.08L205.343 189.901C203.236 192.895 200.964 195.889 198.586 198.801L198.586 198.801Z" transform="translate(73.10156 0)" id="Fill-54" fill="#FFFFFF" fill-rule="evenodd" stroke="none" />
        <path d="M1.06361 7.79612L0 6.70762C0.920089 4.40739 1.90169 2.15235 2.91404 0L3.91615 1.21583C2.92942 3.33122 1.96832 5.54107 1.06361 7.79612" transform="translate(61.35254 38.980595)" id="Fill-56" fill="#000000" fill-rule="evenodd" stroke="none" />
      </g>
      <g id="dollar" transform="translate(203 24.691376)">
        <path d="M17.4375 34.875C27.068 34.875 34.875 27.068 34.875 17.4375C34.875 7.80703 27.068 0 17.4375 0C7.80703 0 0 7.80703 0 17.4375C0 27.068 7.80703 34.875 17.4375 34.875Z" transform="translate(54.25 54.25)" id="Oval" fill="#FFE773" fill-rule="evenodd" stroke="none" />
        <path d="M9.6875 19.375C15.0378 19.375 19.375 15.0378 19.375 9.6875C19.375 4.33724 15.0378 0 9.6875 0C4.33724 0 0 4.33724 0 9.6875C0 15.0378 4.33724 19.375 9.6875 19.375Z" transform="translate(62 62)" id="Oval" fill="#FFF0A6" fill-rule="evenodd" stroke="none" />
        <path d="M17.8858 5.22176C14.7103 10.365 10.365 14.7103 5.22177 17.8858C4.74978 18.1772 4.14169 18.1452 3.71075 17.796C1.40498 15.9271 -0.0533385 13.0527 0.00149423 9.83954C0.0929368 4.47742 4.47758 0.0927642 9.8397 0.00148561C13.0528 -0.053183 15.9273 1.40498 17.7962 3.71074C18.1452 4.14153 18.1772 4.74978 17.8858 5.22176L17.8858 5.22176Z" transform="translate(60.708332 60.708332)" id="Path" fill="#FADA86" fill-rule="evenodd" stroke="none" />
        <path d="M28.3432 5.22756C27.6507 7.18941 26.8007 9.07743 25.8087 10.8762C25.5876 11.2773 25.0339 11.3195 24.7435 10.9655C22.9157 8.73719 20.1222 7.3308 17.0019 7.38408C11.76 7.47332 7.4736 11.7597 7.3842 17.0017C7.33108 20.122 8.73746 22.9157 10.9656 24.7435C11.3196 25.034 11.2774 25.5875 10.8763 25.8087C9.07738 26.8007 7.18953 27.6507 5.22769 28.3432C4.70914 28.5263 4.13378 28.3592 3.78889 27.9309C1.3552 24.9077 -0.0754101 21.0437 0.00306995 16.8439C0.174795 7.66286 7.66281 0.174796 16.8439 0.00306997C21.0436 -0.0754105 24.9076 1.35521 27.9307 3.78891C28.3592 4.13364 28.5263 4.70917 28.3432 5.22756L28.3432 5.22756Z" transform="translate(54.25 54.25)" id="Path" fill="#F7CD5E" fill-rule="evenodd" stroke="none" />
        <path d="M32.847 65.694C50.9879 65.694 65.694 50.9879 65.694 32.847C65.694 14.7061 50.9879 -1.19887e-13 32.847 0C14.7061 8.66103e-15 -5.15103e-14 14.7061 0 32.847C4.69519e-14 50.9879 14.7061 65.694 32.847 65.694Z" transform="matrix(0.70710677 -0.70710677 0.70710677 0.70710677 0.08036041 46.54026)" id="Oval" fill="#FFE773" fill-rule="evenodd" stroke="none" />
        <path d="M24.9573 49.9142C38.7408 49.9142 49.9145 38.7405 49.9145 24.9571C49.9145 11.1737 38.7408 -6.78845e-14 24.9573 6.92699e-16C11.1737 6.64991e-14 2.97862e-14 11.1737 3.46352e-16 24.9571C9.69785e-15 38.7405 11.1737 49.9142 24.9573 49.9142Z" transform="matrix(0.70710677 -0.70710677 0.70710677 0.70710677 11.238059 46.540375)" id="Oval" fill="#FFF0A6" fill-rule="evenodd" stroke="none" />
        <path d="M34.1427 8.74966C20.7664 12.3329 10.5427 24.7439 9.53048 38.5166C9.15206 43.6642 1.75714 44.1175 0.700696 39.0647C-3.56176 18.6813 12.1669 -0.330323 33.0944 0.00435397C38.2571 0.0868314 39.129 7.41398 34.1427 8.74966Z" transform="translate(14.208333 14.208333)" id="Path" fill="#FFF0A6" fill-rule="evenodd" stroke="none" />
        <path d="M27.6836 4.66728C14.1661 5.75234 2.8419 18.9914 4.8018 32.9887C5.07373 34.9309 2.38467 35.6454 1.6772 33.8186C0.594543 31.0223 0 27.9786 0 24.7951C-0.000316752 9.7986 13.0557 -1.73031 27.765 0.214447C30.4028 0.563285 30.3355 4.4544 27.6836 4.66728L27.6836 4.66728Z" transform="translate(21.958334 21.958334)" id="Path" fill="#FFF8D6" fill-rule="evenodd" stroke="none" />
        <g id="Group" transform="translate(12.916667 12.916667)">
          <path d="M17.4375 22.8646C17.4375 17.5817 12.7468 16.621 8.97789 15.8492C5.01328 15.0373 2.58333 14.3863 2.58333 11.3646C2.58333 8.9062 5.33571 6.90622 8.71875 6.90622C10.9456 6.90622 13.0068 7.79908 14.0977 9.23639C14.529 9.80456 15.3393 9.91564 15.9075 9.48422C16.4757 9.05297 16.5868 8.24261 16.1554 7.67444C14.7899 5.87547 12.5511 4.70086 10.0104 4.40119L10.0104 1.29167C10.0104 0.578344 9.43207 0 8.71875 0C8.00543 0 7.42708 0.578344 7.42708 1.29167L7.42708 4.40071C3.22997 4.9064 0 7.83638 0 11.3647C0 16.6476 4.69069 17.6083 8.45961 18.3801C12.4242 19.1921 14.8542 19.8429 14.8542 22.8646C14.8542 25.323 12.1018 27.3229 8.71875 27.3229C6.49192 27.3229 4.43074 26.4301 3.33977 24.9928C2.90851 24.4246 2.09815 24.3137 1.52998 24.7449C0.961807 25.1762 0.850724 25.9866 1.28214 26.5547C2.64759 28.3537 4.88638 29.5283 7.42708 29.828L7.42708 32.9375C7.42708 33.6508 8.00543 34.2292 8.71875 34.2292C9.43207 34.2292 10.0104 33.6508 10.0104 32.9375L10.0104 29.8285C14.2075 29.3229 17.4375 26.3929 17.4375 22.8646L17.4375 22.8646Z" transform="translate(25.510416 17.114584)" id="Path" fill="#000000" fill-rule="evenodd" stroke="none" />
          <path d="M0.838772 2.50168C1.00572 2.56433 1.15184 2.621 1.38983 2.621C1.91102 2.621 2.40201 2.30325 2.5977 1.7869C2.8507 1.11992 2.51503 0.374143 1.84805 0.121138L1.7452 0.0823878C1.07708 -0.167711 0.3326 0.170706 0.0825014 0.83882C-0.16792 1.50693 0.170981 2.25093 0.838772 2.50168L0.838772 2.50168Z" transform="translate(41.70017 9.488055)" id="Path" fill="#000000" fill-rule="evenodd" stroke="none" />
          <path d="M9.28674 14.3246C9.50439 14.9988 10.2292 15.3774 10.9128 15.1571C11.5917 14.938 11.9644 14.2099 11.7453 13.531C10.0343 8.23017 6.58974 3.51107 2.04598 0.24315C1.46699 -0.173413 0.659864 -0.0415012 0.24314 0.537488C-0.173423 1.11664 -0.0415111 1.92377 0.53764 2.34033C4.63674 5.28888 7.74401 9.54493 9.28674 14.3246L9.28674 14.3246Z" transform="translate(47.533997 12.606512)" id="Path" fill="#000000" fill-rule="evenodd" stroke="none" />
          <path d="M74.8618 49.3872C74.4946 48.7756 73.7012 48.5775 73.0894 48.9446C72.4778 49.3118 72.2797 50.1054 72.6469 50.717C74.1318 53.19 74.9167 56.0309 74.9167 58.9323C74.9167 67.7461 67.7461 74.9167 58.9323 74.9167C53.1141 74.9167 47.787 71.7474 44.9799 66.7333C58.5845 62.2218 68.4583 49.4321 68.4583 34.2292C68.4583 15.3552 53.1032 0 34.2292 0C15.3552 0 0 15.3552 0 34.2292C0 52.7145 14.6543 67.8269 33.072 68.4391C33.7874 68.4624 34.3822 67.9023 34.4058 67.191C34.4295 66.478 33.8707 65.8808 33.1577 65.8572C16.0133 65.2873 2.58333 51.3946 2.58333 34.2292C2.58333 16.7796 16.7796 2.58333 34.2292 2.58333C51.6788 2.58333 65.875 16.7796 65.875 34.2292C65.875 48.3616 56.3825 60.893 42.7911 64.7035C42.0362 64.9155 41.6403 65.7529 41.9596 66.4721C44.9397 73.1713 51.6019 77.5 58.9323 77.5C69.1705 77.5 77.5 69.1705 77.5 58.9323C77.5 55.5625 76.5878 52.2618 74.8618 49.3872L74.8618 49.3872Z" transform="matrix(1 0 0 1 0 4.5889217E-15)" id="Path" fill="#000000" fill-rule="evenodd" stroke="none" />
          <path d="M1.9375 0.00370577C1.72437 0.0195287 1.50705 0.0276016 1.29167 0.0276016C0.578344 0.0276016 0 0.605945 0 1.31927C0 2.03259 0.578344 2.61093 1.29167 2.61093C1.57083 2.61093 1.85273 2.60044 2.12947 2.57977C2.84086 2.52682 3.37448 1.90714 3.32152 1.19559C3.26856 0.484367 2.64905 -0.0498984 1.9375 0.00370577L1.9375 0.00370577Z" transform="translate(57.640625 67.46198)" id="Path" fill="#000000" fill-rule="evenodd" stroke="none" />
          <path d="M3.73935 1.29167C3.73935 3.92231 2.55489 6.36905 0.489836 8.00446C-0.0694553 8.44734 -0.163747 9.25963 0.279133 9.81893C0.722013 10.3782 1.53447 10.4725 2.0936 10.0296C4.78124 7.90129 6.32268 4.71636 6.32268 1.29167C6.32268 0.578344 5.74434 0 5.03101 0C4.31769 0 3.73935 0.578344 3.73935 1.29167Z" transform="translate(63.750237 57.640625)" id="Path" fill="#000000" fill-rule="evenodd" stroke="none" />
          <path d="M2.29199 0.474454C1.84071 -0.0778952 1.02696 -0.159916 0.474454 0.29136C-0.0778952 0.742636 -0.159916 1.55639 0.29136 2.1089C2.64478 4.98947 5.64338 7.38584 8.96296 9.03933C9.59879 9.35595 10.3756 9.10037 10.6951 8.45905C11.0132 7.82049 10.7532 7.045 10.1146 6.72693C7.12056 5.23554 4.41549 3.07345 2.29199 0.474454L2.29199 0.474454Z" transform="translate(13.547718 48.760975)" id="Path" fill="#000000" fill-rule="evenodd" stroke="none" />
        </g>
      </g>
    </g>
  </g>
</svg>