<svg xmlns="http://www.w3.org/2000/svg" xmlns:xlink="http://www.w3.org/1999/xlink" width="356" height="277" viewBox="0 0 356 277">
  <defs>
    <clipPath id="clip-Custom_Size_1">
      <rect width="356" height="277"/>
    </clipPath>
  </defs>
  <g id="Custom_Size_1" data-name="Custom Size – 1" clip-path="url(#clip-Custom_Size_1)">
    <g id="Illsutration" transform="translate(35.141 0)">
      <g id="Group-3" transform="translate(0.006 100.017)">
        <path id="Clip-2" d="M0,0H225.937V153.9H0Z" fill="none" fill-rule="evenodd"/>
      </g>
      <path id="Fill-5" d="M117,17.1c-.6,1.123-35.619,90.563-48,88.877S18.337,62.708,7.486,59.36a12.171,12.171,0,0,0-5.329-.285C.74,59.262-.1,59.447.01,58.707c.692-4.471,10.007-3.593,10.007-3.593S35.23,59.987,44.175,63.97C55.911,69.2,59.608,74.586,59.608,74.586S57.86,29.681,67.646,7.79,117,17.1,117,17.1" transform="translate(29 116.631)" fill="#ffa9a0" fill-rule="evenodd"/>
      <path id="Fill-6" d="M13.13,0C12.341,1.109-9.717,2.5,5.117,34.03c13.014,27.66,58.29,44.406,63.614,50.5s1.774,14.551,9.858,33.814c4.288,10.217,26.258,44.87,26.837,45.437,3.293,3.225,9.891,2.2,9.562,1.412-1.111-2.662-4.086-2.137-5.792-4.476a7.819,7.819,0,0,1-1.27-2.379c-1.4-6.5-6.1-29.041-11-51.219-3.639-16.48-5.559-32.441-8.576-37.556C85,63.886,67.41,37.014,67.41,37.014L13.13,0" transform="translate(97.031 105)" fill="none" stroke="#000" stroke-width="2" fill-rule="evenodd"/>
      <path id="Fill-7" d="M3.938,3.716C-.088,8.387-4.136,21.334,8.76,33.621s39.657,6.317,46.132,2.759C64.461,31.124,68,17.528,68,17.528l-.119-.981S55.973,23.367,45.568,19.73,23.641,3.055,15.058.774C11.015-.3,7.965-.954,3.938,3.716" transform="translate(107.781 73.523)" fill="#fdc022" fill-rule="evenodd"/>
      <path id="Fill-8" d="M26.448,0S13.909,9.7,4.16,7a14.592,14.592,0,0,0-2.073,3.026C.064,13.978-.161,18.643.076,23.087a.258.258,0,0,1,.079.231c-.02.129-.032.259-.044.389.016.257.033.515.052.77a.206.206,0,0,1-.078.189A9.735,9.735,0,0,0,.476,27a40.844,40.844,0,0,0,11.7-3.648C21.271,18.1,29,3.394,29,3.394L26.448,0" transform="translate(151.147 86.679)" fill="#ff8c87" fill-rule="evenodd"/>
      <path id="Fill-9" d="M8.764,0,6.934,2.3A14.6,14.6,0,0,1,1.451,9.021L0,9.891c.877,2.476,11.738,7.737,15.913,7.048,3.069-.507-.976-1.959-4.542-6.531-.251-.323.029-.732.218-1.121l2.742-5.647a4.388,4.388,0,0,1-2.059.585C9.458,4.522,8.764,0,8.764,0" transform="translate(109.663 65.915)" fill="#ff8c87" fill-rule="evenodd"/>
      <path id="Fill-10" d="M.366,0,0,1A1.039,1.039,0,0,0,.366,0" transform="translate(125.253 69)" fill="#ff8c87" fill-rule="evenodd"/>
      <path id="Fill-11" d="M2.524,48.342C1.668,47.661-.863,29.74.3,21.036,1.665,10.836,6.089,5.087,9.563,2.06A8.613,8.613,0,0,1,18.829.818c2.052.955,3.792,2.469,6.54,4.611C28.008,7.485,28.981,6.6,28.981,6.6s2.377,1.444,8.983,8.42c6.9,7.292-5.927,21.532-6.421,22.254S32.9,49.545,32.9,49.545,11.909,55.8,2.524,48.342" transform="translate(98.663 73.193)" fill="#fed92e" fill-rule="evenodd"/>
      <path id="Fill-12" d="M6.505,2.045C1.715,5.478-4.723,16.764,5.258,31.638S41.3,45.885,48.214,44.067A28.91,28.91,0,0,0,66,30.686l-.294-1.972s-16.649,4.191-25.937-1.851S25.339,6.434,17.535,2.133C13.859.107,11.3-1.389,6.505,2.045" transform="translate(103.013 77.031)" fill="#fdc022" fill-rule="evenodd"/>
      <path id="Fill-13" d="M11.654,3.383c2.3,4.342,1.538,11.8-1.411,13.2s-6.512-.82-8.811-5.163-1.773-9,1.176-10.393S9.355-.959,11.654,3.383" transform="translate(116.516 57.676)" fill="#ffbdad" fill-rule="evenodd"/>
      <path id="Fill-14" d="M71.8,1.7A81.574,81.574,0,0,1,57.5,3.475,26.766,26.766,0,0,1,42.332,0s-7.625,5.332-16.52,22.3S0,48.719,0,48.719s3.019,1.155,22.119,13.694C41.38,75.057,58.1,80.695,77.636,67.261,96.72,54.136,121,53.2,121,53.2,111.311,28.8,71.8,1.7,71.8,1.7" transform="translate(60.621 116.195)" fill="#e23c56" fill-rule="evenodd"/>
      <path id="Fill-15" d="M17.989,5.975c8.2.3,16.1-2.189,17.011-2.354C34.817,1.69,32.308,1.69,32.308,1.69A54.068,54.068,0,0,1,17.622,3.46,38.856,38.856,0,0,1,2.04,0S.305.061,0,1.509C1.716,3.822,7.219,5.578,17.989,5.975" transform="translate(99.707 118.505)" fill="#f0576e" fill-rule="evenodd"/>
      <path id="Fill-16" d="M2.156,5C1.531,3.339.807,1.671,0,0Q.625.234,1.243.491C1.9,1.98,2.493,3.466,3,4.943c0,0-.294.013-.844.057" transform="translate(176.927 163.568)" fill="#dadade" fill-rule="evenodd"/>
      <path id="Fill-17" d="M.21,23c-.071-.127-.141-.256-.21-.384q.713-1.144,1.374-2.339C7.8,8.645,13.58,2.591,16.479,0A4.393,4.393,0,0,0,17,.534C14.513,2.6,8.174,8.639,1.046,21.545Q.639,22.283.21,23" transform="translate(85.402 118.777)" fill="#ececee" fill-rule="evenodd"/>
      <path id="Fill-18" d="M1.014,24C.241,23.6,0,23.512,0,23.512S15.531,15.129,24.794,0c.068.128.137.256.206.383C17.407,13.347,5.066,21.546,1.014,24" transform="translate(61.075 140.657)" fill="#dadade" fill-rule="evenodd"/>
      <path id="Fill-19" d="M53.922,73c-10.8,0-21.366-5.06-32.833-12.617C7.366,51.341,1.956,48.2,0,47.157c4-2.514,16.165-10.915,23.653-24.2q.414-.734.807-1.487C31.349,8.283,37.475,2.108,39.878,0a5.921,5.921,0,0,0,.581.472c-.632,7.24-2.1,14.475-1.515,21.715C40.7,44.059,55.306,53.079,70.088,53.079a37.706,37.706,0,0,0,16.8-3.98,39.648,39.648,0,0,1,17.73-4.153q.384,0,.768.008a39.5,39.5,0,0,1,11.477,1.954c.8,1.434,1.516,2.866,2.135,4.292-4.418.3-25.5,2.329-42.47,14.042C68.653,70.68,61.235,73,53.922,73" transform="translate(60.672 117.211)" fill="#d13850" fill-rule="evenodd"/>
      <path id="Fill-20" d="M.872,2A5,5,0,0,1,.4,1.557,3.953,3.953,0,0,1,0,1.044C.412.589.748.245,1,0Q.949,1,.872,2" transform="translate(101.124 119.565)" fill="#de5167" fill-rule="evenodd"/>
      <path id="Fill-21" d="M63.564.584A20.013,20.013,0,0,0,51.132,1.5c-7.011,2.966-11.889,9.524-19.844,10.33a23.606,23.606,0,0,1-7.608-.754c-4.318-.989-8.938-2.5-13.352-1.133a13.736,13.736,0,0,0-5.651,3.622c-.67.684-5.863,6.764-4.426,7.472a1.257,1.257,0,0,0,.9-.024c3.167-.946,6.11-1.656,8.9.57.953.759,1.772,1.664,2.693,2.46a20.562,20.562,0,0,0,7.346,3.72,42.649,42.649,0,0,0,8.791,2.068,23.908,23.908,0,0,0,8.564-.512,24.158,24.158,0,0,0,7.988-4.083,9.175,9.175,0,0,1,6.4-1.792c2.565.258,5.309,1.085,7.818.107,2.105-.822,3.508-2.764,4.618-4.693a3.963,3.963,0,0,1-.771-2.648c.188-.921,1.437-1.627,2.144-.991.17.152.29.363.5.462.54.26,1.041-.385,1.36-.882a5.74,5.74,0,0,1,5.592-2.465,2.215,2.215,0,0,0,1.27,0c.6-.279.694-1.076.614-1.722-.361-2.914-2.459-5.379-4.9-7.1A19.189,19.189,0,0,0,63.564.584" transform="translate(53.808 49.218)" fill="#574386" fill-rule="evenodd"/>
      <path id="Fill-22" d="M30.6,19a23.875,23.875,0,0,1-2.879-.178,38.171,38.171,0,0,1-8.512-2.2A19.293,19.293,0,0,1,12.1,12.652a19.293,19.293,0,0,0,7.113,3.965,38.17,38.17,0,0,0,8.512,2.2A23.872,23.872,0,0,0,30.6,19m12.744-4.757.094-.07-.094.07m.16-.127.243-.192a8.451,8.451,0,0,1,5.3-1.96,8.451,8.451,0,0,0-5.3,1.96l-.243.192m11.374-1.491h0a6.576,6.576,0,0,0,2.638-.5,7.83,7.83,0,0,0,3.23-2.9,7.83,7.83,0,0,1-3.23,2.9,6.576,6.576,0,0,1-2.638.5m-44.5-1.747c-.287-.293-.579-.58-.886-.849A5.921,5.921,0,0,0,5.415,8.457a14.955,14.955,0,0,0-4.539.965,1.767,1.767,0,0,1-.531.106A.7.7,0,0,1,0,9.447l0,0,0,0a.7.7,0,0,0,.341.081,1.767,1.767,0,0,0,.531-.106,14.955,14.955,0,0,1,4.539-.965A5.921,5.921,0,0,1,9.493,10.03c.307.269.6.556.886.849M71.952.046h0C71.97.032,71.987.016,72,0q-.024.024-.051.046" transform="translate(56.728 61.298)" fill="#e2dae4" fill-rule="evenodd"/>
      <path id="Fill-23" d="M.555,8h0C.64,7.839.722,7.678.8,7.516.722,7.678.64,7.839.555,8M0,4.995A2.751,2.751,0,0,1,.04,4.52a1.7,1.7,0,0,1,1.48-1.4.877.877,0,0,1,.646.276c.168.172.288.41.492.523a.515.515,0,0,0,.25.067.515.515,0,0,1-.25-.067c-.2-.112-.324-.351-.492-.523a.877.877,0,0,0-.646-.276A1.7,1.7,0,0,0,.04,4.52,2.751,2.751,0,0,0,0,4.995M10.321.245h0a1.025,1.025,0,0,0,.489-.11A.882.882,0,0,0,11,0h0a.889.889,0,0,1-.19.134,1.025,1.025,0,0,1-.489.11" transform="translate(117.516 61.512)" fill="#e2a29b" fill-rule="evenodd"/>
      <path id="Fill-24" d="M31.854,23a25.049,25.049,0,0,1-2.973-.181,39.922,39.922,0,0,1-8.791-2.241,20.016,20.016,0,0,1-7.347-4.031c-.615-.575-1.184-1.2-1.778-1.8-.3-.3-.6-.59-.915-.863a6.17,6.17,0,0,0-4.212-1.6,15.654,15.654,0,0,0-4.688.981A1.851,1.851,0,0,1,.6,13.37a.73.73,0,0,1-.352-.082l0,0H.235l0,0h0l0,0h0c-.292-.176-.284-.614-.087-1.2.258-.254.526-.5.8-.726a.247.247,0,0,0,.089.017.224.224,0,0,0,.155-.064A17.491,17.491,0,0,1,13.458,6.75a27.751,27.751,0,0,1,6.308.774,54.531,54.531,0,0,1,8.943,3.05A15.937,15.937,0,0,0,34.9,12.133a8.934,8.934,0,0,0,3.3-.62c2.984-1.168,4.895-3.9,7.683-5.368A5.39,5.39,0,0,1,48.4,5.455a4.809,4.809,0,0,1,2.532.761,11.455,11.455,0,0,0,3.743,1.846,3.673,3.673,0,0,0,.652.059c1.935,0,3.292-1.619,4.428-3.2C61.352,2.7,63.053,0,65.8,0a4.621,4.621,0,0,1,1.063.128c1.626.383,3.109,1.25,4.748,1.626a12.218,12.218,0,0,0,2.735.326q.318,0,.636-.02a2.135,2.135,0,0,1-.35,1.591h0l0,0h0l0,0,0,0,0,0,0,0v0l0,0h0l0,0h0c-.015.016-.032.031-.049.046a.889.889,0,0,1-.192.129,1.08,1.08,0,0,1-.493.106,4.68,4.68,0,0,1-.777-.105,4.9,4.9,0,0,0-.834-.071A5.639,5.639,0,0,0,67.5,6.529c-.269.454-.667,1.021-1.108,1.021a.541.541,0,0,1-.253-.065c-.206-.108-.327-.336-.5-.5a.908.908,0,0,0-.651-.264A1.679,1.679,0,0,0,63.5,8.058a2.51,2.51,0,0,0-.041.455,5.424,5.424,0,0,0,.811,2.415c-.083.155-.166.309-.251.464a19.057,19.057,0,0,1-1.031,1.672,8.046,8.046,0,0,1-3.336,2.95,6.887,6.887,0,0,1-2.724.5,40.767,40.767,0,0,1-4.86-.594l-.234-.027a8.442,8.442,0,0,0-.928-.051,8.811,8.811,0,0,0-5.473,1.993l-.251.2-.075.057-.09.069a22.734,22.734,0,0,1-7.571,4.1c-.206.058-.414.112-.622.162a21.065,21.065,0,0,1-4.97.573" transform="translate(53.808 57.561)" fill="#4d3978" fill-rule="evenodd"/>
      <path id="Fill-26" d="M26.913,0S14.373,3.653,4.926,1.838C.985,6.771-1.355,13.231.85,19A32.15,32.15,0,0,0,7.7,18.061C20.125,14.474,29,4.227,29,4.227L26.913,0" transform="translate(143.396 101.553)" fill="#ffbdad" fill-rule="evenodd"/>
      <path id="Fill-27" d="M1.48,6,4.63,3.716s3.686-.032,5.167-.2,3.433-1.664,3.181-1.729-5.323.326-6.08-.457c0,0,3.182-.88.851-1.239a10.991,10.991,0,0,0-4.6.327A13.212,13.212,0,0,1,0,.977L1.48,6" transform="translate(169.919 101.969)" fill="#ffbdad" fill-rule="evenodd"/>
      <path id="Fill-46" d="M.879.028S-.927,2.737.639,4.694,4.15,9,4.15,9l.664-.261S1.722,4.8,2.49,4.52C3.913,4,8.384,7.049,8.99,6.869a20.114,20.114,0,0,0,4.888-2.392c2.989-1.913,3.559-3.044,2.847-2.913a13.743,13.743,0,0,1-3.511,1.044A6.231,6.231,0,0,1,10.044,2c-.186-.056,1.736,1.136-.083,1.629C5.312,4.886,1.788-.426.879.028" transform="translate(198.031 268)" fill="#574386" fill-rule="evenodd"/>
      <path id="Fill-47" d="M15,6.163a4.267,4.267,0,0,0-2.375-3.62C10.252,1.371,7.347,0,7.347,0L6.909.6s4.724,2.385,4.208,3.06c-.958,1.253-6.412.464-6.84.954A20.828,20.828,0,0,0,1.3,9.518C-.283,12.971-.185,14.4.362,13.9a13.307,13.307,0,0,1,2.489-2.843,5.462,5.462,0,0,1,3.056-1c.19-.037-2.092-.258-.778-1.682C8.489,4.734,14.451,7.084,15,6.163" transform="translate(27 167.697)" fill="#574386" fill-rule="evenodd"/>
      <path id="Fill-48" d="M37,17.409S14.372,21.362,11.946,29L.065,14.612s-1.6-4.45,11.053-9.53S29.568,0,29.568,0L37,17.409" transform="translate(95.806)" fill="#1beeff" fill-rule="evenodd"/>
      <path id="Fill-49" d="M15.866,0S25.6,21.549,34,21.9L22.335,37.688S18.2,40.5,9.834,29.229,0,12.165,0,12.165L15.866,0" transform="translate(17 89.057)" fill="#ff6d80" fill-rule="evenodd"/>
      <path id="Fill-50" d="M41,15.977,11.375,39,0,20.631,28.931,0,41,15.977" transform="translate(205.031 99.015)" fill="#7376ff" fill-rule="evenodd"/>
      <g id="dollar" transform="translate(163.07 124.298) rotate(-100)">
        <path id="Oval" d="M14.5,28A14.257,14.257,0,0,0,29,14,14.257,14.257,0,0,0,14.5,0,14.257,14.257,0,0,0,0,14,14.257,14.257,0,0,0,14.5,28Z" transform="translate(43.745 43.983)" fill="#ffe773"/>
        <path id="Oval-2" data-name="Oval" d="M8,15a7.762,7.762,0,0,0,8-7.5A7.762,7.762,0,0,0,8,0,7.762,7.762,0,0,0,0,7.5,7.762,7.762,0,0,0,8,15Z" transform="translate(50.858 50.836)" fill="#fff0a6"/>
        <path id="Path" d="M14.836,4.043a31.316,31.316,0,0,1-10.5,9.8,1.15,1.15,0,0,1-1.253-.069A7.545,7.545,0,0,1,0,7.618,8.077,8.077,0,0,1,8.162,0a8.534,8.534,0,0,1,6.6,2.872.96.96,0,0,1,.074,1.17Z" transform="translate(49.262 49.31)" fill="#fada86"/>
        <path id="Path-2" data-name="Path" d="M23.938,4.231A29.85,29.85,0,0,1,21.8,8.8a.557.557,0,0,1-.9.072,8.4,8.4,0,0,0-6.538-2.9,8.134,8.134,0,0,0-8.123,7.784,7.779,7.779,0,0,0,3.025,6.266.51.51,0,0,1-.075.862,32.489,32.489,0,0,1-4.771,2.051A1.122,1.122,0,0,1,3.2,22.607,13.48,13.48,0,0,1,0,13.633C.148,6.2,6.472.141,14.226,0A14.847,14.847,0,0,1,23.59,3.067a1.02,1.02,0,0,1,.348,1.164Z" transform="translate(44.149 44.456)" fill="#f7cd5e"/>
        <path id="Oval-3" data-name="Oval" d="M27.2,53.446A25.6,25.6,0,0,0,53.446,27.2,27.9,27.9,0,0,0,26.25,0,25.6,25.6,0,0,0,0,26.25,27.9,27.9,0,0,0,27.2,53.446Z" transform="translate(0 37.796) rotate(-45)" fill="#ffe773"/>
        <path id="Oval-4" data-name="Oval" d="M20.667,40.609A19.453,19.453,0,0,0,40.609,20.667,21.2,21.2,0,0,0,19.945,0,19.453,19.453,0,0,0,0,19.945,21.2,21.2,0,0,0,20.667,40.609Z" transform="translate(9.078 37.796) rotate(-45)" fill="#fff0a6"/>
        <path id="Path-3" data-name="Path" d="M28.256,6.979C17.186,9.837,8.725,19.737,7.887,30.723,7.574,34.829,1.454,35.19.58,31.16-2.948,14.9,10.069-.263,27.389,0A3.533,3.533,0,0,1,28.256,6.979Z" transform="translate(11.211 12.162)" fill="#fff0a6"/>
        <path id="Path-4" data-name="Path" d="M23.3,3.747c-11.375.871-20.9,11.5-19.255,22.738a1.37,1.37,0,0,1-2.629.666A19.216,19.216,0,0,1,0,19.907C0,7.867,10.987-1.389,23.365.172A1.792,1.792,0,0,1,23.3,3.747Z" transform="translate(17.178 18.508)" fill="#fff8d6"/>
        <g id="Group" transform="translate(10.573 10.994)">
          <path id="Path-5" data-name="Path" d="M14.207,18.224c.005-4.213-3.818-4.974-6.891-5.585-3.232-.643-5.213-1.16-5.209-3.57,0-1.96,2.249-3.558,5.007-3.562A5.57,5.57,0,0,1,11.5,7.36a1.068,1.068,0,0,0,1.475.2,1.016,1.016,0,0,0,.2-1.443,7.328,7.328,0,0,0-5.007-2.6l0-2.48a1.053,1.053,0,0,0-2.106,0l0,2.479C2.64,3.918,0,6.258,0,9.072c-.005,4.213,3.818,4.974,6.891,5.585,3.232.643,5.213,1.16,5.209,3.569,0,1.96-2.249,3.558-5.007,3.562a5.57,5.57,0,0,1-4.384-1.853,1.068,1.068,0,0,0-1.475-.2,1.016,1.016,0,0,0-.2,1.444,7.328,7.328,0,0,0,5.007,2.6l0,2.48a1.053,1.053,0,0,0,2.106,0l0-2.479c3.423-.407,6.059-2.747,6.063-5.561Z" transform="matrix(0.259, 0.966, -0.966, 0.259, 39.386, 16.772)"/>
          <path id="Path-6" data-name="Path" d="M.687,1.985a1.175,1.175,0,0,0,.451.095,1.058,1.058,0,0,0,.99-.662A1.016,1.016,0,0,0,1.514.1L1.43.065a1.068,1.068,0,0,0-1.362.6,1.016,1.016,0,0,0,.62,1.32Z" transform="translate(34.163 7.53)"/>
          <path id="Path-7" data-name="Path" d="M7.608,11.369a1.066,1.066,0,0,0,1.332.661,1.019,1.019,0,0,0,.682-1.29A21.106,21.106,0,0,0,1.676.193,1.081,1.081,0,0,0,.2.427,1,1,0,0,0,.44,1.857a19.039,19.039,0,0,1,7.168,9.511Z" transform="translate(38.942 10.005)"/>
          <path id="Path-8" data-name="Path" d="M61.821,39.2a1.091,1.091,0,0,0-1.464-.351,1,1,0,0,0-.365,1.407,12.3,12.3,0,0,1,1.874,6.52,12.965,12.965,0,0,1-13.2,12.686,13.317,13.317,0,0,1-11.522-6.495c11.235-3.58,19.389-13.731,19.389-25.8C56.533,12.187,43.853,0,28.267,0S0,12.187,0,27.166C0,41.837,12.1,53.831,27.311,54.317a1.026,1.026,0,1,0,.071-2.049c-14.158-.452-25.249-11.478-25.249-25.1C2.133,13.317,13.857,2.05,28.267,2.05S54.4,13.317,54.4,27.166c0,11.216-7.839,21.162-19.063,24.186a1.018,1.018,0,0,0-.687,1.4,15.4,15.4,0,0,0,14.016,8.752C57.121,61.508,64,54.9,64,46.772A14.286,14.286,0,0,0,61.821,39.2Z" transform="translate(0)"/>
          <path id="Path-9" data-name="Path" d="M1.587,0c-.175.013-.353.019-.529.019A1.042,1.042,0,0,0,0,1.047,1.042,1.042,0,0,0,1.058,2.072c.229,0,.46-.008.686-.025a1.036,1.036,0,0,0,.977-1.1A1.047,1.047,0,0,0,1.587,0Z" transform="translate(47.222 53.541)"/>
          <path id="Path-10" data-name="Path" d="M3.063,1.025A6.685,6.685,0,0,1,.4,6.353a1,1,0,0,0-.173,1.44,1.081,1.081,0,0,0,1.487.167A8.7,8.7,0,0,0,5.18,1.025a1.059,1.059,0,0,0-2.116,0Z" transform="translate(52.227 45.747)"/>
          <path id="Path-11" data-name="Path" d="M1.878.377A1.082,1.082,0,0,0,.389.231a1,1,0,0,0-.15,1.442,21.682,21.682,0,0,0,7.1,5.5,1.074,1.074,0,0,0,1.419-.461,1.011,1.011,0,0,0-.476-1.375A19.562,19.562,0,0,1,1.878.377Z" transform="translate(11.099 38.699)"/>
        </g>
      </g>
    </g>
  </g>
</svg>
