<svg xmlns="http://www.w3.org/2000/svg" width="840" height="840" viewBox="0 0 840 840">
  <path id="Mask" d="M149.143,0c-.609,13.935-3.733,42.072-8.266,65.529-5.28,27.322-12.278,41.869-16.455,57.86-2.323,8.894-6.665,17.415-7.874,26.482-.7,5.243,3.035,10.479,2.248,15.711-2.7,17.933-8.265,1.012-8.91,16.68-.277,6.738,3,13.511,1.78,20.165-2.93,15.964-9.686,31.186-14.086,46.88-1.391,4.96-2.911,9.954-3.28,15.055-.579,8.013,1.082,16.075.45,24.085-.478,6.055-4.405,30.143-6.976,36.375-.867,2.1-8.632,14.348-8.767,19.233-.088,3.193,1.59,6.275,1.654,9.468.154,7.6-2.207,15.253-1,22.774.631,3.94,7.308,6.641,6.333,10.525-2.937,11.706-12.246,21.415-17.149,32.588-.343.782,2.668-.785,2.829.042l2.536,1.935a35.856,35.856,0,0,1,.18,12.022c-2.728,18.538-12.193,35.01-14.37,53.711-9.647,82.861,3.158-13.793.032,40.606-.175,3.041-1.966,5.852-2.513,8.858-1.87,10.275-4.054,20.55-4.729,30.941-3.182,48.987,5.532-3.872.7,37.771a15.89,15.89,0,0,1-1.946,5.627c-5.475,10.121-12.622,19.542-17.312,29.97-4.463,9.924-7.356,20.379-10.021,30.8-2.681,10.486,7.119,17.812,4.445,24.8-5.553,14.518-13.4,20.277-12.35,34.365.592,7.915,5.252,11.98,2.279,19.8C9.556,774.49-6.3,794.926,2.649,821.9c.805,2.428,4.946-2.967,7.788-3.113,5.824-.3,11.547,1.886,17.38,1.826,9.451-.1,18.789-2.489,28.238-2.3,61.587,1.26-14.859,5.069,34.211,3.948,14.43-.33,31.125-4.725,45.772-.28,4.608,1.4,8.8,3.859,13.524,4.909a80.156,80.156,0,0,0,17.451,1.979c7.457-.012,14.874-1.091,22.253-2.046,27.25-3.528,54.345-7.974,81.611-11.4,4.8-.6,9.715-1.2,14.531-.685,43.631,4.638,23.935,4.922,63.921,16.251,27.305,7.736,47,8.706,77.154,8.992,29,.276,61.976-3.053,89.322-11.842,10.732-3.449,42.921-17.084,54.031-17.78,9.914-.622,19.507,3.423,29.333,4.75a57.5,57.5,0,0,0,9.815.535c12.7-.476,26.724-6.971,38.926-5.95,25.721,2.151,47.371,12.069,73.607,7.8,15.584-2.538,27.564-13.292,42.809-15.254,12.784-1.646,36.63,22.76,47.1,3.9a240.739,240.739,0,0,0,11.421-22.814c26.349-62.268,8.563-135.229,5.778-198.555-1.662-37.787-3.47-75.618-2.546-113.425.723-29.607,4.614-59.088,7.481-88.591,1.608-16.554,7.8-48.914,6.171-69.56-4.4-55.828-12.8-79.8-24.906-131.485C803.9,135.1,797.7,96.277,802.939,49.4c.4-3.588,10.1-30.832,2.938-35.58-1.23-.816-2.991-.754-4.525-.746-46.82.254-80.516-7.324-127.337-7.135-6.882.028-41.706,7.263-48.561,6.721-29.772-2.356-44.637-4.463-74.416-6.747C542.7,5.278,489.176.34,480.8.343c-57.406.016-69.689,7-127.074,5.631C325.611,5.3,294.8,9.13,253.5,6.241,219.9,3.891,149.143,0,149.143,0Z" transform="translate(840 840) rotate(-180)" opacity="0.308"/>
</svg>
