<svg xmlns="http://www.w3.org/2000/svg" width="1475" height="662" viewBox="0 0 1475 662">
    <defs>
        <linearGradient id="78wwakcvca" x1="49.077%" x2="49.077%" y1="0%" y2="100.648%">
            <stop offset="0%" stop-color="#FF8CEB"/>
            <stop offset="56.257%" stop-color="#FFA592"/>
            <stop offset="100%" stop-color="#828FFF"/>
        </linearGradient>
    </defs>
    <g fill="none" fill-rule="evenodd" stroke-linecap="round">
        <g stroke="url(#78wwakcvca)" stroke-width="7" transform="translate(-125 -7908)">
            <g>
                <g>
                    <path d="M1725.233 0c14 44.667-68.334 57.667-247 39-268-28-402 6-525 47-82.855 27.618-380.298 178.375-429.834 240.427-23.895 29.933-46.367 60.983-70.243 90.93-29.68 37.225-58.85 74.923-90.41 110.568-65.026 73.443-90.599 91.41-180.513 131.075-22.845 10.078-84.913 27.554-114.314 22.69C-8.767 669-27.657 579.273 48.49 560.213c58.205-14.569 120.963 5.998 178.375 9.775 42.504 2.796 85.17 2.078 127.764 2.412 108.004.847 216.016 1.928 324.02 1.13 73.139-.54 227.27-10.852 288.26-16.372 47.822-4.328 117.007-13.127 162.756-31.476 24.695-9.906 31.861-25.473 56.814-45.857 14.91-12.179 31.2-22.582 46.279-34.552 49.121-38.994 144.476-113.274 111.791-169.766-10.879-18.804-36.76-21.108-52.464-20.985-20.956.165-41.841 2.594-62.704 4.583-33.015 3.148-95.146 19.625-85.947 65.934 6.167 31.047 32.193 55.798 57.325 72.697" transform="translate(128.767 7883)"/>
                </g>
            </g>
        </g>
    </g>
</svg>
