<svg xmlns="http://www.w3.org/2000/svg" width="792" height="827" viewBox="0 0 792 827">
    <defs>
        <linearGradient id="3yyj15i66a" x1="40.18%" x2="36.607%" y1="29.177%" y2="71.788%">
            <stop offset="0%" stop-color="#FF5ACA"/>
            <stop offset="52.412%" stop-color="#8E9AFF"/>
            <stop offset="100%" stop-color="#FF7A7A"/>
        </linearGradient>
    </defs>
    <g fill="none" fill-rule="evenodd">
        <g stroke="url(#3yyj15i66a)" stroke-width="6" transform="translate(-808 -191)">
            <g>
                <g>
                    <path d="M591.717 688.567c-10.245 62.945-214.676 120.84-247.754 101.178-5.441-3.234-2.03-12.966-.083-18.989 7.872-24.363 17.942-31.812 41.98-39.418 35.831-11.338 90.571 32.837 93.427 68.459.611 7.631 125.609-41.949 173.448-20.225 33.404 15.169 45 69-8 84s-330.065-129.37-334-134c-14.509-17.077-61.28-65.347-67-84-1.434-4.676-118.628-51.216-120.755-79.561-4.752-63.336 52.766-59.063 95.894-57.594 11.725.4 18.586 14.476 31.19 15.044 22.644 1.02 45.605-16.932 60.701-31.828 12.871-12.7 32.794-30.01 29.766-50.578-6.96-47.287-55.036-67.095-96.602-78.83-60.301-17.026-125.783-12.651-181.295 17.339-23.905 12.914-49.584 30.818-59.392 57.38-13.516 36.607 17.45 62.325 51.712 47.068 42.764-19.043 81.162-49.75 110.3-86.415 19.196-24.156 37.661-52.139 41.757-83.58 4.16-31.93-8.833-63.517-4.466-94.993 9.06-65.31 290.533-133.501 310.507-102.427 20.322 31.615 24.727 43.359 28.894 76.134 4.566 35.912-4.774 70.434-37.619 89.795-13.695 8.072-37.942 25.135-56.922 16.606-42.734-19.2-51.805-82.253-44.839-122.5 3.57-20.626 13.791-43.114 27.814-58.765 24.454-27.294 108.958-96.677 130.355-65.295 15 22-11.16 83.406 31 124 48.879 47.064 168.462 62.161 168.415 72.943-.073 16.795-2.946 78.152-8.51 96.268-14.066 45.805-77.728 36.523-106.977 12.788-40.175-32.602-65.632-85.252-53.84-137.228 4.02-17.713 20.451-36.055 31.474-47.897 26.814-28.809 62.879-51.226 96.906-70.436 17.528-9.896 35.331-19.315 53.324-28.338 12.136-6.086 24.53-11.66 37.025-16.97 18.864-8.016 37.799-15.897 57.026-22.995 13.065-4.822 26.304-9.265 39.79-12.743 20.171-5.2 40.551-9.669 61.07-13.262 15.135-2.65 30.45-4.308 45.772-5.45 21.719-1.617 43.5-2.444 65.275-2.824 31.677-.552 63.37-.598 95.045.028 30.743.608 61.448 2.45 92.173 3.675" transform="translate(185 149.428) translate(626.265)"/>
                </g>
            </g>
        </g>
    </g>
</svg>
