<svg xmlns="http://www.w3.org/2000/svg" width="765" height="802" viewBox="0 0 765 802">
    <defs>
        <linearGradient id="z2uwe4fl1a" x1="96.314%" x2="37.564%" y1="4.662%" y2="85.438%">
            <stop offset="0%" stop-color="#9697F5"/>
            <stop offset="0%" stop-color="#8A8BFF"/>
            <stop offset="44.354%" stop-color="#FFAC8B"/>
            <stop offset="100%" stop-color="#F083FF"/>
        </linearGradient>
    </defs>
    <g fill="none" fill-rule="evenodd">
        <g stroke="url(#z2uwe4fl1a)" stroke-width="7" transform="translate(0 -2181)">
            <g>
                <g>
                    <path d="M638.033 153.133c44.753-38.092 117.858-94.357 179-102 64-8 54.034 66.253 24.73 91.966-28.307 24.84-79.874 30.73-112.714 37.66-49.116 10.364-78.72 11.72-121.732 27.626-51.243 18.95-225.284 114.748-265.284 142.748-40 28-90 86-65 108s86 7 144 7 153.648 9.33 210.72 25.674c13.622 3.9 21.16 7.444 32.538 15.439 8.249 5.796 13.715 15.126 14.111 25.379 1.685 43.647-27.853 69.735-62.147 91.299-26.16 16.45-52.553 32.604-79.772 47.237-14.052 7.554-138.146 61.368-250.45 105.972-72.19 28.672-139.96 51.913-169 62C74.005 854.079 43.663 860.874 0 873.849" transform="translate(-104.033 2134) translate(0 .867)"/>
                </g>
            </g>
        </g>
    </g>
</svg>
