<svg xmlns="http://www.w3.org/2000/svg" xmlns:xlink="http://www.w3.org/1999/xlink" width="1600" height="1195" viewBox="0 0 1600 1195">
  <defs>
    <linearGradient id="linear-gradient" x1="0.496" y1="-6.722" x2="0.5" y2="9.109" gradientUnits="objectBoundingBox">
      <stop offset="0" stop-color="#d9edf5"/>
      <stop offset="0.311" stop-color="#b9dbeb"/>
      <stop offset="1" stop-color="#659dcb"/>
    </linearGradient>
    <linearGradient id="linear-gradient-2" x1="0.514" y1="-0.356" x2="0.514" y2="0.379" gradientUnits="objectBoundingBox">
      <stop offset="0" stop-color="#f9fdff"/>
      <stop offset="1" stop-color="#f1faff"/>
    </linearGradient>
    <linearGradient id="linear-gradient-3" x1="0.415" y1="-2.778" x2="0.735" y2="0.727" gradientUnits="objectBoundingBox">
      <stop offset="0" stop-color="#f9fdff"/>
      <stop offset="1" stop-color="#092443"/>
    </linearGradient>
    <linearGradient id="linear-gradient-4" x1="0.5" y1="-1.92" x2="0.5" y2="1" gradientUnits="objectBoundingBox">
      <stop offset="0" stop-color="#ffabab"/>
      <stop offset="1" stop-color="#e27692"/>
    </linearGradient>
    <linearGradient id="linear-gradient-5" x1="0.5" y1="-1.92" x2="0.5" y2="1" gradientUnits="objectBoundingBox">
      <stop offset="0" stop-color="#ff9898"/>
      <stop offset="1" stop-color="#e276ac"/>
    </linearGradient>
    <linearGradient id="linear-gradient-6" x1="0.591" y1="-15.978" x2="0.5" y2="7.121" gradientUnits="objectBoundingBox">
      <stop offset="0" stop-color="#f9fdff"/>
      <stop offset="1" stop-color="#e2b876"/>
    </linearGradient>
    <linearGradient id="linear-gradient-7" x1="0.598" y1="-0.744" x2="0.5" y2="1" gradientUnits="objectBoundingBox">
      <stop offset="0" stop-color="#f9fdff"/>
      <stop offset="1" stop-color="#a0722a"/>
    </linearGradient>
    <linearGradient id="linear-gradient-8" x1="0.591" y1="-1.933" x2="0.5" y2="1.477" gradientUnits="objectBoundingBox">
      <stop offset="0" stop-color="#f9fdff"/>
      <stop offset="1" stop-color="#8be276"/>
    </linearGradient>
    <linearGradient id="linear-gradient-9" x1="0.591" y1="-1.156" x2="0.9" y2="1.241" gradientUnits="objectBoundingBox">
      <stop offset="0" stop-color="#f9fdff"/>
      <stop offset="1" stop-color="#1a385a"/>
    </linearGradient>
    <clipPath id="clip-_18_Error">
      <rect width="1600" height="1195"/>
    </clipPath>
  </defs>
  <g id="_18_Error" data-name="18_Error" clip-path="url(#clip-_18_Error)">
    <rect width="1600" height="1195" fill="#fff"/>
    <g id="Bg" transform="translate(-399)">
      <rect id="Rectangle-13" width="1773" height="466" transform="translate(280 895)" fill="url(#linear-gradient)"/>
      <path id="Rectangle-13-Copy" d="M0,893H1773V0H0Z" transform="translate(280 2)" fill="url(#linear-gradient-2)"/>
      <path id="Path-2" d="M290.736,89.1q1257.6-137.911,1364.157-62.365C1761.454,102.282,425.1,132.978,546.5,177.889S1717.7,44.432,1717.7,133.616s-569.383,40.1-589.5,77.658,362.2,148.162,545.272,74.081S2175.922-4.409,2050.41,211.274s-613.527,320.66-882.392,325.265-286.98-352.025-499.179-301.6S209.35,322.27,313.871,392.251s474.377-106.064,526.145,0,116.687,276.462,369.2,248.47,361.057-143.26,546.991-41.933Q1942.14,700.113,2086,677.925q-305.5,227.141-368.3,178.494c-62.8-48.647-531.89-223.052-752.021-200.773S-53.782,991.552,2.866,606.3" fill="none" stroke="#fff" stroke-miterlimit="10" stroke-width="3"/>
      <path id="Path-6" d="M96.449,184.984c83.971,0,167.174,9.035,212.151,0S407,180.8,407,127.009s-85.234-21.981-110.638-9.587C240.016,144.912,296.947,0,190.869,0S129.488,117.423,102.93,117.423c-24.278,0-81.508-44.649-99.179-22.923q-17.671,21.726,47.922,85.94Q81.525,184.984,96.449,184.984Z" transform="translate(1719 369)" fill="#fff" stroke="#faeddb" stroke-miterlimit="10" stroke-width="1"/>
      <path id="Path-6-Copy" d="M96.449,184.984c83.971,0,167.174,9.035,212.151,0S407,180.8,407,127.009s-85.234-21.981-110.638-9.587C240.016,144.912,296.947,0,190.869,0S129.488,117.423,102.93,117.423c-24.278,0-81.508-44.649-99.179-22.923q-17.671,21.726,47.922,85.94Q81.525,184.984,96.449,184.984Z" transform="translate(187 463)" fill="#fff" stroke="#faeddb" stroke-miterlimit="10" stroke-width="1"/>
      <path id="Path-6-Copy-2" d="M86.079,120.387c66.022,0,151.756,5.88,187.12,0s154.8.13,154.8-34.879c0-6.085-31.978.955-45.2-9.09-16.039-12.186-29.387-34.671-50.727-36.061s-56.209,31.1-68.5,36.061C219.274,94.308,264.036,0,180.632,0s-48.261,76.418-69.142,76.418C92.4,76.418,54.04,61.5,33.51,61.5s-53.516,24.9-17.377,44.3S74.344,120.387,86.079,120.387Z" transform="translate(460 158)" fill="#fff" stroke="#faeddb" stroke-miterlimit="10" stroke-width="1"/>
      <g id="Sea-base" transform="translate(616 973)">
        <path id="Path" d="M14.488,26.154c5.426,1.81,13.558,3.557,24.017,5.152,21.14,3.225,50.98,5.719,85.517,7.118a4.275,4.275,0,1,1-.347,8.542c-34.828-1.412-64.966-3.93-86.461-7.209C12.222,35.945,0,31.868,0,24.121,0,14.9,19.382,9.979,57.955,5.837,92.558,2.122,139.275,0,189.1,0a4.275,4.275,0,1,1,0,8.549c-49.544,0-95.963,2.108-130.236,5.788-16.664,1.789-29.959,3.9-39.014,6.2a48.15,48.15,0,0,0-9.834,3.367q-.209.11-.4.215A28.615,28.615,0,0,0,14.488,26.154Z" transform="translate(695.319 124.984)" fill="#9fcfff"/>
        <path id="Shape" d="M44.325,82.364A5.232,5.232,0,1,1,46.895,72.22C115.415,89.555,261.8,100.9,425.256,100.9a5.232,5.232,0,1,1,0,10.464C261,111.363,113.888,99.963,44.325,82.364Zm450.2,23.089a5.233,5.233,0,0,1,5.121-5.342c96.385-2.073,183.1-8.149,245.8-17.06,30.911-4.393,55.294-9.382,71.864-14.717,8.177-2.633,14.33-5.315,18.292-7.934a15.338,15.338,0,0,0,3.771-3.263,2.629,2.629,0,0,0,.671-1.455c0-.487-.359-1.226-1.384-2.278a27.291,27.291,0,0,0-7.016-4.712c-6.876-3.493-17.3-6.958-30.935-10.269a5.232,5.232,0,1,1,2.47-10.168c31.082,7.546,47.335,15.8,47.335,27.428,0,16.543-35.937,28.114-103.595,37.729-63.159,8.975-150.272,15.079-247.044,17.16h-.115A5.234,5.234,0,0,1,494.529,105.452ZM0,55.681C0,40.748,28.366,30.3,82.5,21.209,120.146,14.886,169.377,9.674,226.24,6a5.232,5.232,0,1,1,.675,10.442C170.381,20.1,121.49,25.271,84.236,31.528c-24.531,4.12-43.666,8.653-56.57,13.405-6.305,2.322-11.009,4.658-13.995,6.9-2.326,1.746-3.2,3.067-3.2,3.847a5.235,5.235,0,0,1-10.47,0ZM711.572,24.034C648.716,16.97,569.227,12.366,483.088,10.939q-28.575-.474-57.831-.475a5.232,5.232,0,1,1,0-10.463q29.3,0,58.005.476c86.453,1.433,166.268,6.056,229.481,13.16a5.232,5.232,0,0,1-.578,10.431A5.29,5.29,0,0,1,711.572,24.034Z" transform="translate(0 0.797)" fill="#d5ebf4"/>
        <path id="Shape-2" data-name="Shape" d="M142.271,54.037a4.274,4.274,0,1,1,.4-8.539c32.477,1.532,68.146,2.338,104.985,2.338a4.275,4.275,0,1,1,0,8.549C210.688,56.385,174.885,55.575,142.271,54.037Zm269.411-8.165a4.275,4.275,0,0,1,3.857-4.657c23.136-2.176,41.674-4.779,54.366-7.638a74.306,74.306,0,0,0,14.1-4.3A16.251,16.251,0,0,0,486,28.193a21.048,21.048,0,0,0-3.685-1.805c-4.331-1.715-10.918-3.42-19.527-5.042-17.3-3.258-42.272-6.1-72.728-8.267a4.275,4.275,0,1,1,.608-8.528c30.755,2.192,56.03,5.063,73.7,8.392,20.756,3.91,30.949,7.946,30.949,15.249,0,6.525-7.866,10.2-23.532,13.724-13.11,2.954-31.978,5.6-55.445,7.811-.136.013-.272.019-.406.019A4.276,4.276,0,0,1,411.682,45.872ZM71.5,48.993c-11.807-1.21-22.319-2.541-31.352-3.968C13.149,40.757,0,36.3,0,28.193a4.277,4.277,0,0,1,8.509-.623,5.324,5.324,0,0,0,.648.511,26.3,26.3,0,0,0,6.079,2.732c5.909,2,14.776,3.955,26.248,5.768,8.869,1.4,19.229,2.713,30.89,3.908a4.275,4.275,0,0,1-.432,8.528A4.323,4.323,0,0,1,71.5,48.993ZM97.271,9.379a4.276,4.276,0,0,1,3.95-4.578C143.159,1.7,194.1,0,247.659,0a4.275,4.275,0,1,1,0,8.549c-53.356,0-104.089,1.695-145.807,4.777q-.161.012-.319.012A4.276,4.276,0,0,1,97.271,9.379Z" transform="translate(211.101 36.437)" fill="#d5ebf4"/>
        <path id="Sea-base-Copy-2" d="M33.563,67.295a4.31,4.31,0,0,1-2.87-5.193,3.952,3.952,0,0,1,4.815-3.1C87.391,73.172,198.234,82.44,322,82.44a4.287,4.287,0,0,1,0,8.549C197.627,90.989,86.234,81.675,33.563,67.295ZM374.45,86.16a4.144,4.144,0,0,1,3.877-4.365C451.308,80.1,516.964,75.137,564.44,67.856c23.405-3.589,41.868-7.666,54.414-12.025,6.192-2.151,10.85-4.342,13.851-6.482a11.917,11.917,0,0,0,2.855-2.667,2.232,2.232,0,0,0,.508-1.188,3.223,3.223,0,0,0-1.049-1.862,20.663,20.663,0,0,0-5.313-3.85c-5.206-2.853-13.1-5.684-23.423-8.39a4.3,4.3,0,0,1-2.916-5.163,3.958,3.958,0,0,1,4.787-3.145c23.534,6.165,35.841,12.91,35.841,22.41,0,13.516-27.211,22.97-78.439,30.826C517.732,83.653,451.771,88.642,378.5,90.342h-.086A4.12,4.12,0,0,1,374.45,86.16ZM0,45.5c0-12.2,21.479-20.737,62.468-28.166C90.973,12.163,128.249,7.9,171.305,4.9a4.079,4.079,0,0,1,4.211,3.99,4.176,4.176,0,0,1-3.7,4.541C129.01,16.419,91.991,20.648,63.782,25.76c-18.574,3.367-33.063,7.07-42.834,10.953a42.144,42.144,0,0,0-10.6,5.639C8.59,43.778,7.927,44.858,7.927,45.5a4.128,4.128,0,0,1-3.964,4.274A4.128,4.128,0,0,1,0,45.5ZM538.791,19.637C491.2,13.865,431.009,10.1,365.786,8.937Q344.148,8.551,322,8.549a4.128,4.128,0,0,1-3.964-4.274A4.128,4.128,0,0,1,322,0q22.183,0,43.92.39c65.461,1.17,125.9,4.947,173.759,10.751a4.213,4.213,0,0,1,3.5,4.726,4.087,4.087,0,0,1-3.935,3.8A3.714,3.714,0,0,1,538.791,19.637Z" transform="translate(562.936 110.101)" fill="#d4ebf4"/>
        <path id="Sea-base-Copy" d="M127.651,54.159A4.131,4.131,0,0,1,124,49.677a4.028,4.028,0,0,1,4.015-4.077c29.138,1.535,61.142,2.344,94.195,2.344a4.31,4.31,0,0,1,0,8.568C189.037,56.512,156.913,55.7,127.651,54.159Zm241.726-8.184a4.181,4.181,0,0,1,3.46-4.667c20.759-2.182,37.391-4.791,48.779-7.656a61.677,61.677,0,0,0,12.651-4.314,14.076,14.076,0,0,0,1.786-1.083,18.2,18.2,0,0,0-3.306-1.81c-3.885-1.719-9.8-3.428-17.52-5.054-15.52-3.265-37.929-6.11-65.254-8.284a4.157,4.157,0,0,1-3.555-4.578,4,4,0,0,1,4.1-3.969c27.594,2.2,50.272,5.075,66.129,8.411,18.623,3.919,27.769,7.965,27.769,15.284,0,6.539-7.058,10.218-21.114,13.755-11.763,2.961-28.691,5.616-49.747,7.829a3.485,3.485,0,0,1-.364.019A4.028,4.028,0,0,1,369.376,45.976ZM64.152,49.1c-10.594-1.213-20.026-2.546-28.13-3.977C11.8,40.849,0,36.379,0,28.256a4.08,4.08,0,0,1,3.838-4.285,4,4,0,0,1,3.8,3.66,4.793,4.793,0,0,0,.581.512,22.494,22.494,0,0,0,5.454,2.738c5.3,2.01,13.258,3.964,23.551,5.782,7.957,1.4,17.252,2.718,27.715,3.917a4.19,4.19,0,0,1,3.425,4.7,4.025,4.025,0,0,1-3.813,3.848A3.474,3.474,0,0,1,64.152,49.1ZM87.275,9.4a4.16,4.16,0,0,1,3.544-4.588C128.448,1.706,174.155,0,222.208,0a4.079,4.079,0,0,1,3.838,4.284,4.08,4.08,0,0,1-3.838,4.285c-47.872,0-93.392,1.7-130.823,4.788q-.144.012-.286.012A4.041,4.041,0,0,1,87.275,9.4Z" transform="translate(656.646 125.195)" fill="#cbe6f1"/>
      </g>
      <g id="Head" transform="translate(644 579)">
        <path id="Face-base" d="M48.82,204.98a10.377,10.377,0,0,1-3.849.619C31.308,205.6,0,189.348,0,171.175s11.077-32.907,24.74-32.907a18.894,18.894,0,0,1,2.117.119,119.439,119.439,0,0,1-2.117-21.231C24.74,52.453,78.014,0,143.731,0S262.722,52.453,262.722,117.156c0,26.412-10.085,60.813-21.434,93.983-5.244,15.326-180.234,20.843-186.4,7.427Q51.784,211.815,48.82,204.98Z" transform="translate(237.201 240.835)" fill="#ffaa83"/>
        <path id="Hair" d="M22,221.165,4.5,218.3a5.371,5.371,0,0,1,1.733-10.6l6.609,1.081-6.188-3.549A5.371,5.371,0,0,1,12,195.913l9.964,5.716q.322-1.9.793-3.748c9.931-38.775,19.539-50.544,57.727-43.524C108.766,3.841,204.194-1.166,245.868,64.508c25.082-52.425,57.455-59.4,84.852-49.265l3.363-11.392a5.371,5.371,0,1,1,10.3,3.042L340.6,19.719a99.265,99.265,0,0,1,16.1,10.891L380.046,4.984a5.371,5.371,0,1,1,7.939,7.236L364.657,37.826l.331.331,18.917-11.54a5.371,5.371,0,0,1,5.593,9.172L372.334,46.259a92.011,92.011,0,0,1,9.791,14.3c88.692-35.306,143.756,31.2,42.24,102.548,20.153,50.926-42.24,81.985-69.074,73.627,9.248,46.423-24.912,79.7-44.986,85.016,2.854-8.262,6.987-31.226,6.987-45.955-13.017-24.211-20.066-30.444-24.6-61.762-17.355,18.367-54.327,30.679-87.9,44.138-14.944,5.991-67.168,11.824-87.764-6.587,0,24.362,5.445,48.536-3.223,85-12.155,7.361-15.887-36.464-25.719-42.615-11.57-7.239-21.406,6.7-27.116,10.466C55.439,296.4,27.063,256.6,22,221.165Z" transform="translate(180.991 88.021)" fill="url(#linear-gradient-3)"/>
        <path id="Face-base-2" data-name="Face-base" d="M6.721,0H36.048a6.722,6.722,0,0,1,6.721,6.724h0a6.722,6.722,0,0,1-6.721,6.724H6.721A6.722,6.722,0,0,1,0,6.724H0A6.722,6.722,0,0,1,6.721,0Z" transform="translate(312.963 364.309)" fill="#253238"/>
        <path id="Face-base-3" data-name="Face-base" d="M6.721,0H36.048a6.722,6.722,0,0,1,6.721,6.724h0a6.722,6.722,0,0,1-6.721,6.724H6.721A6.722,6.722,0,0,1,0,6.724H0A6.722,6.722,0,0,1,6.721,0Z" transform="translate(414.386 355.751)" fill="#253238"/>
        <path id="Face-base-4" data-name="Face-base" d="M6.721,0h0a6.722,6.722,0,0,1,6.721,6.724v8.558a6.722,6.722,0,0,1-6.721,6.724h0A6.722,6.722,0,0,1,0,15.281V6.724A6.722,6.722,0,0,1,6.721,0Z" transform="translate(338.624 391.204)" fill="#1c2229"/>
        <path id="Face-base-5" data-name="Face-base" d="M6.721,0h0a6.722,6.722,0,0,1,6.721,6.724v8.558a6.722,6.722,0,0,1-6.721,6.724h0A6.722,6.722,0,0,1,0,15.281V6.724A6.722,6.722,0,0,1,6.721,0Z" transform="translate(431.493 393.649)" fill="#1c2229"/>
        <path id="Face-base-6" data-name="Face-base" d="M25.27,58.58C14.8,51.517,12.828,33.588,17.618,4.513A5.348,5.348,0,1,1,28.167,6.284C24.043,31.312,25.64,45.846,31.21,49.6c7.216,4.867,13.382,7.206,18.422,7.206a5.4,5.4,0,0,1,4.327,8.569C46.266,76.079,38.374,83.065,30.121,86.2a33.3,33.3,0,0,1-21.414.112c-8.938-3.267-11.992-11.522-4.4-18.825a5.311,5.311,0,0,1,7.559.185,5.435,5.435,0,0,1-.183,7.632q-.224.216-.394.4a9.14,9.14,0,0,0,1.057.457,22.838,22.838,0,0,0,14.012-.067c4.308-1.634,8.8-5,13.422-10.136A58.279,58.279,0,0,1,25.27,58.58Z" transform="translate(372.839 371.644)" fill="#ed5738"/>
        <path id="Face-base-7" data-name="Face-base" d="M13.767.714a5.543,5.543,0,0,1,7.5,2.022,5.384,5.384,0,0,1-2.051,7.4c-10,5.63-10.692,9.945-3.04,17.205a5.372,5.372,0,0,1,.15,7.67,5.556,5.556,0,0,1-7.778.148C-4.525,22.752-2.464,9.85,13.767.714Z" transform="translate(246.977 389.982)" fill="#ed5738"/>
        <path id="question-mark" d="M100.462,182.463q-7.189-2.2-10.789-10.335a17.93,17.93,0,0,1-.365-14.382,18.585,18.585,0,0,1,10.124-10.431,18.281,18.281,0,0,1,24.534,9.466q3.55,8.016.453,14.891a18.985,18.985,0,0,1-9.82,9.883,19.529,19.529,0,0,1-14.137.907Zm-18.593-44.44q-5.77-2.083-9.168-9.756a44.657,44.657,0,0,1-2.035-33.874,198.882,198.882,0,0,1,7.61-18.568q4.451-9.677,6.252-14.394a36.1,36.1,0,0,0,2.248-9.719,19.352,19.352,0,0,0-1.633-9.7A22.082,22.082,0,0,0,71.516,29.588q-9.569-3.264-20.279,1.528Q38.7,36.726,35.6,45.733t-1.733,23.21Q35.721,83.617,24.9,88.46a15.746,15.746,0,0,1-12.77.3Q5.737,86.194,3.4,80.927-1.416,70.047.589,55.772T12.677,28.2Q22.76,14.908,40.533,6.953,57.055-.439,72.414.028T99.335,7.946a44.669,44.669,0,0,1,17.038,19.819A38.947,38.947,0,0,1,120,46.587a57.411,57.411,0,0,1-3.738,16.835q-3.054,7.746-11.487,26.615a87.276,87.276,0,0,0-3.445,9.02,27.872,27.872,0,0,0-1.293,6.48,26.57,26.57,0,0,0,.212,5.256q.362,2.514,1.595,8.686,3.11,12.879-8.283,17.977a16.026,16.026,0,0,1-6.587,1.485A14.933,14.933,0,0,1,81.868,138.023Z" transform="translate(102.785 0)" fill="url(#linear-gradient-4)"/>
        <path id="question-mark-copy" d="M70.537,128.484q-5.116-1.574-7.681-7.378a12.835,12.835,0,0,1-.259-10.267,13.249,13.249,0,0,1,7.208-7.447,12.693,12.693,0,0,1,10.15-.343,12.831,12.831,0,0,1,7.316,7.1q2.529,5.724.322,10.632a13.532,13.532,0,0,1-6.991,7.055,13.868,13.868,0,0,1-10.065.648ZM57.786,97.649q-4.072-1.474-6.471-6.9a31.665,31.665,0,0,1-1.437-23.964,140.947,140.947,0,0,1,5.373-13.137q3.141-6.846,4.413-10.183a25.584,25.584,0,0,0,1.587-6.876A13.716,13.716,0,0,0,60.1,29.725a15.6,15.6,0,0,0-9.618-8.792q-6.755-2.308-14.314,1.082-8.847,3.968-11.041,10.34T23.9,48.776q1.311,10.382-6.329,13.809a11.089,11.089,0,0,1-9.014.208A10.663,10.663,0,0,1,2.4,57.254q-3.4-7.7-1.986-17.8A41.815,41.815,0,0,1,8.948,19.952Q16.065,10.547,28.61,4.919a50.992,50.992,0,0,1,22.5-4.9,36.345,36.345,0,0,1,19,5.6A31.587,31.587,0,0,1,82.141,19.643,27.615,27.615,0,0,1,84.7,32.959a40.715,40.715,0,0,1-2.638,11.911q-2.156,5.481-8.108,18.83a61.929,61.929,0,0,0-2.432,6.382,19.722,19.722,0,0,0-.913,4.584,18.789,18.789,0,0,0,.149,3.719q.256,1.778,1.126,6.145,2.2,9.111-5.846,12.718A11.288,11.288,0,0,1,61.39,98.3,10.519,10.519,0,0,1,57.786,97.649Z" transform="translate(0.121 164.448) rotate(-42)" fill="url(#linear-gradient-5)"/>
      </g>
      <path id="Sea-base-2" data-name="Sea-base" d="M21,10A10.259,10.259,0,0,0,10.5,0,10.259,10.259,0,0,0,0,10" transform="translate(1141 1030)" fill="#badceb" stroke="#d3eaf4" stroke-linecap="round" stroke-linejoin="round" stroke-miterlimit="10" stroke-width="6.4"/>
      <path id="Sea-base-3" data-name="Sea-base" d="M26,13A13,13,0,0,0,0,13" transform="translate(1077 1033)" fill="#badceb" stroke="#d3eaf4" stroke-linecap="round" stroke-linejoin="round" stroke-miterlimit="10" stroke-width="6.4"/>
      <path id="Sea-base-4" data-name="Sea-base" d="M36,19C36,8.507,27.941,0,18,0S0,8.507,0,19" transform="translate(1098 1032)" fill="#badceb" stroke="#d3eaf4" stroke-linecap="round" stroke-linejoin="round" stroke-miterlimit="10" stroke-width="6.4"/>
      <path id="Sea-base-5" data-name="Sea-base" d="M21,10A10.259,10.259,0,0,0,10.5,0,10.259,10.259,0,0,0,0,10" transform="translate(1089 1055)" fill="#badceb" stroke="#d3eaf4" stroke-linecap="round" stroke-linejoin="round" stroke-miterlimit="10" stroke-width="6.4"/>
      <g id="Island" transform="translate(1594 597)">
        <path id="Island-base" d="M0,74.824a208.828,208.828,0,0,1,320.325,0Q207.068,87.969,155.01,87.969,100.293,87.969,0,74.824Z" transform="translate(25.675 231.031)" fill="url(#linear-gradient-6)"/>
        <path id="Coconut-tree" d="M106.943,89.484q-9.858,13.7-6.759,26.371c5.143,21.039-6,81.637-28.08,21.924Q53.918,88.594,101.983,75.1,64.409,77.915,54.456,94.257C42.433,114-19.806,154.9,6.362,94.257q24.68-57.19,102.832-24.067Q84.73,39.778,65.223,41.031c-23.08,1.482-92.3-26.01-27.586-39.369Q97.405-10.677,115.6,68.632,134.221-7.415,192.836,4.685c64.716,13.36-4.506,40.851-27.586,39.369Q146.39,42.844,122.9,71.233l.682-.073q51.714-40.569,89.928-1.475c46.177,47.24-26.595,31.349-44.9,17.224q-12.4-9.57-38.826-4.054,50.093,36.522,65.311,150.309-14.1,7.638-26.169,0c5.731-60.248-33.588-119.731-52.326-146.887q-4.654,1.419-9.652,3.207Z" transform="translate(0 0.026)" fill="url(#linear-gradient-7)"/>
        <path id="Coconut-tree-Copy" d="M106.943,89.484q-9.858,13.7-6.759,26.371c5.143,21.039-6,81.637-28.08,21.924Q53.918,88.594,101.983,75.1,64.409,77.915,54.456,94.257C42.433,114-19.806,154.9,6.362,94.257q24.68-57.19,102.832-24.067Q84.73,39.778,65.223,41.031c-23.08,1.482-92.3-26.01-27.586-39.369Q97.405-10.677,115.6,68.632,134.221-7.415,192.836,4.685c64.716,13.36-4.506,40.851-27.586,39.369Q146.39,42.844,122.9,71.233l.682-.073q51.714-40.569,89.928-1.475c46.177,47.24-26.595,31.349-44.9,17.224q-17.255-13.316-61.662,2.576Z" transform="translate(0 0.026)" fill="url(#linear-gradient-8)"/>
      </g>
      <g id="Shark-" transform="translate(1360 893)">
        <path id="Shark-base" d="M246.037,0c55.8,0,39.941,164.326,23.825,229.291C232.183,252.9,15.8,252.9.458,229.291-10.846,164.326,190.241,0,246.037,0Z" transform="translate(0)" fill="url(#linear-gradient-9)"/>
        <path id="Shark-base-2" data-name="Shark-base" d="M1.472,55.989a5.024,5.024,0,0,1,.013-7.12c3.787-3.761,6.219-6.135,11.439-11.2a5.042,5.042,0,1,1,7.042,7.216c-5.192,5.036-7.6,7.39-11.353,11.115a5.061,5.061,0,0,1-7.142-.014ZM30.587,28.049a5.023,5.023,0,0,1,.685-7.087Q48.629,6.7,61.22.517a5.037,5.037,0,1,1,4.454,9.036Q54.258,15.145,37.7,28.731a5.061,5.061,0,0,1-7.109-.682Z" transform="translate(110.086 59.916)" fill="#fff"/>
      </g>
    </g>
  </g>
</svg>
