<?xml version="1.0" encoding="utf-8"?>
<svg width="50px" height="45px" viewBox="0 0 50 45" version="1.1" xmlns:xlink="http://www.w3.org/1999/xlink" xmlns="http://www.w3.org/2000/svg">
  <path d="M1.24954 16.8469C2.20925 15.1654 2.89544 13.3115 3.54728 11.4777C4.18669 9.67816 5.27902 8.39309 6.82723 7.2508C9.33396 5.40167 11.9159 3.79799 14.7364 2.42442C16.9459 1.3494 19.2437 1.09333 21.5077 0.638423C24.4105 0.0566606 27.4116 0.0194892 30.3884 0.000608447C31.7217 -0.00765187 32.9513 0.223637 34.1911 0.771768C35.2515 1.24084 36.4474 1.55886 37.6031 1.63084C40.4591 1.80903 42.4881 3.19853 44.102 5.44416C45.691 7.65497 47.289 9.86873 49.0385 11.9509C49.8958 12.9711 50.0402 14.0272 49.9917 15.2126C49.9277 16.7661 49.7152 18.3232 49.7785 19.8696C49.8715 22.1318 49.1302 24.2322 48.5382 26.3186C47.9503 28.3907 47.7153 30.7101 45.9409 32.3067C46.0551 34.6396 44.25 35.5908 42.7515 36.8044C41.9475 37.4552 41.3004 38.2954 40.5692 39.0377C38.8931 40.7393 36.8902 41.8692 34.5594 42.4161C32.5517 42.887 30.9775 44.4718 28.807 44.565C26.7266 44.6553 24.6538 44.9108 22.5739 44.9975C21.9558 45.0235 21.2572 44.8459 20.7108 44.5497C19.4136 43.8458 18.0661 43.4705 16.5948 43.3926C14.2551 43.2693 12.7406 41.3488 10.6773 40.5912C10.0853 40.3741 9.61045 39.8525 9.05984 39.5056C7.85621 38.7492 6.2855 38.2718 5.50815 37.2116C4.3128 35.5813 3.64083 33.5652 2.78591 31.6943C2.57277 31.2281 2.65625 30.5673 2.35075 30.2139C1.26731 28.9636 1.05772 27.3706 0.620789 25.9073C0.219381 24.5662 0.272073 23.0905 0.0370298 20.8237C-0.145913 19.908 0.363248 18.3987 1.24954 16.8469Z" id="Fill-27" fill="#477DBB" fill-rule="evenodd" stroke="none" />
</svg>