<?xml version="1.0" encoding="utf-8"?>
<svg width="58px" height="59px" viewBox="0 0 58 59" version="1.1" xmlns:xlink="http://www.w3.org/1999/xlink" xmlns="http://www.w3.org/2000/svg">
  <path d="M0.0325862 18.047C-0.128403 17.2534 0.319658 15.9453 1.0996 14.6005C1.94414 13.1431 2.54799 11.5364 3.12161 9.94711C3.68429 8.38747 4.64554 7.27373 6.00796 6.28374C8.21389 4.68115 10.486 3.29128 12.968 2.10084C14.9124 1.16915 16.9344 0.947219 18.9267 0.552962C21.4812 0.0487638 24.1222 0.0165482 26.7418 0.000184805C27.9151 -0.0069742 28.9972 0.193478 30.0882 0.668529C31.0213 1.07506 32.0737 1.35068 33.0907 1.41307C35.604 1.56749 37.3895 2.77174 38.8097 4.71797C40.2081 6.63402 41.6143 8.55264 43.1539 10.3572C43.9083 11.2414 44.0354 12.1567 43.9927 13.184C43.9364 14.5304 43.7494 15.8799 43.8051 17.2201C43.8869 19.1807 43.2346 21.0011 42.7136 22.8093C42.1963 24.6052 41.9894 26.6153 40.428 27.999C40.5285 30.021 38.94 30.8453 37.6213 31.8971C36.9138 32.4611 36.3444 33.1893 35.7009 33.8326C34.226 35.3074 32.4634 36.2866 30.4122 36.7606C28.6455 37.1687 27.2602 38.5422 25.3502 38.623C23.5194 38.7012 21.6953 38.9227 19.8651 38.9978C19.3211 39.0203 18.7064 38.8664 18.2255 38.6097C17.084 37.9997 15.8981 37.6744 14.6035 37.6069C12.5445 37.5001 11.2117 35.8356 9.39604 35.179C8.87504 34.9908 8.45719 34.5388 7.97266 34.2381C6.91346 33.5826 5.53124 33.1689 4.84717 32.25C3.79526 30.8371 3.20393 29.0898 2.4516 27.4683C2.26404 27.0643 2.3375 26.4916 2.06866 26.1853C1.11523 25.1017 0.930794 23.721 0.546294 22.4529C0.193055 21.2905 0.239424 20.0116 0.0325862 18.047" transform="matrix(0.57357645 -0.81915206 0.81915206 0.57357645 0 36.042725)" id="Fill-27" fill="#FFCD2F" fill-rule="evenodd" stroke="none" />
</svg>