<?xml version="1.0" encoding="utf-8"?>
<svg width="135px" height="123px" viewBox="0 0 135 123" version="1.1" xmlns:xlink="http://www.w3.org/1999/xlink" xmlns="http://www.w3.org/2000/svg">
  <path d="M0.0999805 56.9175C-0.393965 54.4145 0.98077 50.2891 3.37377 46.0476C5.96499 41.4513 7.81768 36.384 9.57766 31.3716C11.3041 26.4528 14.2534 22.9402 18.4335 19.818C25.2017 14.7636 32.1729 10.3802 39.7883 6.62573C45.754 3.68731 51.9579 2.98738 58.0707 1.74396C65.9082 0.153793 74.0112 0.0521906 82.0486 0.000582846C85.6485 -0.0219955 88.9686 0.610199 92.316 2.10844C95.1789 3.39057 98.408 4.25984 101.528 4.45659C109.24 4.94364 114.718 8.74165 119.075 14.8797C123.366 20.9227 127.68 26.9737 132.404 32.6651C134.719 35.4535 135.109 38.3403 134.978 41.5803C134.805 45.8267 134.231 50.0827 134.402 54.3097C134.653 60.4929 132.652 66.2343 131.053 71.937C129.466 77.6009 128.831 83.9406 124.04 88.3047C124.349 94.6815 119.475 97.2812 115.429 100.599C113.258 102.377 111.511 104.674 109.537 106.703C105.011 111.354 99.6037 114.442 93.3102 115.937C87.8896 117.224 83.6391 121.556 77.7789 121.811C72.1617 122.058 66.5653 122.756 60.9496 122.993C59.2808 123.064 57.3945 122.579 55.919 121.769C52.4167 119.845 48.7784 118.819 44.8061 118.606C38.4887 118.269 34.3996 113.02 28.8288 110.949C27.2302 110.356 25.9482 108.93 24.4616 107.982C21.2118 105.914 16.9709 104.61 14.872 101.711C11.6446 97.2554 9.83023 91.7447 7.52195 86.6307C6.94648 85.3566 7.17188 83.5503 6.34703 82.5843C3.42173 79.1669 2.85585 74.8125 1.67613 70.8129C0.592328 67.1471 0.734597 63.1136 0.0999805 56.9175" id="Fill-27" fill="#309255" fill-rule="evenodd" stroke="none" />
</svg>