<?xml version="1.0" encoding="utf-8"?>
<svg width="377px" height="142px" viewBox="0 0 377 142" version="1.1" xmlns:xlink="http://www.w3.org/1999/xlink" xmlns="http://www.w3.org/2000/svg">
  <g id="Shape" transform="matrix(0.99939084 0.034899496 -0.034899496 0.99939084 4.501953 0)">
    <path d="M21.8608 53.8514C-0.40603 70.2254 -11.3794 93.5538 17.0708 109.746C41.6235 123.724 83.0881 127.107 116.739 128.503C150.521 129.908 184.368 128.219 217.612 124.881C273.834 119.241 377.524 104.274 371.77 63.4841C368.471 40.1067 331.386 18.0787 294.471 8.02614C249.99 -4.08648 198.335 -0.760888 152.344 6.66232C105.652 14.1961 61.5819 27.5046 33.4217 49.6575C10.6351 67.5838 -6.44252 96.22 24.4855 114.314C51.8098 130.301 101.691 129.857 137.921 126.767C181.815 123.021 225.505 117.959 266.936 109.045C304.943 100.864 344.954 88.3524 362.74 67.3319C375.374 52.3934 373.002 36.4698 348.095 26.1429C322.574 15.5579 286.088 13.2316 255.107 12.0296C221.046 10.7087 187.889 11.8739 154.426 15.3367C146.432 16.1661 138.429 16.9893 130.427 17.7838C126.857 18.1401 128.382 21.0889 131.919 20.7347C154.204 18.5169 176.234 15.7278 198.877 14.9804C214.78 14.4582 230.747 14.4357 246.665 14.8227C279.717 15.6296 317.683 17.9108 345.256 28.7825C378.383 41.8493 363.689 65.7592 340.948 79.8357C309.903 99.0562 260.361 108.345 216.347 114.89C174.592 121.098 127.976 127.117 84.5153 124.823C63.4573 123.711 41.7025 119.901 26.9935 111.294C10.0025 101.354 11.6293 86.833 17.7901 74.6835C32.9058 44.9046 79.1981 24.9244 130.081 14.0343C179.036 3.56198 236.388 -2.13904 286.416 9.36129C311.345 15.0889 331.465 25.3033 346.574 37.3504C358.598 46.9442 367.801 58.1005 366.174 69.9306C363.395 90.1483 325.169 102.38 294.693 109.561C259.088 117.947 219.841 122.409 181.412 124.746C145.554 126.924 108.375 126.476 73.2256 121.832C53.6174 119.237 33.8472 114.869 19.6805 106.807C3.81161 97.7722 2.63293 84.8589 9.12884 73.4486C17.8126 58.2009 39.718 45.4493 61.951 35.5708C83.958 25.7906 111.508 17.4746 140.173 15.8937C143.747 15.6971 143.781 12.6377 140.173 12.8364C93.1351 15.4289 49.2039 33.7422 21.8608 53.8514Z" transform="translate(0 -0.00048828125)" id="Fill-4" fill="#1BACB0" fill-rule="evenodd" stroke="none" />
  </g>
</svg>