<?xml version="1.0" encoding="utf-8"?>
<svg width="243px" height="125px" viewBox="0 0 243 125" version="1.1" xmlns:xlink="http://www.w3.org/1999/xlink" xmlns="http://www.w3.org/2000/svg">
  <g id="Shape" transform="matrix(0.99026805 0.1391731 -0.1391731 0.99026805 12.942871 0)">
    <path d="M87.0429 9.15463C57.8339 11.0035 30.554 24.0642 13.5749 38.4056C-0.252131 50.0833 -7.06625 66.7205 10.6004 78.2682C25.8468 88.2371 51.595 90.6497 72.491 91.6457C93.4689 92.6476 114.486 91.4427 135.13 89.0622C170.042 85.0402 234.43 74.3659 230.857 45.2755C228.809 28.6032 205.78 12.8933 182.857 5.72407C155.236 -2.91439 123.16 -0.542649 94.6007 4.75142C65.6068 10.1244 38.2404 19.6157 20.7538 35.4147C6.60408 48.1993 -4.0006 68.622 15.2047 81.5264C32.1722 92.928 63.1468 92.6111 85.6446 90.4073C112.901 87.7362 140.031 84.126 165.758 77.7687C189.36 71.9343 214.205 63.011 225.25 48.0197C233.095 37.3658 231.622 26.0095 216.156 18.6445C200.308 11.0955 177.652 9.43649 158.413 8.57922C137.263 7.63724 116.673 8.46822 95.8938 10.9378C90.9294 11.5293 85.9603 12.1164 80.9911 12.683C78.7743 12.9371 79.7214 15.0402 81.9171 14.7875C95.7558 13.2059 109.436 11.2168 123.496 10.6837C133.371 10.3113 143.286 10.2952 153.171 10.5712C173.695 11.1467 197.271 12.7736 214.393 20.527C234.964 29.846 225.839 46.8981 211.717 56.9371C192.44 70.6447 161.676 77.2692 134.344 81.9368C108.416 86.3648 79.4688 90.657 52.4813 89.0213C39.4049 88.2283 25.8959 85.5105 16.7621 79.3722C6.21122 72.2833 7.22142 61.9274 11.0471 53.2626C20.4334 32.025 49.1794 17.7756 80.776 10.009C111.175 2.54033 146.789 -1.52552 177.855 6.67627C193.335 10.7611 205.829 18.0457 215.211 26.6375C222.678 33.4796 228.393 41.436 227.382 49.873C225.657 64.2918 201.92 73.015 182.995 78.1367C160.885 84.1172 136.514 87.2995 112.651 88.9658C90.3845 90.5197 67.2974 90.1999 45.4707 86.8876C33.2947 85.0373 21.018 81.9222 12.2209 76.1724C2.36688 69.729 1.63496 60.5195 5.66871 52.382C11.0611 41.5076 24.6636 32.4135 38.4695 25.3684C52.1352 18.3933 69.243 12.4625 87.0429 11.3351C89.2621 11.1949 89.2831 9.01297 87.0429 9.15463" transform="translate(0.07540571 0.6671432)" id="Fill-4" fill="#1BACB0" fill-rule="evenodd" stroke="none" />
  </g>
</svg>