<?xml version="1.0" encoding="utf-8"?>
<svg width="257px" height="92px" viewBox="0 0 257 92" version="1.1" xmlns:xlink="http://www.w3.org/1999/xlink" xmlns="http://www.w3.org/2000/svg">
  <g id="Shape">
    <path d="M15.1028 38.4056C-0.28051 50.0833 -7.86158 66.7205 11.7935 78.2682C28.756 88.2371 57.4023 90.6497 80.6502 91.6457C103.989 92.6476 127.372 91.4427 150.339 89.0622C189.181 85.0402 260.816 74.3659 256.841 45.2755C254.562 28.6032 228.942 12.8933 203.438 5.72407C172.708 -2.91439 137.022 -0.542649 105.248 4.75142C72.9911 10.1244 42.5445 19.6157 23.0897 35.4147C7.34739 48.1993 -4.45088 68.622 16.9161 81.5264C35.7933 92.928 70.2542 92.6111 95.2842 90.4073C125.609 87.7362 155.792 84.126 184.415 77.7687C210.673 71.9343 238.315 63.011 250.603 48.0197C259.331 37.3658 257.692 26.0095 240.485 18.6445C222.854 11.0955 197.647 9.43649 176.244 8.57922C152.712 7.63724 129.805 8.46822 106.687 10.9378C101.164 11.5293 95.6354 12.1164 90.107 12.683C87.6407 12.9371 88.6944 15.0402 91.1373 14.7875C106.534 13.2059 121.753 11.2168 137.396 10.6837C148.383 10.3113 159.414 10.2952 170.411 10.5712C193.245 11.1467 219.474 12.7736 238.523 20.527C261.41 29.846 251.258 46.8981 235.547 56.9371C214.099 70.6447 179.873 77.2692 149.465 81.9368C120.619 86.3648 88.4134 90.657 58.3883 89.0213C43.8401 88.2283 28.8106 85.5105 18.6488 79.3722C6.91032 72.2833 8.03422 61.9274 12.2904 53.2626C22.7333 32.025 54.7148 17.7756 89.8677 10.009C123.689 2.54033 163.311 -1.52552 197.873 6.67627C215.096 10.7611 228.996 18.0457 239.434 26.6375C247.741 33.4796 254.099 41.436 252.975 49.873C251.055 64.2918 224.646 73.015 203.592 78.1367C178.993 84.1172 151.88 87.2995 125.33 88.9658C100.558 90.5197 74.872 90.1999 50.5887 86.8876C37.0421 85.0373 23.3837 81.9222 13.5964 76.1724C2.63329 69.729 1.81898 60.5195 6.30675 52.382C12.3061 41.5076 27.4396 32.4135 42.7994 25.3684C58.0032 18.3933 77.0366 12.4625 96.84 11.3351C99.3089 11.1949 99.3323 9.01297 96.84 9.15463C64.3433 11.0035 33.993 24.0642 15.1028 38.4056Z" id="Fill-4" fill="#1BACB0" fill-rule="evenodd" stroke="none" />
  </g>
</svg>