<?xml version="1.0" encoding="utf-8"?>
<svg width="260px" height="132px" viewBox="0 0 260 132" version="1.1" xmlns:xlink="http://www.w3.org/1999/xlink" xmlns="http://www.w3.org/2000/svg">
  <g id="Shape">
    <path d="M14.5739 40.9104C-0.270687 53.3496 -7.58628 71.0719 11.3805 83.3726C27.749 93.9917 55.3921 96.5616 77.8259 97.6226C100.348 98.6898 122.912 97.4064 145.075 94.8706C182.556 90.5863 251.683 79.2158 247.847 48.2283C245.648 30.4686 220.924 13.7342 196.314 6.09738C166.66 -3.10446 132.223 -0.578039 101.563 5.0613C70.435 10.7846 41.0546 20.895 22.2811 37.7243C7.09009 51.3427 -4.29501 73.0974 16.3237 86.8433C34.5399 98.9885 67.7939 98.6509 91.9474 96.3034C121.21 93.4581 150.337 89.6124 177.957 82.8406C203.296 76.6256 229.97 67.1204 241.827 51.1514C250.249 39.8027 248.668 27.7058 232.063 19.8605C215.05 11.8192 190.725 10.0519 170.072 9.13873C147.364 8.13532 125.259 9.0205 102.951 11.6512C97.6211 12.2812 92.2863 12.9066 86.9515 13.5102C84.5716 13.7809 85.5883 16.0211 87.9457 15.7519C102.803 14.0671 117.489 11.9483 132.585 11.3805C143.187 10.9838 153.831 10.9667 164.443 11.2607C186.478 11.8736 211.788 13.6066 230.17 21.8657C252.255 31.7925 242.459 49.9566 227.298 60.6504C206.602 75.252 173.574 82.3085 144.231 87.2805C116.395 91.9973 85.3172 96.5694 56.3435 94.8271C42.3048 93.9823 27.8017 91.0872 17.9957 84.5487C6.66833 76.9974 7.75286 65.9661 11.86 56.7363C21.9372 34.1136 52.7987 18.9348 86.7206 10.6617C119.357 2.706 157.592 -1.62501 190.944 7.11168C207.563 11.4629 220.977 19.2226 231.049 28.3747C239.065 35.6631 245.201 44.1384 244.116 53.1255C242.263 68.4848 216.779 77.7768 196.462 83.2326C172.725 89.6031 146.561 92.9929 120.941 94.768C97.0362 96.4232 72.25 96.0825 48.8171 92.5542C35.7449 90.5832 22.5648 87.2649 13.1203 81.1402C2.54107 74.2766 1.75528 64.4664 6.08589 55.7982C11.8751 44.2146 26.4787 34.5274 41.3006 27.0228C55.972 19.5929 74.3388 13.2753 93.4487 12.0743C95.8312 11.925 95.8537 9.60077 93.4487 9.75167C62.0901 11.7212 32.8026 25.6336 14.5739 40.9104Z" transform="matrix(0.99026805 0.1391731 -0.1391731 0.99026805 14.026244 0.2194004)" id="Fill-4" fill="#1BACB0" fill-rule="evenodd" stroke="none" />
  </g>
</svg>