<?xml version="1.0" encoding="utf-8"?>
<svg width="226px" height="102px" viewBox="0 0 226 102" version="1.1" xmlns:xlink="http://www.w3.org/1999/xlink" xmlns="http://www.w3.org/2000/svg">
  <path d="M13.046 39.2405C-0.242308 51.172 -6.79094 68.171 10.1874 79.9696C24.8398 90.1553 49.5848 92.6204 69.6667 93.638C89.8272 94.6617 110.026 93.4306 129.865 90.9984C163.417 86.8889 225.297 75.9825 221.863 46.2598C219.894 29.225 197.763 13.1736 175.733 5.84851C149.187 -2.97775 118.361 -0.554445 90.9149 4.85471C63.0506 10.3444 36.7505 20.0421 19.9452 36.1846C6.34678 49.2471 -3.84473 70.1138 14.6123 83.2987C30.9188 94.9482 60.6865 94.6244 82.3078 92.3727C108.502 89.6435 134.575 85.9548 159.3 79.4593C181.982 73.498 205.86 64.3808 216.474 49.0636C224.014 38.1781 222.598 26.5749 207.734 19.0498C192.504 11.3368 170.73 9.64163 152.241 8.76572C131.915 7.80326 112.127 8.65232 92.1577 11.1756C87.3867 11.7799 82.6111 12.3798 77.8356 12.9588C75.7052 13.2184 76.6154 15.3671 78.7256 15.109C92.0251 13.493 105.172 11.4606 118.685 10.916C128.175 10.5354 137.704 10.519 147.203 10.8011C166.928 11.389 189.585 13.0513 206.04 20.9733C225.809 30.4949 217.04 47.9176 203.469 58.1748C184.942 72.1805 155.376 78.949 129.11 83.718C104.192 88.2423 76.3726 92.6278 50.4366 90.9566C37.8697 90.1463 24.887 87.3694 16.109 81.0977C5.96923 73.8547 6.94006 63.2736 10.6166 54.4205C19.6373 32.7212 47.2634 18.162 77.6289 10.2266C106.844 2.59555 141.07 -1.55868 170.926 6.82141C185.803 10.995 197.81 18.438 206.826 27.2165C214.002 34.2074 219.494 42.3368 218.523 50.9572C216.865 65.6895 194.053 74.6023 175.865 79.8353C154.617 85.9458 131.196 89.1973 108.262 90.8999C86.863 92.4876 64.6754 92.1608 43.6992 88.7765C31.9975 86.8859 20.1991 83.7031 11.7448 77.8284C2.27467 71.2449 1.57126 61.8352 5.44786 53.5207C10.6301 42.4099 23.7027 33.1181 36.9707 25.9198C50.104 18.7932 66.5452 12.7334 83.6516 11.5815C85.7843 11.4382 85.8046 9.2089 83.6516 9.35364C55.5806 11.2427 29.3636 24.5873 13.046 39.2405Z" transform="matrix(0.99939084 0.034899496 -0.034899496 0.99939084 3.2805176 0)" id="Fill-4" fill="#000000" fill-rule="evenodd" stroke="none" />
</svg>