<?xml version="1.0" encoding="utf-8"?>
<svg width="320px" height="98px" viewBox="0 0 320 98" version="1.1" xmlns:xlink="http://www.w3.org/1999/xlink" xmlns="http://www.w3.org/2000/svg">
  <path d="M18.6287 35.9009C-0.345999 46.817 -9.69697 62.3692 14.5469 73.1637C35.4695 82.4825 70.8036 84.7378 99.479 85.6688C128.267 86.6053 157.109 85.4791 185.438 83.2538C233.348 79.4941 321.707 69.5159 316.804 42.3228C313.993 26.7378 282.391 12.0525 250.933 5.35076C213.029 -2.72432 169.011 -0.507258 129.82 4.44155C90.0318 9.46407 52.4771 18.3364 28.4803 33.105C9.06274 45.0559 -5.49 64.1467 20.8654 76.2094C44.1497 86.8675 86.6559 86.5712 117.53 84.5112C154.933 82.0142 192.164 78.6395 227.469 72.6968C259.858 67.2429 293.953 58.9016 309.109 44.888C319.875 34.9289 317.853 24.3132 296.629 17.4286C274.882 10.3719 243.79 8.82107 217.39 8.0197C188.365 7.13916 160.11 7.91595 131.595 10.2245C124.782 10.7774 117.963 11.3262 111.144 11.8559C108.102 12.0934 109.401 14.0593 112.414 13.8231C131.405 12.3446 150.178 10.4852 169.473 9.98694C183.025 9.63881 196.631 9.6238 210.195 9.88182C238.361 10.4197 270.714 11.9405 294.21 19.1883C322.439 27.8996 309.918 43.8395 290.539 53.2238C264.084 66.0374 221.866 72.2299 184.36 76.5931C148.779 80.7323 109.055 84.7446 72.0198 83.2156C54.0751 82.4743 35.5368 79.9337 23.0026 74.1958C8.52363 67.5692 9.90991 57.8886 15.1598 49.789C28.0407 29.9364 67.4887 16.6163 110.848 9.35622C152.565 2.37465 201.438 -1.42603 244.069 6.24086C265.313 10.0593 282.458 16.8688 295.333 24.9002C305.579 31.2961 313.422 38.7337 312.036 46.6204C309.667 60.0989 277.093 68.2531 251.123 73.0408C220.782 78.6313 187.338 81.606 154.59 83.1637C124.034 84.6163 92.3519 84.3173 62.3992 81.2211C45.6901 79.4914 28.8429 76.5794 16.7707 71.2047C3.24806 65.1815 2.24365 56.5726 7.77915 48.9658C15.1791 38.8006 33.8457 30.2996 52.7915 23.7139C71.5448 17.1938 95.0218 11.6497 119.449 10.5958C122.494 10.4648 122.523 8.42516 119.449 8.55759C79.3651 10.2859 41.9291 22.4948 18.6287 35.9009Z" transform="matrix(0.99939084 0.034899496 -0.034899496 0.99939084 3.0014648 0)" id="Fill-4" fill="#1BACB0" fill-rule="evenodd" stroke="none" />
</svg>