<?xml version="1.0" encoding="utf-8"?>
<svg width="293px" height="94px" viewBox="0 0 293 94" version="1.1" xmlns:xlink="http://www.w3.org/1999/xlink" xmlns="http://www.w3.org/2000/svg">
  <path d="M17.042 34.6486C-0.316529 45.1838 -8.87105 60.1935 13.3079 70.6115C32.4484 79.6052 64.773 81.7818 91.0061 82.6804C117.342 83.5842 143.728 82.4972 169.644 80.3496C213.473 76.721 294.307 67.091 289.821 40.8464C287.249 25.8051 258.339 11.632 229.561 5.16411C194.884 -2.62929 154.616 -0.489563 118.763 4.28661C82.3635 9.13393 48.0074 17.6968 26.0545 31.9502C8.29083 43.4842 -5.0224 61.909 19.0882 73.551C40.3894 83.8372 79.2751 83.5513 107.519 81.5631C141.737 79.1533 175.797 75.8962 208.095 70.1609C237.725 64.8972 268.916 56.8469 282.781 43.3221C292.63 33.7105 290.781 23.4651 271.364 16.8206C251.469 10.0101 223.026 8.51336 198.874 7.73995C172.321 6.89012 146.472 7.63981 120.386 9.86781C114.154 10.4014 107.915 10.9311 101.677 11.4423C98.8942 11.6716 100.083 13.5689 102.84 13.3409C120.213 11.914 137.387 10.1195 155.039 9.63856C167.436 9.30258 179.883 9.28808 192.292 9.5371C218.059 10.0562 247.656 11.524 269.151 18.5189C294.976 26.9263 283.521 42.3102 265.792 51.3671C241.591 63.7338 202.969 69.7103 168.657 73.9212C136.107 77.9161 99.7661 81.7884 65.8856 80.3127C49.4694 79.5973 32.51 77.1453 21.0434 71.6076C7.79764 65.2121 9.06585 55.8693 13.8686 48.0522C25.6523 28.8921 61.7404 16.0366 101.407 9.02984C139.571 2.29182 184.281 -1.37628 223.281 6.02316C242.715 9.70839 258.4 16.2804 270.178 24.0316C279.552 30.2044 286.727 37.3825 285.458 44.9941C283.292 58.0024 253.492 65.8722 229.734 70.4929C201.977 75.8883 171.382 78.7593 141.423 80.2626C113.47 81.6645 84.4859 81.376 57.0845 78.3878C41.7985 76.7184 26.3863 73.908 15.3423 68.7208C2.97141 62.9077 2.05255 54.5991 7.11657 47.2577C13.8862 37.4471 30.963 29.2426 48.2951 22.8867C65.4511 16.594 86.9284 11.2434 109.275 10.2262C112.061 10.0997 112.087 8.13126 109.275 8.25907C72.6053 9.9271 38.3579 21.7101 17.042 34.6486Z" transform="matrix(0.99939084 0.034899496 -0.034899496 0.99939084 2.8964844 0)" id="Fill-4" fill="#1BACB0" fill-rule="evenodd" stroke="none" />
</svg>