<?xml version="1.0" encoding="utf-8"?>
<svg width="223px" height="100px" viewBox="0 0 223 100" version="1.1" xmlns:xlink="http://www.w3.org/1999/xlink" xmlns="http://www.w3.org/2000/svg">
  <path d="M12.8697 38.4056C-0.239034 50.0833 -6.69917 66.7205 10.0497 78.2682C24.5041 88.2371 48.9148 90.6497 68.7253 91.6457C88.6133 92.6476 108.539 91.4427 128.11 89.0622C161.209 85.0402 222.252 74.3659 218.865 45.2755C216.923 28.6032 195.09 12.8933 173.358 5.72407C147.171 -2.91439 116.762 -0.542649 89.6863 4.75142C62.1986 10.1244 36.2539 19.6157 19.6757 35.4147C6.26101 48.1993 -3.79277 68.622 14.4149 81.5264C30.5009 92.928 59.8664 92.6111 81.1955 90.4073C107.036 87.7362 132.757 84.126 157.148 77.7687C179.523 71.9343 203.078 63.011 213.549 48.0197C220.986 37.3658 219.59 26.0095 204.927 18.6445C189.903 11.0955 168.423 9.43649 150.184 8.57922C130.132 7.63724 110.612 8.46822 90.9123 10.9378C86.2058 11.5293 81.4948 12.1164 76.7838 12.683C74.6822 12.9371 75.58 15.0402 77.6617 14.7875C90.7815 13.2059 103.751 11.2168 117.081 10.6837C126.443 10.3113 135.843 10.2952 145.214 10.5712C164.672 11.1467 187.023 12.7736 203.255 20.527C222.758 29.846 214.107 46.8981 200.719 56.9371C182.443 70.6447 153.277 77.2692 127.365 81.9368C102.784 86.3648 75.3406 90.657 49.755 89.0213C37.3579 88.2283 24.5507 85.5105 15.8914 79.3722C5.88856 72.2833 6.84628 61.9274 10.4732 53.2626C19.3719 32.025 46.6247 17.7756 76.5798 10.009C105.4 2.54033 139.164 -1.52552 168.616 6.67627C183.292 10.7611 195.137 18.0457 204.031 26.6375C211.11 33.4796 216.528 41.436 215.57 49.873C213.934 64.2918 191.43 73.015 173.489 78.1367C152.527 84.1172 129.423 87.2995 106.799 88.9658C85.6892 90.5197 63.8015 90.1999 43.1086 86.8876C31.5651 85.0373 19.9262 81.9222 11.5861 76.1724C2.24393 69.729 1.55003 60.5195 5.37424 52.382C10.4865 41.5076 23.3824 32.4135 36.4711 25.3684C49.4269 18.3933 65.6459 12.4625 82.5212 11.3351C84.6251 11.1949 84.645 9.01297 82.5212 9.15463C54.8295 11.0035 28.9668 24.0642 12.8697 38.4056Z" transform="matrix(0.99939084 0.034899496 -0.034899496 0.99939084 3.2106934 0)" id="Fill-4" fill="#000000" fill-rule="evenodd" stroke="none" />
</svg>