<?xml version="1.0" encoding="utf-8"?>
<svg width="152px" height="74px" viewBox="0 0 152 74" version="1.1" xmlns:xlink="http://www.w3.org/1999/xlink" xmlns="http://www.w3.org/2000/svg">
  <g id="ShapeRoundedDouble-Line">
    <path d="M8.81485 29.2217C-0.163722 38.1068 -4.58847 50.7656 6.88339 59.5519C16.7837 67.1369 33.5033 68.9726 47.0721 69.7304C60.6941 70.4927 74.3419 69.576 87.7467 67.7647C110.417 64.7045 152.228 56.5827 149.907 34.4488C148.577 21.7633 133.624 9.81015 118.738 4.35527C100.802 -2.21747 79.9738 -0.412885 61.429 3.61521C42.6018 7.70331 24.8314 14.925 13.4765 26.9459C4.28836 36.6734 -2.59779 52.2124 9.87321 62.0309C20.891 70.7061 41.0044 70.465 55.6134 68.7881C73.3124 66.7558 90.9294 64.0089 107.635 59.1718C122.961 54.7326 139.094 47.9432 146.266 36.5367C151.36 28.4305 150.404 19.7898 140.361 14.186C130.07 8.44226 115.358 7.17994 102.866 6.52766C89.1315 5.81094 75.7616 6.44321 62.2687 8.32225C59.045 8.77229 55.8183 9.21899 52.5916 9.65013C51.1522 9.84348 51.7671 11.4436 53.193 11.2514C62.1791 10.0479 71.062 8.53449 80.1924 8.1289C86.6048 7.84555 93.0431 7.83332 99.4615 8.04334C112.789 8.48115 128.098 9.71903 139.216 15.6184C152.574 22.7089 146.649 35.6833 137.479 43.3217C124.961 53.7514 104.984 58.7918 87.2365 62.3432C70.4 65.7123 51.6031 68.9782 34.0788 67.7336C25.5876 67.1302 16.8155 65.0623 10.8845 60.3919C4.03326 54.9982 4.68923 47.1187 7.17341 40.5259C13.2685 24.3669 31.9347 13.5249 52.4519 7.61553C72.1917 1.93286 95.3177 -1.16072 115.49 5.07977C125.542 8.1878 133.655 13.7305 139.747 20.2676C144.596 25.4736 148.307 31.5274 147.651 37.9468C146.53 48.9177 131.117 55.5549 118.828 59.4519C104.471 64.0022 88.6456 66.4235 73.1499 67.6914C58.6912 68.8737 43.6996 68.6304 29.5265 66.1102C21.6199 64.7023 13.6481 62.3321 7.93567 57.9573C1.53694 53.0547 1.06166 46.0475 3.68098 39.8559C7.18252 31.5819 16.0153 24.6624 24.9802 19.302C33.854 13.9949 44.963 9.48234 56.5214 8.6245C57.9624 8.51782 57.9761 6.85769 56.5214 6.96548C37.5545 8.37226 19.8403 18.3097 8.81485 29.2217Z" transform="matrix(0.9998477 0.017452406 -0.017452406 0.9998477 1.6222559 0.6963997)" id="Fill-4" fill="#1BACB0" fill-rule="evenodd" stroke="none" />
  </g>
</svg>