<?xml version="1.0" encoding="UTF-8"?>
<svg width="831px" height="840px" viewBox="0 0 831 840" version="1.1" xmlns="http://www.w3.org/2000/svg" xmlns:xlink="http://www.w3.org/1999/xlink">
    <title>Mask</title>
    <defs>
        <path d="M249.302202,2051 C248.693588,2064.93548 245.569404,2093.07211 241.03652,2116.52877 C235.756643,2143.85095 228.758414,2158.39769 224.581459,2174.38882 C222.258293,2183.28287 217.916425,2191.8037 216.707503,2200.87114 C216.008525,2206.11377 219.742584,2211.34967 218.955962,2216.58247 C216.260134,2234.51576 210.691355,2217.59489 210.046102,2233.26246 C209.768613,2240.00026 213.047294,2246.77316 211.82588,2253.42736 C208.895623,2269.39124 202.140219,2284.61301 197.739628,2300.30747 C196.348988,2305.26712 194.828754,2310.2611 194.459901,2315.36215 C193.8805,2323.37496 195.541664,2331.43728 194.909479,2339.44692 C194.431542,2345.50228 190.504458,2369.59009 187.933544,2375.82178 C187.066059,2377.92449 179.301218,2390.16927 179.166388,2395.05428 C179.078261,2398.2472 180.756282,2401.32885 180.820863,2404.52222 C180.97448,2412.11818 178.614337,2419.77503 179.818437,2427.29633 C180.449134,2431.23591 187.126077,2433.93749 186.15178,2437.82129 C183.215186,2449.52732 173.906066,2459.23656 169.003024,2470.40938 C168.660009,2471.19103 171.671522,2469.62477 171.832417,2470.45157 L174.368648,2472.38652 C175.137108,2476.33542 175.133179,2480.43463 174.548422,2484.40836 C171.820406,2502.94667 162.355807,2519.41824 160.17856,2538.11944 C150.531603,2620.98079 163.336551,2524.32599 160.210902,2578.72524 C160.036158,2581.76652 158.244475,2584.57704 157.697462,2587.58315 C155.827799,2597.85793 153.643778,2608.1329 152.968852,2618.52408 C149.787037,2667.51141 158.500794,2614.6522 153.673576,2656.29501 C153.447283,2658.24717 152.68423,2660.1539 151.727546,2661.92228 C146.252285,2672.04303 139.105836,2681.46434 134.415613,2691.89241 C129.952278,2701.81602 127.059285,2712.27137 124.39448,2722.69361 C121.713297,2733.1799 131.513891,2740.50573 128.839527,2747.49794 C123.286748,2762.01585 115.435659,2767.7748 116.489031,2781.86253 C117.080876,2789.77782 121.74059,2793.84269 118.768367,2801.66473 C109.715376,2825.48958 93.859783,2845.92636 102.80758,2872.89965 C103.613048,2875.32775 107.754077,2869.93218 110.59529,2869.78695 C116.419459,2869.48926 122.142401,2871.67321 127.975786,2871.61322 C137.427099,2871.51602 146.764521,2869.12451 156.213967,2869.31779 C217.800662,2870.5775 141.354751,2874.38704 190.42476,2873.26593 C204.854494,2872.93625 221.549282,2868.54111 236.196827,2872.98579 C240.805102,2874.38414 244.99753,2876.84463 249.721153,2877.89514 C255.410218,2879.16036 261.30819,2879.88442 267.172339,2879.8746 C274.629567,2879.8621 282.046039,2878.78409 289.425521,2877.8286 C316.675415,2874.30032 343.770126,2869.85446 371.036187,2866.42643 C375.83899,2865.82259 380.751109,2865.22921 385.567383,2865.74115 C429.198608,2870.37883 409.502379,2870.66311 449.487889,2881.99176 C476.793087,2889.72784 496.484932,2890.6974 526.641734,2890.98427 C555.641536,2891.26013 588.617893,2887.93122 615.964172,2879.14212 C626.696146,2875.69286 658.884763,2862.05862 669.995563,2861.36187 C679.909434,2860.74017 689.502988,2864.78531 699.328988,2866.11163 C702.569739,2866.54907 705.869212,2866.76894 709.144151,2866.64616 C721.847203,2866.16992 735.867833,2859.67562 748.070221,2860.69602 C773.790731,2862.84684 795.441414,2872.76488 821.677466,2868.49177 C837.261578,2865.95356 849.2415,2855.20021 864.486137,2853.23803 C877.270651,2851.5925 918.691358,2879.86443 929.159016,2861 C933.30123,2853.53506 929.159016,2095 929.159016,2066 C913.159016,2060 820.993858,2056.75421 774.173051,2056.9434 C767.29065,2056.97121 732.467576,2064.20678 725.612165,2063.66439 C695.840431,2061.30887 680.975007,2059.2013 651.196209,2056.91753 C642.854895,2056.27782 589.334974,2051.34021 580.962719,2051.34258 C523.557012,2051.3588 511.274138,2058.34377 453.889104,2056.97329 C425.769593,2056.30174 394.958794,2060.12969 353.656446,2057.24084 C331.256591,2055.6741 296.471844,2053.59382 249.302202,2051 Z" id="path-1"></path>
    </defs>
    <g id="Main-Files" stroke="none" stroke-width="1" fill="none" fill-rule="evenodd">
        <g id="01_Index-" transform="translate(-100.000000, -2051.000000)">
            <mask id="mask-2" fill="white">
                <use xlink:href="#path-1"></use>
            </mask>
            <use id="Mask" fill="#D8D8D8" transform="translate(515.579508, 2471.000000) scale(-1, -1) translate(-515.579508, -2471.000000) " xlink:href="#path-1"></use>
        </g>
    </g>
</svg>