<?xml version="1.0" encoding="utf-8"?>
<svg width="67px" height="38px" viewBox="0 0 67 38" version="1.1" xmlns:xlink="http://www.w3.org/1999/xlink" xmlns="http://www.w3.org/2000/svg">
  <g id="Sefu">
    <path d="M46.592 10.696Q45.696 10.696 45.04 11.192Q44.384 11.688 44.384 12.872L44.384 14.6L47.936 14.6L47.936 18.248L44.384 18.248L44.384 30.344L40.096 30.344L40.096 18.248L37.472 18.248L37.472 14.6L40.096 14.6L40.096 12.808Q40.096 10.152 41.648 8.552Q43.2 6.952 45.824 6.952Q47.232 6.952 47.936 7.272L47.936 10.856Q47.392 10.696 46.592 10.696ZM13.888 14.28L17.856 13.064Q17.632 12.008 17.12 11.048Q16.608 10.088 15.68 9.176Q14.752 8.264 13.216 7.72Q11.68 7.176 9.728 7.176Q6.464 7.176 4.144 9.224Q1.824 11.272 1.824 14.28Q1.824 16.808 3.424 18.504Q5.024 20.2 7.776 20.776L10.944 21.416Q12.256 21.672 12.976 22.392Q13.696 23.112 13.696 24.104Q13.696 25.352 12.72 26.12Q11.744 26.888 10.016 26.888Q7.744 26.888 6.48 25.672Q5.216 24.456 5.056 22.632L0.96 23.72Q1.088 25 1.68 26.2Q2.272 27.4 3.328 28.472Q4.384 29.544 6.112 30.184Q7.84 30.824 9.984 30.824Q13.728 30.824 15.952 28.728Q18.176 26.632 18.176 23.816Q18.176 21.352 16.512 19.528Q14.848 17.704 11.84 17.128L8.672 16.52Q6.208 16.04 6.208 13.96Q6.208 12.776 7.2 11.928Q8.192 11.08 9.76 11.08Q11.68 11.08 12.672 12.072Q13.664 13.064 13.888 14.28ZM35.712 25.832L32.16 24.776Q31.296 27.176 28.576 27.176Q26.976 27.176 25.824 26.152Q24.672 25.128 24.608 23.592L35.872 23.592L35.904 23.368Q35.904 23.176 35.92 22.856Q35.936 22.536 35.936 22.28Q35.936 18.472 33.872 16.296Q31.808 14.12 28.16 14.12Q25.024 14.12 22.72 16.44Q20.416 18.76 20.416 22.408Q20.416 26.248 22.784 28.536Q25.152 30.824 28.544 30.824Q31.328 30.824 33.2 29.416Q35.072 28.008 35.712 25.832ZM60.864 28.648Q60.864 29.704 60.992 30.344L65.056 30.344Q64.896 29 64.896 27.496L64.896 14.6L60.64 14.6L60.64 23.752Q60.64 25.16 59.84 26.008Q59.04 26.856 57.664 26.856Q56.256 26.856 55.52 25.976Q54.784 25.096 54.784 23.688L54.784 14.6L50.528 14.6L50.528 24.552Q50.528 27.208 52.128 28.984Q53.728 30.76 56.512 30.76Q57.856 30.76 59.056 30.232Q60.256 29.704 60.864 28.648ZM30.8 18.472Q31.68 19.368 31.744 20.68L24.704 20.68Q24.768 19.496 25.728 18.536Q26.688 17.576 28.224 17.576Q29.92 17.576 30.8 18.472Z" />
  </g>
</svg>